<svg width="18" height="17" viewBox="0 0 18 17" fill="none" xmlns="http://www.w3.org/2000/svg">
<path d="M16.0181 13.9995C15.8855 13.9995 15.7583 13.9469 15.6645 13.8531C15.5707 13.7593 15.5181 13.6322 15.5181 13.4995V4.81055C15.5181 4.67794 15.5707 4.55076 15.6645 4.45699C15.7583 4.36323 15.8855 4.31055 16.0181 4.31055C16.1507 4.31055 16.2779 4.36323 16.3716 4.45699C16.4654 4.55076 16.5181 4.67794 16.5181 4.81055V13.4995C16.5181 13.6322 16.4654 13.7593 16.3716 13.8531C16.2779 13.9469 16.1507 13.9995 16.0181 13.9995ZM13.0181 16.9995H3.01807C2.62024 16.9995 2.23871 16.8415 1.95741 16.5602C1.6761 16.2789 1.51807 15.8974 1.51807 15.4995V4.81055C1.51807 4.67794 1.57074 4.55076 1.66451 4.45699C1.75828 4.36323 1.88546 4.31055 2.01807 4.31055C2.15067 4.31055 2.27785 4.36323 2.37162 4.45699C2.46539 4.55076 2.51807 4.67794 2.51807 4.81055V15.4995C2.51807 15.6322 2.57074 15.7593 2.66451 15.8531C2.75828 15.9469 2.88546 15.9995 3.01807 15.9995H13.0181C13.1507 15.9995 13.2779 16.0522 13.3716 16.146C13.4654 16.2398 13.5181 16.3669 13.5181 16.4995C13.5181 16.6322 13.4654 16.7593 13.3716 16.8531C13.2779 16.9469 13.1507 16.9995 13.0181 16.9995Z" fill="#1A1A1A"/>
<path d="M9.01807 15C7.93027 15 6.8669 14.6774 5.96243 14.0731C5.05796 13.4687 4.35301 12.6098 3.93673 11.6048C3.52045 10.5998 3.41153 9.4939 3.62375 8.427C3.83597 7.36011 4.35979 6.3801 5.12898 5.61091C5.89817 4.84173 6.87818 4.3179 7.94507 4.10568C9.01197 3.89346 10.1178 4.00238 11.1228 4.41867C12.1278 4.83495 12.9868 5.5399 13.5912 6.44437C14.1955 7.34884 14.5181 8.4122 14.5181 9.5C14.5165 10.9582 13.9365 12.3562 12.9054 13.3873C11.8743 14.4184 10.4763 14.9984 9.01807 15ZM9.01807 5C8.12805 5 7.25802 5.26392 6.518 5.75839C5.77798 6.25286 5.2012 6.95566 4.86061 7.77793C4.52002 8.60019 4.4309 9.50499 4.60453 10.3779C4.77817 11.2508 5.20675 12.0526 5.83609 12.682C6.46542 13.3113 7.26725 13.7399 8.14016 13.9135C9.01308 14.0872 9.91788 13.9981 10.7401 13.6575C11.5624 13.3169 12.2652 12.7401 12.7597 12.0001C13.2541 11.26 13.5181 10.39 13.5181 9.5C13.5167 8.30693 13.0422 7.16311 12.1986 6.31948C11.355 5.47586 10.2111 5.00133 9.01807 5Z" fill="#B45C6C"/>
<path d="M15.664 16.8539L12.2 13.3889C12.1523 13.3428 12.1142 13.2876 12.088 13.2266C12.0618 13.1656 12.048 13.1 12.0474 13.0336C12.0468 12.9673 12.0595 12.9014 12.0846 12.84C12.1097 12.7785 12.1469 12.7227 12.1938 12.6757C12.2408 12.6288 12.2966 12.5917 12.358 12.5665C12.4195 12.5414 12.4853 12.5287 12.5517 12.5293C12.6181 12.5299 12.6837 12.5437 12.7447 12.5699C12.8057 12.5961 12.8609 12.6342 12.907 12.6819L16.372 16.1459C16.4185 16.1924 16.4554 16.2476 16.4805 16.3084C16.5057 16.3691 16.5186 16.4342 16.5186 16.4999C16.5186 16.5657 16.5057 16.6308 16.4805 16.6915C16.4554 16.7523 16.4185 16.8075 16.372 16.8539C16.3255 16.9004 16.2703 16.9373 16.2096 16.9625C16.1489 16.9876 16.0838 17.0006 16.018 17.0006C15.9523 17.0006 15.8872 16.9876 15.8264 16.9625C15.7657 16.9373 15.7105 16.9004 15.664 16.8539Z" fill="#B45C6C"/>
<path d="M12.0181 10C11.8855 10 11.7583 9.94732 11.6645 9.85355C11.5707 9.75979 11.5181 9.63261 11.5181 9.5C11.5181 8.83696 11.2547 8.20107 10.7858 7.73223C10.317 7.26339 9.68111 7 9.01807 7C8.88546 7 8.75828 6.94732 8.66451 6.85355C8.57074 6.75979 8.51807 6.63261 8.51807 6.5C8.51807 6.36739 8.57074 6.24021 8.66451 6.14645C8.75828 6.05268 8.88546 6 9.01807 6C9.94632 6 10.8366 6.36875 11.4929 7.02513C12.1493 7.6815 12.5181 8.57174 12.5181 9.5C12.5181 9.63261 12.4654 9.75979 12.3716 9.85355C12.2779 9.94732 12.1507 10 12.0181 10Z" fill="#EF8779"/>
<path d="M16.7339 5.91057L10.1009 1.33657C9.78089 1.12093 9.40378 1.00573 9.0179 1.00573C8.63201 1.00573 8.25491 1.12093 7.9349 1.33657L1.3019 5.91057C1.24808 5.95113 1.18661 5.98039 1.1212 5.99659C1.05578 6.0128 0.987765 6.01561 0.921235 6.00486C0.854705 5.99411 0.791035 5.97003 0.734049 5.93405C0.677064 5.89807 0.62794 5.85094 0.589628 5.7955C0.551317 5.74006 0.524609 5.67744 0.51111 5.61141C0.497611 5.54539 0.497599 5.47731 0.511074 5.41128C0.52455 5.34525 0.551235 5.28263 0.589526 5.22717C0.627817 5.17171 0.676925 5.12457 0.733897 5.08857L7.3669 0.514568C7.85427 0.185559 8.42887 0.00976562 9.0169 0.00976562C9.60492 0.00976562 10.1795 0.185559 10.6669 0.514568L17.2999 5.08957C17.403 5.16723 17.472 5.28174 17.4926 5.40913C17.5132 5.53653 17.4837 5.66695 17.4103 5.77312C17.337 5.87928 17.2254 5.95298 17.099 5.97878C16.9725 6.00458 16.841 5.9805 16.7319 5.91157L16.7339 5.91057Z" fill="#1A1A1A"/>
</svg>
