<svg width="17" height="17" viewBox="0 0 17 17" fill="none" xmlns="http://www.w3.org/2000/svg">
<path d="M11.75 1.69922H5.25C4.83579 1.69922 4.5 2.07977 4.5 2.54919V5.38245C4.5 5.85187 4.83579 6.23242 5.25 6.23242H11.75C12.1642 6.23242 12.5 5.85187 12.5 5.38245V2.54919C12.5 2.07977 12.1642 1.69922 11.75 1.69922Z" fill="#B45C6C"/>
<path d="M1.47998 16.4316L1.75098 15.6553C3.04898 11.9426 5.63498 9.63184 8.49998 9.63184C11.365 9.63184 13.951 11.9381 15.249 15.6519L15.52 16.4271L1.47998 16.4316Z" fill="#FFFFB3"/>
<path d="M12.813 11.6174C11.643 10.3712 10.1054 9.66333 8.50001 9.63184C6.89513 9.66209 5.35764 10.3683 4.18701 11.6128C5.34212 12.8844 6.88885 13.5961 8.4992 13.597C10.1096 13.5978 11.6569 12.8878 12.813 11.6174Z" fill="#21CE62"/>
<path d="M11.75 6.79932H5.25C4.91864 6.79872 4.60101 6.64927 4.3667 6.38373C4.1324 6.11819 4.00053 5.75822 4 5.38269V2.54944C4.00053 2.17391 4.1324 1.81393 4.3667 1.54839C4.60101 1.28286 4.91864 1.13341 5.25 1.13281H11.75C12.0814 1.13341 12.399 1.28286 12.6333 1.54839C12.8676 1.81393 12.9995 2.17391 13 2.54944V5.38269C12.9995 5.75822 12.8676 6.11819 12.6333 6.38373C12.399 6.64927 12.0814 6.79872 11.75 6.79932ZM5.25 2.26611C5.1837 2.26611 5.12011 2.29596 5.07322 2.3491C5.02634 2.40223 5 2.4743 5 2.54944V5.38269C5 5.45783 5.02634 5.5299 5.07322 5.58303C5.12011 5.63616 5.1837 5.66601 5.25 5.66601H11.75C11.8163 5.66601 11.8799 5.63616 11.9268 5.58303C11.9737 5.5299 12 5.45783 12 5.38269V2.54944C12 2.4743 11.9737 2.40223 11.9268 2.3491C11.8799 2.29596 11.8163 2.26611 11.75 2.26611H5.25Z" fill="#1A1A1A"/>
<path d="M8.5 2.2666C8.36739 2.2666 8.24021 2.2069 8.14645 2.10063C8.05268 1.99437 8 1.85024 8 1.69995V0.56665C8 0.416365 8.05268 0.272236 8.14645 0.165968C8.24021 0.0597006 8.36739 0 8.5 0C8.63261 0 8.75979 0.0597006 8.85355 0.165968C8.94732 0.272236 9 0.416365 9 0.56665V1.69995C9 1.85024 8.94732 1.99437 8.85355 2.10063C8.75979 2.2069 8.63261 2.2666 8.5 2.2666ZM8.5 10.1997C8.36739 10.1997 8.24021 10.14 8.14645 10.0337C8.05268 9.92747 8 9.78334 8 9.63305V6.23315C8 6.08287 8.05268 5.93874 8.14645 5.83247C8.24021 5.7262 8.36739 5.6665 8.5 5.6665C8.63261 5.6665 8.75979 5.7262 8.85355 5.83247C8.94732 5.93874 9 6.08287 9 6.23315V9.63305C9 9.78334 8.94732 9.92747 8.85355 10.0337C8.75979 10.14 8.63261 10.1997 8.5 10.1997Z" fill="#1A1A1A"/>
<path d="M10.5 4.53271H6.5C6.36739 4.53271 6.24021 4.47301 6.14645 4.36675C6.05268 4.26048 6 4.11635 6 3.96606C6 3.81578 6.05268 3.67165 6.14645 3.56538C6.24021 3.45911 6.36739 3.39941 6.5 3.39941H10.5C10.6326 3.39941 10.7598 3.45911 10.8536 3.56538C10.9473 3.67165 11 3.81578 11 3.96606C11 4.11635 10.9473 4.26048 10.8536 4.36675C10.7598 4.47301 10.6326 4.53271 10.5 4.53271Z" fill="#FFFFB3"/>
<path d="M15.0242 16.6063C14.0242 13.1089 11.6162 10.2031 8.50021 10.2031C5.38421 10.2031 2.97421 13.1055 1.97621 16.6063C1.9565 16.6776 1.92453 16.7439 1.88212 16.8012C1.83972 16.8585 1.78773 16.9057 1.72915 16.9401C1.67056 16.9745 1.60655 16.9955 1.54079 17.0017C1.47504 17.008 1.40884 16.9994 1.34602 16.9765C1.2832 16.9536 1.22499 16.9169 1.17477 16.8684C1.12454 16.8199 1.08327 16.7606 1.05336 16.6939C1.02344 16.6273 1.00547 16.5546 1.00046 16.48C0.99546 16.4054 1.00353 16.3305 1.02421 16.2595C2.16021 12.2702 4.94721 9.06641 8.50021 9.06641C12.0532 9.06641 14.8402 12.2612 15.9762 16.2561C16.0156 16.3988 16.0036 16.5533 15.9429 16.6861C15.8822 16.8188 15.7776 16.919 15.652 16.9647C15.5264 17.0105 15.3899 16.9981 15.2723 16.9304C15.1547 16.8626 15.0656 16.7448 15.0242 16.6029V16.6063Z" fill="#1A1A1A"/>
<path d="M16.5 16.9995H0.5C0.367392 16.9995 0.240215 16.9398 0.146447 16.8335C0.0526785 16.7273 0 16.5831 0 16.4329C0 16.2826 0.0526785 16.1384 0.146447 16.0322C0.240215 15.9259 0.367392 15.8662 0.5 15.8662H16.5C16.6326 15.8662 16.7598 15.9259 16.8536 16.0322C16.9473 16.1384 17 16.2826 17 16.4329C17 16.5831 16.9473 16.7273 16.8536 16.8335C16.7598 16.9398 16.6326 16.9995 16.5 16.9995Z" fill="#1A1A1A"/>
</svg>
