<svg width="17" height="17" viewBox="0 0 17 17" fill="none" xmlns="http://www.w3.org/2000/svg">
<path d="M5.25 12.4997C5.05117 12.4994 4.86056 12.4203 4.71996 12.2797C4.57937 12.1391 4.50026 11.9485 4.5 11.7497V4.83266L8.945 1.86966C9.10943 1.7598 9.30275 1.70117 9.5005 1.70117C9.69825 1.70117 9.89157 1.7598 10.056 1.86966L14.5 4.83266V11.7497C14.4997 11.9485 14.4206 12.1391 14.28 12.2797C14.1394 12.4203 13.9488 12.4994 13.75 12.4997H5.25Z" fill="#EF8779"/>
<path d="M2.14614 1.85392L1.50014 1.20692L0.854143 1.85392C0.760257 1.9478 0.632919 2.00055 0.500143 2.00055C0.367368 2.00055 0.24003 1.9478 0.146143 1.85392C0.0522566 1.76003 -0.00048828 1.63269 -0.000488281 1.49992C-0.000488282 1.36714 0.0522566 1.2398 0.146143 1.14592L1.14614 0.145917C1.19259 0.0993539 1.24776 0.062411 1.30851 0.0372045C1.36925 0.0119981 1.43438 -0.000976562 1.50014 -0.000976562C1.56591 -0.000976562 1.63103 0.0119981 1.69178 0.0372045C1.75252 0.062411 1.8077 0.0993539 1.85414 0.145917L2.85414 1.14592C2.94803 1.2398 3.00078 1.36714 3.00078 1.49992C3.00078 1.63269 2.94803 1.76003 2.85414 1.85392C2.76026 1.9478 2.63292 2.00055 2.50014 2.00055C2.36737 2.00055 2.24003 1.9478 2.14614 1.85392ZM15.1461 16.8539C15.0996 16.8075 15.0626 16.7523 15.0374 16.6916C15.0122 16.6308 14.9992 16.5657 14.9992 16.4999C14.9992 16.4342 15.0122 16.369 15.0374 16.3083C15.0626 16.2475 15.0996 16.1924 15.1461 16.1459L15.7931 15.4999L15.1461 14.8539C15.0523 14.76 14.9995 14.6327 14.9995 14.4999C14.9995 14.3671 15.0523 14.2398 15.1461 14.1459C15.24 14.052 15.3674 13.9993 15.5001 13.9993C15.6329 13.9993 15.7603 14.052 15.8541 14.1459L16.8541 15.1459C16.9007 15.1924 16.9377 15.2475 16.9629 15.3083C16.9881 15.369 17.001 15.4341 17.001 15.4999C17.001 15.5657 16.9881 15.6308 16.9629 15.6916C16.9377 15.7523 16.9007 15.8075 16.8541 15.8539L15.8541 16.8539C15.8077 16.9005 15.7525 16.9374 15.6918 16.9626C15.631 16.9878 15.5659 17.0008 15.5001 17.0008C15.4344 17.0008 15.3693 16.9878 15.3085 16.9626C15.2478 16.9374 15.1926 16.9005 15.1461 16.8539Z" fill="#B45C6C"/>
<path d="M1.5 17C1.36739 17 1.24021 16.9473 1.14645 16.8536C1.05268 16.7598 1 16.6326 1 16.5V0.5C1 0.367392 1.05268 0.240215 1.14645 0.146447C1.24021 0.0526785 1.36739 0 1.5 0C1.63261 0 1.75979 0.0526785 1.85355 0.146447C1.94732 0.240215 2 0.367392 2 0.5V16.5C2 16.6326 1.94732 16.7598 1.85355 16.8536C1.75979 16.9473 1.63261 17 1.5 17Z" fill="#B45C6C"/>
<path d="M16.5 16H0.5C0.367392 16 0.240215 15.9473 0.146447 15.8536C0.0526785 15.7598 0 15.6326 0 15.5C0 15.3674 0.0526785 15.2402 0.146447 15.1464C0.240215 15.0527 0.367392 15 0.5 15H16.5C16.6326 15 16.7598 15.0527 16.8536 15.1464C16.9473 15.2402 17 15.3674 17 15.5C17 15.6326 16.9473 15.7598 16.8536 15.8536C16.7598 15.9473 16.6326 16 16.5 16Z" fill="#B45C6C"/>
<path d="M15.223 5.91604L9.777 2.28604C9.69494 2.23143 9.59857 2.2023 9.5 2.2023C9.40143 2.2023 9.30506 2.23143 9.223 2.28604L3.777 5.91604C3.66667 5.98492 3.53384 6.0081 3.4067 5.98065C3.27956 5.95321 3.16812 5.8773 3.09603 5.76903C3.02394 5.66077 2.99688 5.52867 3.02058 5.40078C3.04429 5.27289 3.1169 5.15927 3.223 5.08404L8.668 1.45404C8.91439 1.28979 9.20389 1.20215 9.5 1.20215C9.79612 1.20215 10.0856 1.28979 10.332 1.45404L15.777 5.08404C15.8337 5.11947 15.8828 5.16592 15.9213 5.22065C15.9597 5.27538 15.9868 5.33727 16.0009 5.40266C16.0151 5.46805 16.0159 5.5356 16.0035 5.60133C15.991 5.66705 15.9655 5.7296 15.9284 5.78529C15.8913 5.84097 15.8434 5.88864 15.7876 5.92549C15.7318 5.96233 15.6691 5.9876 15.6033 5.99979C15.5376 6.01198 15.47 6.01085 15.4047 5.99647C15.3394 5.98208 15.2776 5.95473 15.223 5.91604Z" fill="#1A1A1A"/>
<path d="M13.75 13H5.25C4.91864 12.9995 4.60101 12.8676 4.3667 12.6333C4.1324 12.399 4.00053 12.0814 4 11.75V4.83301C4 4.7004 4.05268 4.57322 4.14645 4.47945C4.24021 4.38569 4.36739 4.33301 4.5 4.33301C4.63261 4.33301 4.75979 4.38569 4.85355 4.47945C4.94732 4.57322 5 4.7004 5 4.83301V11.75C5 11.8163 5.02634 11.8799 5.07322 11.9268C5.12011 11.9737 5.1837 12 5.25 12H13.75C13.8163 12 13.8799 11.9737 13.9268 11.9268C13.9737 11.8799 14 11.8163 14 11.75V4.83301C14 4.7004 14.0527 4.57322 14.1464 4.47945C14.2402 4.38569 14.3674 4.33301 14.5 4.33301C14.6326 4.33301 14.7598 4.38569 14.8536 4.47945C14.9473 4.57322 15 4.7004 15 4.83301V11.75C14.9995 12.0814 14.8676 12.399 14.6333 12.6333C14.399 12.8676 14.0814 12.9995 13.75 13Z" fill="#1A1A1A"/>
</svg>
