<svg width="18" height="17" viewBox="0 0 18 17" fill="none" xmlns="http://www.w3.org/2000/svg">
<path d="M11.0002 0.500024C9.85811 0.496906 8.73549 0.795591 7.74597 1.36584C6.75645 1.93609 5.93515 2.75766 5.36524 3.74737C4.79532 4.73709 4.49702 5.85981 4.50052 7.00188C4.50402 8.14395 4.80921 9.26482 5.38519 10.251L5.52919 10.5H10.0002C10.2573 10.5054 10.5088 10.5763 10.731 10.7059C10.9531 10.8355 11.1385 11.0196 11.2697 11.2408C11.4009 11.462 11.4736 11.7129 11.4809 11.97C11.4881 12.2271 11.4297 12.4818 11.3112 12.71L10.8462 13.565L11.8122 13.444C13.4448 13.2285 14.9348 12.4014 15.9811 11.1297C17.0274 9.85797 17.552 8.23653 17.4489 6.59295C17.3458 4.94938 16.6227 3.40621 15.4257 2.27523C14.2286 1.14425 12.647 0.509785 11.0002 0.500024Z" fill="#FFDC00"/>
<path d="M1.00021 10.5H10.0002C10.398 10.5 10.7796 10.658 11.0609 10.9393C11.3422 11.2206 11.5002 11.6022 11.5002 12C11.5002 12.3978 11.3422 12.7794 11.0609 13.0607C10.7796 13.342 10.398 13.5 10.0002 13.5H16.0002C16.398 13.5 16.7796 13.658 17.0609 13.9393C17.3422 14.2206 17.5002 14.6022 17.5002 15C17.5002 15.3978 17.3422 15.7794 17.0609 16.0607C16.7796 16.342 16.398 16.5 16.0002 16.5H7.50021L3.50021 14.5H0.887207L1.00021 10.5Z" fill="#FFFFB3"/>
<path d="M11.0001 14C10.8675 14 10.7403 13.9473 10.6465 13.8536C10.5528 13.7598 10.5001 13.6326 10.5001 13.5C10.5001 13.3674 10.5528 13.2402 10.6465 13.1465C10.7403 13.0527 10.8675 13 11.0001 13C12.3324 12.9997 13.6268 12.556 14.679 11.7388C15.7313 10.9216 16.4817 9.77742 16.8118 8.48664C17.1419 7.19586 17.033 5.83192 16.5022 4.60987C15.9715 3.38782 15.0491 2.37718 13.8805 1.7373C12.7119 1.09742 11.3635 0.864695 10.048 1.07583C8.73256 1.28696 7.52476 1.92993 6.61508 2.90336C5.7054 3.8768 5.14559 5.12532 5.02392 6.45208C4.90226 7.77884 5.22564 9.10836 5.9431 10.231C5.98121 10.2862 6.00782 10.3485 6.02135 10.4142C6.03489 10.4799 6.03507 10.5476 6.02188 10.6134C6.0087 10.6791 5.98242 10.7416 5.9446 10.797C5.90679 10.8524 5.85822 10.8996 5.80179 10.9358C5.74535 10.9721 5.6822 10.9966 5.6161 11.0079C5.54999 11.0192 5.48228 11.0171 5.417 11.0018C5.35172 10.9864 5.2902 10.958 5.2361 10.9184C5.182 10.8787 5.13643 10.8286 5.1021 10.771C4.26467 9.46137 3.887 7.91023 4.02864 6.3622C4.17028 4.81418 4.82317 3.35733 5.88435 2.2214C6.94554 1.08548 8.35465 0.335094 9.88947 0.0885852C11.4243 -0.157924 12.9975 0.113467 14.361 0.85996C15.7246 1.60645 16.8008 2.78558 17.4201 4.2114C18.0394 5.63722 18.1664 7.2286 17.7812 8.73461C17.396 10.2406 16.5205 11.5756 15.2926 12.5289C14.0648 13.4823 12.5546 13.9999 11.0001 14Z" fill="#A64700"/>
<path d="M12 9.5H9.75C9.61739 9.5 9.49021 9.44732 9.39645 9.35355C9.30268 9.25979 9.25 9.13261 9.25 9C9.25 8.86739 9.30268 8.74021 9.39645 8.64645C9.49021 8.55268 9.61739 8.5 9.75 8.5H12V7.5H10C9.73478 7.5 9.48043 7.39464 9.29289 7.20711C9.10536 7.01957 9 6.76522 9 6.5V5.5C9 5.23478 9.10536 4.98043 9.29289 4.79289C9.48043 4.60536 9.73478 4.5 10 4.5H12.25C12.3826 4.5 12.5098 4.55268 12.6036 4.64645C12.6973 4.74021 12.75 4.86739 12.75 5C12.75 5.13261 12.6973 5.25979 12.6036 5.35355C12.5098 5.44732 12.3826 5.5 12.25 5.5H10V6.5H12C12.2652 6.5 12.5196 6.60536 12.7071 6.79289C12.8946 6.98043 13 7.23478 13 7.5V8.5C13 8.76522 12.8946 9.01957 12.7071 9.20711C12.5196 9.39464 12.2652 9.5 12 9.5Z" fill="#FFFFB3"/>
<path d="M11 5.5C10.8674 5.5 10.7402 5.44732 10.6464 5.35355C10.5527 5.25979 10.5 5.13261 10.5 5V4C10.5 3.86739 10.5527 3.74021 10.6464 3.64645C10.7402 3.55268 10.8674 3.5 11 3.5C11.1326 3.5 11.2598 3.55268 11.3536 3.64645C11.4473 3.74021 11.5 3.86739 11.5 4V5C11.5 5.13261 11.4473 5.25979 11.3536 5.35355C11.2598 5.44732 11.1326 5.5 11 5.5ZM11 10.5C10.8674 10.5 10.7402 10.4473 10.6464 10.3536C10.5527 10.2598 10.5 10.1326 10.5 10V9C10.5 8.86739 10.5527 8.74021 10.6464 8.64645C10.7402 8.55268 10.8674 8.5 11 8.5C11.1326 8.5 11.2598 8.55268 11.3536 8.64645C11.4473 8.74021 11.5 8.86739 11.5 9V10C11.5 10.1326 11.4473 10.2598 11.3536 10.3536C11.2598 10.4473 11.1326 10.5 11 10.5Z" fill="#FFFFB3"/>
<path d="M16.0002 17H7.50021C7.42249 16.9996 7.34588 16.9814 7.27621 16.947L3.38221 15H1.38721C1.2546 15 1.12742 14.9473 1.03365 14.8536C0.939886 14.7598 0.887207 14.6326 0.887207 14.5C0.887207 14.3674 0.939886 14.2402 1.03365 14.1464C1.12742 14.0527 1.2546 14 1.38721 14H3.50021C3.57793 14.0004 3.65453 14.0186 3.72421 14.053L7.61821 16H16.0002C16.2654 16 16.5198 15.8946 16.7073 15.7071C16.8949 15.5196 17.0002 15.2652 17.0002 15C17.0002 14.7348 16.8949 14.4804 16.7073 14.2929C16.5198 14.1054 16.2654 14 16.0002 14H9.50021C9.3676 14 9.24042 13.9473 9.14665 13.8536C9.05289 13.7598 9.00021 13.6326 9.00021 13.5C9.00021 13.3674 9.05289 13.2402 9.14665 13.1464C9.24042 13.0527 9.3676 13 9.50021 13H16.0002C16.5306 13 17.0393 13.2107 17.4144 13.5858C17.7895 13.9609 18.0002 14.4696 18.0002 15C18.0002 15.5304 17.7895 16.0391 17.4144 16.4142C17.0393 16.7893 16.5306 17 16.0002 17Z" fill="#1A1A1A"/>
<path d="M10 14H8.5C8.36739 14 8.24021 13.9473 8.14645 13.8536C8.05268 13.7598 8 13.6326 8 13.5C8 13.3674 8.05268 13.2402 8.14645 13.1464C8.24021 13.0527 8.36739 13 8.5 13H10C10.2652 13 10.5196 12.8946 10.7071 12.7071C10.8946 12.5196 11 12.2652 11 12C11 11.7348 10.8946 11.4804 10.7071 11.2929C10.5196 11.1054 10.2652 11 10 11H1.5C1.36739 11 1.24021 10.9473 1.14645 10.8536C1.05268 10.7598 1 10.6326 1 10.5C1 10.3674 1.05268 10.2402 1.14645 10.1464C1.24021 10.0527 1.36739 10 1.5 10H10C10.5304 10 11.0391 10.2107 11.4142 10.5858C11.7893 10.9609 12 11.4696 12 12C12 12.5304 11.7893 13.0391 11.4142 13.4142C11.0391 13.7893 10.5304 14 10 14Z" fill="#1A1A1A"/>
</svg>
