<svg width="17" height="17" viewBox="0 0 17 17" fill="none" xmlns="http://www.w3.org/2000/svg">
<path d="M15.5 4.5H5.5C4.94772 4.5 4.5 4.94772 4.5 5.5V13.5C4.5 14.0523 4.94772 14.5 5.5 14.5H15.5C16.0523 14.5 16.5 14.0523 16.5 13.5V5.5C16.5 4.94772 16.0523 4.5 15.5 4.5Z" fill="#B45C6C"/>
<path d="M2.5 17C2.36739 17 2.24021 16.9473 2.14645 16.8536C2.05268 16.7598 2 16.6326 2 16.5V0.5C2 0.367392 2.05268 0.240215 2.14645 0.146447C2.24021 0.0526785 2.36739 0 2.5 0C2.63261 0 2.75979 0.0526785 2.85355 0.146447C2.94732 0.240215 3 0.367392 3 0.5V16.5C3 16.6326 2.94732 16.7598 2.85355 16.8536C2.75979 16.9473 2.63261 17 2.5 17Z" fill="#1A1A1A"/>
<path d="M16.5 3H0.5C0.367392 3 0.240215 2.94732 0.146447 2.85355C0.0526785 2.75979 0 2.63261 0 2.5C0 2.36739 0.0526785 2.24021 0.146447 2.14645C0.240215 2.05268 0.367392 2 0.5 2H16.5C16.6326 2 16.7598 2.05268 16.8536 2.14645C16.9473 2.24021 17 2.36739 17 2.5C17 2.63261 16.9473 2.75979 16.8536 2.85355C16.7598 2.94732 16.6326 3 16.5 3ZM15.5 15H5.5C5.10218 15 4.72064 14.842 4.43934 14.5607C4.15804 14.2794 4 13.8978 4 13.5V5.5C4 5.10218 4.15804 4.72064 4.43934 4.43934C4.72064 4.15804 5.10218 4 5.5 4H15.5C15.8978 4 16.2794 4.15804 16.5607 4.43934C16.842 4.72064 17 5.10218 17 5.5V13.5C17 13.8978 16.842 14.2794 16.5607 14.5607C16.2794 14.842 15.8978 15 15.5 15ZM5.5 5C5.36739 5 5.24021 5.05268 5.14645 5.14645C5.05268 5.24021 5 5.36739 5 5.5V13.5C5 13.6326 5.05268 13.7598 5.14645 13.8536C5.24021 13.9473 5.36739 14 5.5 14H15.5C15.6326 14 15.7598 13.9473 15.8536 13.8536C15.9473 13.7598 16 13.6326 16 13.5V5.5C16 5.36739 15.9473 5.24021 15.8536 5.14645C15.7598 5.05268 15.6326 5 15.5 5H5.5Z" fill="#1A1A1A"/>
<path d="M6.5 5C6.36739 5 6.24021 4.94732 6.14645 4.85355C6.05268 4.75979 6 4.63261 6 4.5V2.5C6 2.36739 6.05268 2.24021 6.14645 2.14645C6.24021 2.05268 6.36739 2 6.5 2C6.63261 2 6.75979 2.05268 6.85355 2.14645C6.94732 2.24021 7 2.36739 7 2.5V4.5C7 4.63261 6.94732 4.75979 6.85355 4.85355C6.75979 4.94732 6.63261 5 6.5 5ZM14.5 5C14.3674 5 14.2402 4.94732 14.1464 4.85355C14.0527 4.75979 14 4.63261 14 4.5V2.5C14 2.36739 14.0527 2.24021 14.1464 2.14645C14.2402 2.05268 14.3674 2 14.5 2C14.6326 2 14.7598 2.05268 14.8536 2.14645C14.9473 2.24021 15 2.36739 15 2.5V4.5C15 4.63261 14.9473 4.75979 14.8536 4.85355C14.7598 4.94732 14.6326 5 14.5 5Z" fill="#1A1A1A"/>
<path d="M7.646 12.354C7.59944 12.3076 7.56249 12.2524 7.53729 12.1916C7.51208 12.1309 7.49911 12.0658 7.49911 12C7.49911 11.9342 7.51208 11.8691 7.53729 11.8084C7.56249 11.7476 7.59944 11.6924 7.646 11.646L12.646 6.646C12.7399 6.55211 12.8672 6.49937 13 6.49937C13.1328 6.49937 13.2601 6.55211 13.354 6.646C13.4479 6.73989 13.5006 6.86723 13.5006 7C13.5006 7.13278 13.4479 7.26011 13.354 7.354L8.354 12.354C8.30756 12.4006 8.25238 12.4375 8.19163 12.4627C8.13089 12.4879 8.06577 12.5009 8 12.5009C7.93423 12.5009 7.86911 12.4879 7.80837 12.4627C7.74762 12.4375 7.69245 12.4006 7.646 12.354ZM12.5 13C12.2033 13 11.9133 12.912 11.6666 12.7472C11.42 12.5824 11.2277 12.3481 11.1142 12.074C11.0006 11.7999 10.9709 11.4983 11.0288 11.2074C11.0867 10.9164 11.2296 10.6491 11.4393 10.4393C11.6491 10.2296 11.9164 10.0867 12.2074 10.0288C12.4983 9.97095 12.7999 10.0006 13.074 10.1142C13.3481 10.2277 13.5824 10.42 13.7472 10.6666C13.912 10.9133 14 11.2033 14 11.5C14 11.8978 13.842 12.2794 13.5607 12.5607C13.2794 12.842 12.8978 13 12.5 13ZM12.5 11C12.4011 11 12.3044 11.0293 12.2222 11.0843C12.14 11.1392 12.0759 11.2173 12.0381 11.3087C12.0002 11.4 11.9903 11.5006 12.0096 11.5975C12.0289 11.6945 12.0765 11.7836 12.1464 11.8536C12.2164 11.9235 12.3055 11.9711 12.4025 11.9904C12.4994 12.0097 12.6 11.9998 12.6913 11.9619C12.7827 11.9241 12.8608 11.86 12.9157 11.7778C12.9707 11.6956 13 11.5989 13 11.5C13 11.3674 12.9473 11.2402 12.8536 11.1464C12.7598 11.0527 12.6326 11 12.5 11ZM8.5 9C8.20333 9 7.91332 8.91203 7.66665 8.74721C7.41997 8.58238 7.22771 8.34811 7.11418 8.07403C7.00065 7.79994 6.97094 7.49834 7.02882 7.20736C7.0867 6.91639 7.22956 6.64912 7.43934 6.43934C7.64912 6.22956 7.91639 6.0867 8.20736 6.02882C8.49834 5.97094 8.79994 6.00065 9.07403 6.11418C9.34811 6.22771 9.58238 6.41997 9.74721 6.66665C9.91203 6.91332 10 7.20333 10 7.5C10 7.89783 9.84197 8.27936 9.56066 8.56066C9.27936 8.84197 8.89783 9 8.5 9ZM8.5 7C8.40111 7 8.30444 7.02932 8.22222 7.08427C8.13999 7.13921 8.0759 7.2173 8.03806 7.30866C8.00022 7.40002 7.99032 7.50056 8.00961 7.59755C8.0289 7.69454 8.07652 7.78363 8.14645 7.85355C8.21637 7.92348 8.30546 7.9711 8.40246 7.99039C8.49945 8.00969 8.59998 7.99978 8.69134 7.96194C8.78271 7.9241 8.8608 7.86001 8.91574 7.77779C8.97068 7.69556 9 7.59889 9 7.5C9 7.36739 8.94732 7.24022 8.85355 7.14645C8.75979 7.05268 8.63261 7 8.5 7Z" fill="#FFFFB3"/>
</svg>
