<?xml version="1.0" encoding="utf-8"?>
<!-- Generator: Adobe Illustrator 16.0.0, SVG Export Plug-In . SVG Version: 6.00 Build 0)  -->
<!DOCTYPE svg PUBLIC "-//W3C//DTD SVG 1.1//EN" "http://www.w3.org/Graphics/SVG/1.1/DTD/svg11.dtd">
<svg version="1.1" id="레이어_1" xmlns="http://www.w3.org/2000/svg" xmlns:xlink="http://www.w3.org/1999/xlink" x="0px"
	 y="0px" width="430px" height="294px" viewBox="0 0 430 294" enable-background="new 0 0 430 294" xml:space="preserve">
<path fill-rule="evenodd" clip-rule="evenodd" fill="#040302" d="M10.214,194.154c1.584-2.266,3.346-4.255,6.454-4.145
	c14.897,1.852,29.798,3.682,44.69,5.564c5.535,0.7,10.129-1.328,12.025-5.684c1.177-2.706,1.295-5.664,1.453-8.581
	c2.08-16.49,4.182-32.977,6.236-49.47c3.023-24.278,6.061-48.555,8.986-72.846c0.766-6.358-2.78-11.135-9.023-11.951
	c-15.288-2.001-30.609-3.751-45.917-5.602c-4.37-2.082-5.854-4.563-4.751-7.939c1.012-3.096,3.935-4.431,8.213-3.893
	c14.26,1.793,28.516,3.631,42.791,5.293c13.362,1.555,21.904,11.633,20.609,24.983c-0.273,2.823,0.232,3.755,3.096,3.806
	c4.521,0.08,9.043,0.458,13.553,0.857c1.846,0.164,2.875-0.399,3.673-2.106c1.743-3.728,3.647-7.382,5.583-11.015
	c5.801-10.891,15.863-15.23,27.822-12.045c3.594,0.957,7.18,1.945,10.77,2.917c3.969,1.073,6.245,3.388,5.712,7.77
	c-1.676,4.147-4.879,4.952-8.819,3.919c-3.471-0.909-6.889-2.02-10.361-2.919c-7.17-1.855-11.335-0.005-14.79,6.564
	c-2.537,4.824-5.081,9.648-7.44,14.561c-1.652,3.439-4.077,4.919-7.943,4.587c-6.502-0.559-13.041-0.686-19.536-1.295
	c-2.687-0.252-3.306,0.563-3.609,3.121c-2.466,20.753-5.122,41.482-7.698,62.223c-1.656,13.343-3.218,26.697-4.959,40.029
	c-0.365,2.8,0.056,3.996,3.275,4.035c5.316,0.063,10.629,0.678,15.939,1.102c1.375,0.11,2.51-0.12,3.713-0.961
	c12.209-8.547,24.936-5.631,32.23,7.418c0.811,1.449,1.498,1.927,3.078,1.438c10.453-3.237,21.891,2.763,25.16,12.165
	c0.47,1.35,1.145,1.684,2.668,1.441c12.441-1.973,20.851,2.902,24.916,14.459c0.529,1.505,0.995,2.068,2.684,2.086
	c14.534,0.158,22.452,8.264,22.567,22.938c-0.514,4.341-2.343,8.105-4.943,11.567c-3.269,4.35-6.469,8.749-9.698,13.127
	c-3.688,4.444-7.627,8.432-13.627,9.766c-11.182,2.488-21.699-3.503-24.876-14.489c-0.612-2.117-1.212-3.114-3.876-3.076
	c-9.664,0.137-17.465-5.904-19.985-15.191c-0.552-2.033-1.227-2.674-3.438-2.683c-10.126-0.041-17.736-5.957-20.536-15.72
	c-0.388-1.354-0.531-2.295-2.397-2.457c-17.864-1.548-25.404-12.746-20.201-30.255c-4.775-0.335-9.496-0.587-14.196-1.036
	c-1.823-0.174-2.565,0.867-3.468,2.07c-5.454,7.273-12.805,10.047-21.711,8.938c-14.008-1.744-27.998-3.631-42.023-5.212
	c-3.397-0.383-6.064-1.455-8.072-4.175C10.214,196.821,10.214,195.488,10.214,194.154z M211.236,245.786
	c-0.13-4.866-1.922-7.589-5.439-9.106c-3.675-1.585-7.462-0.74-10.349,2.794c-4.118,5.04-8.026,10.261-11.864,15.521
	c-3.435,4.707-2.903,10.116,1.053,13.181c4.148,3.213,9.461,2.261,13.236-2.548c3.774-4.808,7.433-9.71,11.079-14.617
	C210.312,249.182,211.364,247.177,211.236,245.786z M165.538,251.854c2.824,0.11,4.904-0.446,6.408-2.098
	c5.202-5.711,9.99-11.78,13.912-18.43c2.148-3.644,0.756-8.216-2.535-10.688c-3.301-2.478-8.073-2.556-10.976,0.465
	c-5.351,5.566-10.146,11.687-13.925,18.402C155.233,245.174,159.624,251.758,165.538,251.854z M159.808,212.4
	c-0.199-2.198-1.666-4.887-4.767-6.461c-3.24-1.645-6.696-1.655-9.284,0.868c-4.559,4.446-8.463,9.532-11.42,15.19
	c-1.609,3.079-0.784,6.238,1.523,8.853c2.281,2.582,5.138,3.694,8.561,2.836C149.276,232.469,159.923,218.554,159.808,212.4z
	 M119.281,215.83c0.238-0.042,1.173-0.107,2.045-0.377c4.426-1.37,10.597-9.776,10.608-14.388c0.009-3.505-1.509-6.146-4.635-7.716
	c-3.221-1.618-6.51-1.555-9.323,0.766c-3.195,2.636-5.78,5.928-7.401,9.73C108.104,209.64,112.345,215.785,119.281,215.83z"/>
<path fill-rule="evenodd" clip-rule="evenodd" fill="#F7C094" d="M223.264,246.979c-0.115-14.674-8.033-22.779-22.567-22.938
	c-1.688-0.018-2.154-0.581-2.684-2.086c-4.065-11.557-12.475-16.432-24.916-14.459c-1.523,0.242-2.198-0.092-2.668-1.441
	c-3.27-9.402-14.707-15.402-25.16-12.165c-1.58,0.489-2.268,0.012-3.078-1.438c-7.295-13.049-20.021-15.965-32.23-7.418
	c-1.203,0.841-2.338,1.071-3.713,0.961c-5.311-0.424-10.623-1.038-15.939-1.102c-3.22-0.039-3.641-1.235-3.275-4.035
	c1.741-13.332,3.303-26.687,4.959-40.029c2.576-20.74,5.232-41.47,7.698-62.223c0.304-2.559,0.923-3.373,3.609-3.121
	c6.495,0.609,13.034,0.736,19.536,1.295c3.866,0.332,6.291-1.147,7.943-4.587c2.359-4.912,4.903-9.736,7.44-14.561
	c3.455-6.569,7.62-8.42,14.79-6.564c3.473,0.899,6.891,2.01,10.361,2.919c3.94,1.033,7.144,0.229,8.819-3.919
	c3.421,0.913,6.841,1.825,10.263,2.737c-0.156,0.362-0.278,0.745-0.476,1.084c-14.05,24.141-28.181,48.232-42.122,72.437
	c-5.661,9.831-1.865,20.112,8.525,24.13c17.88,6.914,36.834,2.264,49.275-12.293c3.975-4.65,7.699-9.538,11.256-14.52
	c1.676-2.346,2.787-2.276,4.91-0.586c8.484,6.756,18.021,11.258,28.907,12.479c1.717,0.193,2.944,0.924,4.18,1.998
	c6.734,5.857,13.523,11.651,20.271,17.496c16.808,14.56,33.602,29.136,50.402,43.704c-1.436,8.566-7.348,13.099-14.711,16.324
	c-5.877-4.981-11.704-10.024-17.652-14.921c-3.235-2.664-6.532-2.464-8.88,0.22c-2.238,2.559-1.854,6.024,1.079,8.839
	c1.818,1.747,3.747,3.38,5.626,5.064c-2.531,5.713-7.056,9.806-11.483,13.947c-0.965,0.903-2.285,1.4-2.208,3.014
	c-1.254-0.962-2.553-1.872-3.754-2.896c-4.427-3.775-8.753-7.672-13.251-11.36c-3.227-2.646-6.501-2.443-8.835,0.213
	c-2.24,2.55-1.861,6.028,0.977,8.808c1.124,1.101,2.279,2.169,3.421,3.253c-3.555,4.214-6.739,8.829-10.77,12.525
	C233.411,245.186,229.345,249.177,223.264,246.979z"/>
<path fill-rule="evenodd" clip-rule="evenodd" fill="#F09E5B" d="M235.168,43.614c3.918-0.459,7.836-0.919,11.754-1.378
	c0.874,4.256,3.519,6.024,7.78,5.585c1.854-0.19,3.742-0.145,5.568-0.466c6.045-1.063,11.508,0.182,16.816,3.272
	c10.801,6.286,21.794,12.244,32.627,18.478c2.814,1.619,5.627,2.189,8.771,1.706c2.63-0.405,5.315-0.522,7.902-1.098
	c2.294-0.511,2.908,0.124,3.178,2.437c1.681,14.403,3.597,28.779,5.338,43.176c1.757,14.523,3.401,29.063,5.096,43.596
	c-6.193,1.542-12.575,1.637-18.87,2.371c-4.573,0.533-8.759,1.501-12.173,4.874c-1.592,1.572-3.55,2.773-5.341,4.143
	c-13.759-11.787-27.518-23.571-41.256-35.382c-0.223-0.191-0.191-0.678-0.312-1.16c13.651-4.369,23.806-13.402,32.913-23.887
	c3.182-3.663,3.516-7.395,0.735-9.834c-2.794-2.451-6.4-1.813-9.677,1.936c-3.693,4.227-7.548,8.276-11.966,11.747
	c-11.11,8.729-23.334,12.663-37.333,8.295c-7.771-2.425-14.419-6.776-20.256-12.403c-5.165-4.98-8.073-4.834-12.417,0.748
	c-4.828,6.204-9.494,12.537-14.418,18.664c-9.158,11.398-22.087,15.182-35.744,10.655c-4.793-1.589-5.748-3.771-3.271-8.046
	c13.475-23.271,26.995-46.514,40.498-69.768c3.396-5.85,8.383-9.011,15.209-9.517c7.305-0.54,14.578-1.493,21.881-2.074
	C232.485,49.943,234.819,47.899,235.168,43.614z"/>
<path fill-rule="evenodd" clip-rule="evenodd" fill="#030303" d="M235.168,43.614c-0.349,4.285-2.683,6.329-6.966,6.67
	c-7.303,0.581-14.576,1.534-21.881,2.074c-6.826,0.506-11.813,3.667-15.209,9.517c-13.503,23.254-27.023,46.497-40.498,69.768
	c-2.477,4.275-1.521,6.457,3.271,8.046c13.657,4.526,26.586,0.743,35.744-10.655c4.924-6.127,9.59-12.46,14.418-18.664
	c4.344-5.582,7.252-5.729,12.417-0.748c5.837,5.627,12.485,9.979,20.256,12.403c13.999,4.368,26.223,0.434,37.333-8.295
	c4.418-3.471,8.272-7.521,11.966-11.747c3.276-3.748,6.883-4.387,9.677-1.936c2.78,2.439,2.446,6.171-0.735,9.834
	c-9.107,10.484-19.262,19.518-32.913,23.887c0.12,0.482,0.089,0.969,0.312,1.16c13.738,11.811,27.497,23.595,41.256,35.382
	c3.37,3.007,6.748,6.004,10.104,9.026c0.957,0.862,1.844,1.488,3.063,0.371c1.944-1.783,4.379-1.663,6.79-1.653
	c5.326,0.021,10.653-0.053,15.979,0.021c1.91,0.026,3.075-0.269,2.725-2.606c-0.825-5.507-1.525-11.03-2.276-16.547
	c-1.694-14.533-3.339-29.072-5.096-43.596c-1.741-14.396-3.657-28.772-5.338-43.176c-0.27-2.313-0.884-2.947-3.178-2.437
	c-2.587,0.575-5.272,0.692-7.902,1.098c-3.145,0.483-5.957-0.087-8.771-1.706c-10.833-6.233-21.826-12.191-32.627-18.478
	c-5.309-3.091-10.771-4.335-16.816-3.272c-1.826,0.321-3.715,0.275-5.568,0.466c-4.262,0.439-6.906-1.329-7.78-5.585
	c0.386-4.156,2.955-5.789,6.831-6.448c12.043-2.046,23.057-0.19,33.488,6.659c8.418,5.525,17.58,9.906,26.302,14.988
	c4.619,2.691,9.033,0.207,13.529-0.029c1.289-0.068,0.754-1.488,0.868-2.316c1.599-11.527,9.218-18.837,20.76-20.188
	c14.27-1.67,28.521-3.499,42.776-5.292c4.278-0.538,7.2,0.792,8.217,3.882c1.108,3.373-0.37,5.855-4.732,7.948
	c-14.778,1.804-29.558,3.598-44.335,5.415c-8.171,1.004-11.514,5.588-10.442,13.71c1.845,13.974,3.493,27.973,5.234,41.96
	c3.268,26.258,6.542,52.516,9.813,78.772c0.496,11.061,4.807,15.42,13.846,14.249c14.759-1.91,29.533-3.702,44.302-5.545
	c4.345,0.734,6.505,2.824,6.404,6.194c-0.1,3.336-2.486,5.428-6.768,5.96c-14.532,1.809-29.062,3.638-43.595,5.431
	c-11.412,1.407-20.918-4.428-24.625-15.212c-0.479-1.397-0.746-2.387-2.523-2.355c-5.001,0.088-10.003,0.03-15.766,0.03
	c2.369,2.258,4.246,3.864,5.911,5.666c4.932,5.338,6.588,11.711,4.188,18.492c-3.813,10.78-16.139,22.175-31.295,16.73
	c-1.965-0.705-2.844-0.052-3.983,1.264c-2.698,3.117-5.343,6.318-8.342,9.131c-6.375,5.979-13.978,7.362-22.211,4.848
	c-2.123-0.647-3.34-0.453-4.66,1.314c-1.75,2.343-3.748,4.506-5.7,6.69c-4.444,4.975-9.879,7.902-16.663,8.281
	c-6.381,0.355-8.841-1.849-8.704-8.179c1.76-2.898,4.434-3.963,7.701-3.861c3.419,0.105,6.143-1.351,8.354-3.846
	c2.018-2.277,3.905-4.674,5.998-6.878c1.277-1.346,0.933-2.143-0.34-3.157c-2.991-2.385-5.906-4.865-8.852-7.306
	c-1.142-1.084-2.297-2.152-3.421-3.253c-2.838-2.779-3.217-6.258-0.977-8.808c2.334-2.656,5.608-2.858,8.835-0.213
	c4.498,3.688,8.824,7.585,13.251,11.36c1.201,1.024,2.5,1.935,3.754,2.897c5.563,5.608,11.718,5.626,16.965,0.051
	c7.409-7.873,7.413-7.877-0.203-14.519c-0.993-0.865-2.045-1.664-3.07-2.494c-1.879-1.685-3.808-3.317-5.626-5.064
	c-2.934-2.814-3.317-6.28-1.079-8.839c2.348-2.684,5.645-2.884,8.88-0.22c5.948,4.896,11.775,9.939,17.652,14.921
	c0.252,0.301,0.47,0.64,0.759,0.898c6.757,6.048,12.942,5.781,18.582-0.79c5.277-6.151,4.681-8.957-3.323-15.554
	c-0.403-0.332-0.87-0.587-1.307-0.879c-16.801-14.568-33.595-29.145-50.402-43.704c-6.747-5.845-13.536-11.639-20.271-17.496
	c-1.235-1.074-2.463-1.805-4.18-1.998c-10.887-1.222-20.423-5.724-28.907-12.479c-2.123-1.69-3.234-1.76-4.91,0.586
	c-3.557,4.981-7.281,9.869-11.256,14.52c-12.441,14.557-31.396,19.207-49.275,12.293c-10.391-4.018-14.187-14.299-8.525-24.13
	c13.941-24.204,28.072-48.296,42.122-72.437c0.197-0.339,0.319-0.722,0.476-1.084c6.107-7.899,14.084-12.049,24.124-12.572
	c6.737-0.352,13.442-1.281,20.164-1.918C231.587,37.857,233.217,38.906,235.168,43.614z"/>
<path fill-rule="evenodd" clip-rule="evenodd" fill="#5C9BEC" d="M355.231,181.298c-3.271-26.257-6.546-52.515-9.813-78.772
	c-1.741-13.987-3.39-27.986-5.234-41.96c-1.071-8.122,2.271-12.706,10.442-13.71c14.777-1.817,29.557-3.611,44.335-5.415
	c1.721,14.501,3.403,29.005,5.176,43.499c2.255,18.446,4.596,36.882,6.875,55.325c1.563,12.645,3.084,25.295,4.624,37.943
	c-1.685-0.023-3.399,0.398-4.996,0.367c-3.38-0.066-6.702,2.548-10.097,0.261c0.477-1.093,1.013-2.165,1.422-3.283
	c2.893-7.92-0.33-16.849-7.6-21.129c-7.299-4.299-16.55-2.789-22.135,3.612c-6.34,7.269-5.787,16.334,1.516,24.833
	C364.599,185.204,359.965,182.789,355.231,181.298z"/>
<path fill-rule="evenodd" clip-rule="evenodd" fill="#EB5574" d="M35.119,41.441c15.308,1.851,30.629,3.601,45.917,5.602
	c6.243,0.816,9.789,5.593,9.023,11.951c-2.926,24.291-5.963,48.567-8.986,72.846c-2.055,16.493-4.156,32.979-6.236,49.47
	c-1.501,0.399-2.983,0.901-4.507,1.178c-3.282,0.596-6.594,1.23-9.782-0.45c0.559-0.742,1.134-1.472,1.67-2.229
	c4.213-5.944,4.383-13.924,0.436-19.902c-4.09-6.191-11.521-9.052-18.843-7.407c-9.212,2.068-17.856,13.572-10.851,26.396
	c-4.895,0.547-9.67-1.343-14.569-0.716c2.615-21.266,5.216-42.534,7.85-63.797c2.552-20.608,5.147-41.211,7.698-61.818
	C34.396,48.863,34.729,45.148,35.119,41.441z"/>
<path fill-rule="evenodd" clip-rule="evenodd" fill="#C8395E" d="M60.548,182.037c3.188,1.681,6.5,1.046,9.782,0.45
	c1.523-0.276,3.006-0.778,4.507-1.178c-0.158,2.917-0.276,5.875-1.453,8.581c-1.896,4.355-6.49,6.384-12.025,5.684
	c-14.893-1.883-29.793-3.713-44.69-5.564c0.575-3.943,1.149-7.888,1.723-11.831c4.899-0.628,9.675,1.262,14.569,0.715
	C41.328,188.803,50.127,189.806,60.548,182.037z"/>
<path fill-rule="evenodd" clip-rule="evenodd" fill="#347ECF" d="M355.231,181.298c4.733,1.491,9.367,3.906,14.515,1.571
	c10.638,6.773,18.728,5.556,26.797-4.033c3.395,2.287,6.717-0.327,10.097-0.261c1.597,0.031,3.312-0.391,4.996-0.367
	c0.582,3.932,1.164,7.863,1.744,11.795c-14.77,1.842-29.544,3.634-44.303,5.544C360.038,196.718,355.728,192.358,355.231,181.298z"
	/>
<path fill-rule="evenodd" clip-rule="evenodd" fill="#E19D69" d="M247.909,229.24c2.945,2.44,5.86,4.921,8.852,7.306
	c1.272,1.015,1.617,1.812,0.34,3.157c-2.093,2.204-3.98,4.601-5.998,6.878c-2.211,2.495-4.935,3.951-8.354,3.846
	c-3.268-0.102-5.941,0.963-7.701,3.861c-2.518-1.726-4.18-0.653-5.885,1.465c-2.98,3.7-6.107,7.294-9.35,10.767
	c-2.985,3.196-6.715,5.06-11.191,5.154c3.229-4.378,6.43-8.777,9.698-13.127c2.601-3.462,4.43-7.227,4.943-11.567
	c6.081,2.197,10.147-1.794,13.876-5.214C241.17,238.069,244.354,233.454,247.909,229.24z"/>
<path fill-rule="evenodd" clip-rule="evenodd" fill="#EE9C5A" d="M211.236,245.786c0.128,1.391-0.925,3.396-2.284,5.225
	c-3.646,4.907-7.305,9.81-11.079,14.617c-3.775,4.809-9.088,5.761-13.236,2.548c-3.956-3.064-4.487-8.474-1.053-13.181
	c3.838-5.261,7.746-10.481,11.864-15.521c2.887-3.534,6.674-4.379,10.349-2.794C209.314,238.197,211.106,240.92,211.236,245.786z"/>
<path fill-rule="evenodd" clip-rule="evenodd" fill="#EE9C5A" d="M165.538,251.854c-5.914-0.096-10.305-6.68-7.115-12.348
	c3.779-6.716,8.574-12.836,13.925-18.402c2.902-3.021,7.675-2.942,10.976-0.465c3.291,2.472,4.684,7.044,2.535,10.688
	c-3.922,6.649-8.71,12.719-13.912,18.43C170.442,251.407,168.362,251.964,165.538,251.854z"/>
<path fill-rule="evenodd" clip-rule="evenodd" fill="#EE9C5A" d="M159.808,212.4c0.115,6.153-10.531,20.068-15.387,21.286
	c-3.423,0.858-6.279-0.254-8.561-2.836c-2.308-2.614-3.133-5.773-1.523-8.853c2.957-5.658,6.861-10.744,11.42-15.19
	c2.588-2.523,6.044-2.513,9.284-0.868C158.142,207.514,159.608,210.202,159.808,212.4z"/>
<path fill-rule="evenodd" clip-rule="evenodd" fill="#EE9C5A" d="M119.281,215.83c-6.937-0.045-11.177-6.19-8.706-11.984
	c1.621-3.803,4.206-7.095,7.401-9.73c2.813-2.32,6.103-2.384,9.323-0.766c3.126,1.57,4.644,4.211,4.635,7.716
	c-0.012,4.611-6.183,13.018-10.608,14.388C120.454,215.723,119.52,215.788,119.281,215.83z"/>
<path fill-rule="evenodd" clip-rule="evenodd" fill="#E09C68" d="M283.043,214.263c1.025,0.83,2.077,1.629,3.07,2.494
	c7.616,6.642,7.612,6.646,0.203,14.519c-5.247,5.575-11.402,5.558-16.965-0.051c-0.077-1.614,1.243-2.111,2.208-3.015
	C275.987,224.068,280.512,219.976,283.043,214.263z"/>
<path fill-rule="evenodd" clip-rule="evenodd" fill="#E09C68" d="M317.581,198.736c0.437,0.292,0.903,0.547,1.307,0.879
	c8.004,6.597,8.601,9.402,3.323,15.554c-5.64,6.571-11.825,6.838-18.582,0.79c-0.289-0.259-0.507-0.598-0.759-0.898
	C310.233,211.835,316.146,207.303,317.581,198.736z"/>
<path fill-rule="evenodd" clip-rule="evenodd" fill="#D07B41" d="M339.999,158.922c0.751,5.517,1.451,11.04,2.276,16.547
	c0.351,2.338-0.814,2.633-2.725,2.606c-5.325-0.074-10.652,0-15.979-0.021c-2.411-0.01-4.846-0.13-6.79,1.653
	c-1.219,1.117-2.105,0.491-3.063-0.371c-3.356-3.022-6.734-6.02-10.104-9.026c1.791-1.369,3.749-2.57,5.341-4.143
	c3.414-3.373,7.6-4.341,12.173-4.874C327.424,160.559,333.806,160.464,339.999,158.922z"/>
<path fill-rule="evenodd" clip-rule="evenodd" fill="#020304" d="M396.543,178.836c-8.069,9.589-16.159,10.807-26.797,4.033
	c-7.303-8.499-7.855-17.564-1.516-24.833c5.585-6.401,14.836-7.911,22.135-3.612c7.27,4.28,10.492,13.209,7.6,21.129
	C397.556,176.671,397.02,177.743,396.543,178.836z M387.017,169.722c0.101-2.915-2.564-5.702-5.497-5.749
	c-2.778-0.044-5.411,2.394-5.62,5.203c-0.222,2.978,2.245,5.715,5.273,5.851C384.211,175.163,386.914,172.709,387.017,169.722z"/>
<path fill-rule="evenodd" clip-rule="evenodd" fill="#040202" d="M60.548,182.037c-10.421,7.769-19.22,6.766-27.588-3.144
	c-7.006-12.823,1.639-24.327,10.851-26.396c7.321-1.645,14.753,1.216,18.843,7.407c3.947,5.979,3.777,13.958-0.436,19.902
	C61.682,180.565,61.106,181.295,60.548,182.037z M47.81,163.979c-2.932,0.102-5.59,2.947-5.438,5.822
	c0.157,2.986,2.919,5.491,5.944,5.198c3.254-0.315,5.035-2.243,5.127-5.505C53.526,166.465,50.786,163.876,47.81,163.979z"/>
<path fill-rule="evenodd" clip-rule="evenodd" fill="#E1E4E8" d="M387.017,169.722c-0.103,2.987-2.806,5.441-5.844,5.305
	c-3.028-0.136-5.495-2.873-5.273-5.851c0.209-2.81,2.842-5.247,5.62-5.203C384.452,164.02,387.117,166.807,387.017,169.722z"/>
<path fill-rule="evenodd" clip-rule="evenodd" fill="#E1E4E8" d="M47.81,163.979c2.977-0.103,5.717,2.486,5.633,5.516
	c-0.092,3.262-1.873,5.189-5.127,5.505c-3.025,0.293-5.787-2.212-5.944-5.198C42.22,166.926,44.878,164.08,47.81,163.979z"/>
</svg>
