<svg width="58" height="58" viewBox="0 0 58 58" fill="none" xmlns="http://www.w3.org/2000/svg">
<path d="M58 29C58 45.0272 45.0093 58 29 58C12.9907 58 0 45.0093 0 29C0 12.9907 12.9907 0 29 0C45.0093 0 58 12.9907 58 29Z" fill="#FFEC00"/>
<path d="M29.1396 16.5714C21.7327 16.5714 15.7422 21.3511 15.7422 27.2371C15.7422 30.9842 18.162 34.2738 21.8359 36.1768L20.8178 41.4286L26.6165 37.7111C27.428 37.8291 28.2838 37.9029 29.1396 37.9029C36.5464 37.9029 42.5369 33.1232 42.5369 27.2371C42.5369 21.3511 36.5464 16.5714 29.1396 16.5714Z" fill="#3C1E1E"/>
</svg>
