<svg width="16" height="19" viewBox="0 0 16 19" fill="none" xmlns="http://www.w3.org/2000/svg">
<path d="M3.55556 8.11092H15.1111C15.3469 8.11092 15.573 8.20457 15.7397 8.37127C15.9064 8.53797 16 8.76406 16 8.99981V17.8887C16 18.1244 15.9064 18.3505 15.7397 18.5172C15.573 18.6839 15.3469 18.7776 15.1111 18.7776H0.888889C0.653141 18.7776 0.427048 18.6839 0.260349 18.5172C0.0936505 18.3505 0 18.1244 0 17.8887V8.99981C0 8.76406 0.0936505 8.53797 0.260349 8.37127C0.427048 8.20457 0.653141 8.11092 0.888889 8.11092H1.77778V7.22203C1.77727 5.81999 2.25029 4.45887 3.12017 3.35931C3.99004 2.25974 5.20578 1.48619 6.57031 1.16404C7.93484 0.841893 9.36818 0.99003 10.638 1.58444C11.9078 2.17885 12.9396 3.18469 13.5662 4.43892L11.976 5.23359C11.5284 4.3376 10.7914 3.61905 9.88429 3.19443C8.97721 2.76981 7.9533 2.66401 6.97856 2.89419C6.00382 3.12437 5.1354 3.67703 4.5141 4.46257C3.89279 5.24811 3.55502 6.22048 3.55556 7.22203V8.11092ZM1.77778 9.8887V16.9998H14.2222V9.8887H1.77778ZM6.22222 12.5554H9.77778V14.3331H6.22222V12.5554Z" fill="#8A90A1"/>
</svg>
