<svg width="20" height="20" viewBox="0 0 20 22" fill="none" xmlns="http://www.w3.org/2000/svg">
<path d="M16 17.85H15.24C14.44 17.85 13.68 18.16 13.12 18.72L11.41 20.41C10.63 21.18 9.36002 21.18 8.58002 20.41L6.87 18.72C6.31 18.16 5.54 17.85 4.75 17.85H4C2.34 17.85 1 16.52 1 14.88V3.96997C1 2.32997 2.34 1 4 1H16C17.66 1 19 2.32997 19 3.96997V14.88C19 16.51 17.66 17.85 16 17.85Z" stroke="#8A90A1" stroke-width="1.5" stroke-miterlimit="10" stroke-linecap="round" stroke-linejoin="round"/>
<path d="M9.99994 8.99005C11.2868 8.99005 12.33 7.94686 12.33 6.66003C12.33 5.37321 11.2868 4.33008 9.99994 4.33008C8.71312 4.33008 7.66992 5.37321 7.66992 6.66003C7.66992 7.94686 8.71312 8.99005 9.99994 8.99005Z" stroke="#8A90A1" stroke-width="1.5" stroke-linecap="round" stroke-linejoin="round"/>
<path d="M14 14.6501C14 12.8501 12.21 11.3901 10 11.3901C7.79 11.3901 6 12.8501 6 14.6501" stroke="#8A90A1" stroke-width="1.5" stroke-linecap="round" stroke-linejoin="round"/>
</svg>
