<svg width="10" height="20" viewBox="0 0 15 25" fill="none" xmlns="http://www.w3.org/2000/svg">
<path fill-rule="evenodd" clip-rule="evenodd" d="M1.42806 1.4279C2.21667 0.639292 3.49525 0.639291 4.28385 1.4279L13.5729 10.7169C14.3615 11.5055 14.3615 12.7841 13.5729 13.5727C12.7843 14.3613 11.5057 14.3613 10.7171 13.5727L1.42806 4.28369C0.639453 3.49509 0.639453 2.2165 1.42806 1.4279Z" fill="#148CE6"/>
<g style="mix-blend-mode:multiply">
<path fill-rule="evenodd" clip-rule="evenodd" d="M1.42806 22.8617C2.21667 23.6503 3.49525 23.6503 4.28385 22.8617L13.5729 13.5726C14.3615 12.784 14.3615 11.5054 13.5729 10.7168C12.7843 9.92823 11.5057 9.92823 10.7171 10.7168L1.42806 20.0059C0.639453 20.7945 0.639453 22.073 1.42806 22.8617Z" fill="#0056BA"/>
</g>
</svg>
