<svg width="50" height="50" viewBox="0 0 50 50" fill="none" xmlns="http://www.w3.org/2000/svg">
<circle cx="25" cy="25" r="25" fill="#F9F1E2"/>
<path d="M20.4531 21.25C20.4531 22.5156 19.4688 23.5 18.2031 23.5C16.9844 23.5 15.9531 22.5156 15.9531 21.25C15.9531 20.0312 16.9844 19 18.2031 19C19.4688 19 20.4531 20.0312 20.4531 21.25ZM14.5 27.5312C14.5 26.125 15.5781 25 16.9844 25H20.2188C20.6406 25 21.0625 25.1406 21.4375 25.3281C19.8906 25.8906 18.7188 27.1562 18.3438 28.75H15.7188C15.0156 28.75 14.5 28.2344 14.5 27.5312ZM28.5156 25.3281C28.8906 25.1406 29.3125 25 29.7344 25H32.9688C34.375 25 35.5 26.125 35.5 27.5312C35.5 28.2344 34.9375 28.75 34.2344 28.75H31.6094C31.2344 27.1562 30.0625 25.8906 28.5156 25.3281ZM27.4375 26.5469C28.6562 26.7812 29.6406 27.625 30.0156 28.75C30.1562 29.125 30.25 29.5 30.25 29.875C30.25 30.5312 29.7344 31 29.125 31H20.875C20.2188 31 19.75 30.5312 19.75 29.875C19.75 29.5 19.7969 29.125 19.9375 28.75C20.3125 27.625 21.2969 26.7812 22.5156 26.5469C22.7031 26.5469 22.8906 26.5 23.125 26.5H26.875C27.0625 26.5 27.25 26.5469 27.4375 26.5469ZM34 21.25C34 22.5156 32.9688 23.5 31.75 23.5C30.4844 23.5 29.5 22.5156 29.5 21.25C29.5 20.0312 30.4844 19 31.75 19C32.9688 19 34 20.0312 34 21.25ZM22 22C22 20.3594 23.3125 19 25 19C26.6406 19 28 20.3594 28 22C28 23.6875 26.6406 25 25 25C23.3125 25 22 23.6875 22 22ZM35.5 13C37.9844 13 40 15.0156 40 17.5V32.5C40 34.9844 37.9844 37 35.5 37H14.5C11.9688 37 10 34.9844 10 32.5V17.5C10 15.0156 11.9688 13 14.5 13H35.5ZM13 32.5C13 33.3438 13.6562 34 14.5 34H35.5C36.2969 34 37 33.3438 37 32.5V17.5C37 16.7031 36.2969 16 35.5 16H14.5C13.6562 16 13 16.7031 13 17.5V32.5Z" fill="#9B836A"/>
</svg>
