<svg width="50" height="51" viewBox="0 0 50 51" fill="none" xmlns="http://www.w3.org/2000/svg">
<circle cx="25" cy="25.5" r="25" fill="#FF737D" fill-opacity="0.2"/>
<rect x="11" y="12" width="28" height="28" rx="6" fill="url(#paint0_radial_56_4335)"/>
<rect x="11" y="12" width="28" height="28" rx="6" fill="url(#paint1_radial_56_4335)"/>
<rect x="11" y="12" width="28" height="28" rx="6" fill="url(#paint2_radial_56_4335)"/>
<path d="M32 20.5C32 21.3284 31.3284 22 30.5 22C29.6716 22 29 21.3284 29 20.5C29 19.6716 29.6716 19 30.5 19C31.3284 19 32 19.6716 32 20.5Z" fill="white"/>
<path fill-rule="evenodd" clip-rule="evenodd" d="M25 31C27.7614 31 30 28.7614 30 26C30 23.2386 27.7614 21 25 21C22.2386 21 20 23.2386 20 26C20 28.7614 22.2386 31 25 31ZM25 29C26.6569 29 28 27.6569 28 26C28 24.3431 26.6569 23 25 23C23.3431 23 22 24.3431 22 26C22 27.6569 23.3431 29 25 29Z" fill="white"/>
<path fill-rule="evenodd" clip-rule="evenodd" d="M15 25.6C15 22.2397 15 20.5595 15.654 19.2761C16.2292 18.1471 17.1471 17.2292 18.2761 16.654C19.5595 16 21.2397 16 24.6 16H25.4C28.7603 16 30.4405 16 31.7239 16.654C32.8529 17.2292 33.7708 18.1471 34.346 19.2761C35 20.5595 35 22.2397 35 25.6V26.4C35 29.7603 35 31.4405 34.346 32.7239C33.7708 33.8529 32.8529 34.7708 31.7239 35.346C30.4405 36 28.7603 36 25.4 36H24.6C21.2397 36 19.5595 36 18.2761 35.346C17.1471 34.7708 16.2292 33.8529 15.654 32.7239C15 31.4405 15 29.7603 15 26.4V25.6ZM24.6 18H25.4C27.1132 18 28.2777 18.0016 29.1779 18.0751C30.0548 18.1467 30.5032 18.2766 30.816 18.436C31.5686 18.8195 32.1805 19.4314 32.564 20.184C32.7234 20.4968 32.8533 20.9452 32.9249 21.8221C32.9984 22.7223 33 23.8868 33 25.6V26.4C33 28.1132 32.9984 29.2777 32.9249 30.1779C32.8533 31.0548 32.7234 31.5032 32.564 31.816C32.1805 32.5686 31.5686 33.1805 30.816 33.564C30.5032 33.7234 30.0548 33.8533 29.1779 33.9249C28.2777 33.9984 27.1132 34 25.4 34H24.6C22.8868 34 21.7223 33.9984 20.8221 33.9249C19.9452 33.8533 19.4968 33.7234 19.184 33.564C18.4314 33.1805 17.8195 32.5686 17.436 31.816C17.2766 31.5032 17.1467 31.0548 17.0751 30.1779C17.0016 29.2777 17 28.1132 17 26.4V25.6C17 23.8868 17.0016 22.7223 17.0751 21.8221C17.1467 20.9452 17.2766 20.4968 17.436 20.184C17.8195 19.4314 18.4314 18.8195 19.184 18.436C19.4968 18.2766 19.9452 18.1467 20.8221 18.0751C21.7223 18.0016 22.8868 18 24.6 18Z" fill="white"/>
<defs>
<radialGradient id="paint0_radial_56_4335" cx="0" cy="0" r="1" gradientUnits="userSpaceOnUse" gradientTransform="translate(21 33) rotate(-55.3758) scale(25.5196)">
<stop stop-color="#B13589"/>
<stop offset="0.79309" stop-color="#C62F94"/>
<stop offset="1" stop-color="#8A3AC8"/>
</radialGradient>
<radialGradient id="paint1_radial_56_4335" cx="0" cy="0" r="1" gradientUnits="userSpaceOnUse" gradientTransform="translate(20 41) rotate(-65.1363) scale(22.5942)">
<stop stop-color="#E0E8B7"/>
<stop offset="0.444662" stop-color="#FB8A2E"/>
<stop offset="0.71474" stop-color="#E2425C"/>
<stop offset="1" stop-color="#E2425C" stop-opacity="0"/>
</radialGradient>
<radialGradient id="paint2_radial_56_4335" cx="0" cy="0" r="1" gradientUnits="userSpaceOnUse" gradientTransform="translate(9.5 13) rotate(-8.1301) scale(38.8909 8.31836)">
<stop offset="0.156701" stop-color="#406ADC"/>
<stop offset="0.467799" stop-color="#6A45BE"/>
<stop offset="1" stop-color="#6A45BE" stop-opacity="0"/>
</radialGradient>
</defs>
</svg>
