<svg width="38" height="38" viewBox="0 0 38 38" fill="none" xmlns="http://www.w3.org/2000/svg">
<path fill-rule="evenodd" clip-rule="evenodd" d="M26.488 0H10.7428C4.79739 0 0 4.81695 0 10.7408V26.483C0 32.4273 4.8179 37.2238 10.7428 37.2238H26.488C32.4334 37.2238 37.2307 32.4068 37.2307 26.483V10.7408C37.2512 4.81695 32.4334 0 26.488 0ZM33.807 26.77C33.807 30.7055 30.6088 33.9032 26.6725 33.9032H10.5583C6.62197 33.9032 3.42378 30.7055 3.42378 26.77V10.6588C3.42378 6.72324 6.62197 3.52561 10.5583 3.52561H26.6725C30.6088 3.52561 33.807 6.72324 33.807 10.6588V26.77ZM18.6153 9.06007C13.2849 9.06007 8.95905 13.3851 8.95905 18.7145C8.95905 24.0439 13.2849 28.3689 18.6153 28.3689C23.9457 28.3689 28.292 24.0439 28.292 18.7145C28.292 13.3851 23.9662 9.06007 18.6153 9.06007ZM18.6153 24.9868C15.1506 24.9868 12.3623 22.1786 12.3623 18.735C12.3623 15.2709 15.1711 12.4627 18.6153 12.4627C22.0801 12.4627 24.8888 15.2709 24.8888 18.735C24.8888 22.1786 22.0801 24.9868 18.6153 24.9868ZM26.3444 8.69112C26.3444 7.44076 27.349 6.43638 28.5996 6.43638C29.8502 6.43638 30.8548 7.44076 30.8548 8.69112C30.8548 9.94147 29.8502 10.9459 28.5996 10.9459C27.349 10.9459 26.3444 9.94147 26.3444 8.69112Z" fill="url(#paint0_linear_33_65)"/>
<defs>
<linearGradient id="paint0_linear_33_65" x1="18.8246" y1="2.92772" x2="5.44275" y2="43.7081" gradientUnits="userSpaceOnUse">
<stop stop-color="#1D2CA5"/>
<stop stop-color="#1D2CA5"/>
<stop offset="0.383611" stop-color="#F20D62"/>
<stop offset="0.552955" stop-color="#FF6500"/>
<stop offset="0.848528" stop-color="#FFF0B8"/>
</linearGradient>
</defs>
</svg>
