<svg xmlns="http://www.w3.org/2000/svg" viewBox="0 0 552 552">
    <!-- 배경 사각형 -->
    <rect width="552" height="552" fill="#173152" rx="60" ry="60"/>
    <!-- 원래 아이콘 경로 -->
    <g transform="translate(90, 120) scale(0.6)">
        <path fill="#ffffff" d="M32 32c17.7 0 32 14.3 32 32l0 256 224 0 0-160c0-17.7 14.3-32 32-32l224 0c53 0 96 43 96 96l0 224c0 17.7-14.3 32-32 32s-32-14.3-32-32l0-32-224 0-32 0L64 416l0 32c0 17.7-14.3 32-32 32s-32-14.3-32-32L0 64C0 46.3 14.3 32 32 32zm144 96a80 80 0 1 1 0 160 80 80 0 1 1 0-160z"/>
    </g>
</svg>