<svg width="14" height="19" viewBox="0 0 14 19" fill="none" xmlns="http://www.w3.org/2000/svg">
<path d="M14 18.375H12.25V16.625C12.25 15.9288 11.9734 15.2611 11.4812 14.7688C10.9889 14.2766 10.3212 14 9.625 14H4.375C3.67881 14 3.01113 14.2766 2.51884 14.7688C2.02656 15.2611 1.75 15.9288 1.75 16.625V18.375H0V16.625C0 15.4647 0.460936 14.3519 1.28141 13.5314C2.10188 12.7109 3.21468 12.25 4.375 12.25H9.625C10.7853 12.25 11.8981 12.7109 12.7186 13.5314C13.5391 14.3519 14 15.4647 14 16.625V18.375ZM7 10.5C6.31056 10.5 5.62787 10.3642 4.99091 10.1004C4.35395 9.83653 3.7752 9.44982 3.28769 8.96231C2.80018 8.4748 2.41347 7.89605 2.14963 7.25909C1.8858 6.62213 1.75 5.93944 1.75 5.25C1.75 4.56056 1.8858 3.87787 2.14963 3.24091C2.41347 2.60395 2.80018 2.0252 3.28769 1.53769C3.7752 1.05018 4.35395 0.66347 4.99091 0.399632C5.62787 0.135795 6.31056 -1.02735e-08 7 0C8.39239 2.07482e-08 9.72775 0.553123 10.7123 1.53769C11.6969 2.52226 12.25 3.85761 12.25 5.25C12.25 6.64239 11.6969 7.97774 10.7123 8.96231C9.72775 9.94688 8.39239 10.5 7 10.5V10.5ZM7 8.75C7.92826 8.75 8.8185 8.38125 9.47487 7.72487C10.1313 7.0685 10.5 6.17826 10.5 5.25C10.5 4.32174 10.1313 3.4315 9.47487 2.77513C8.8185 2.11875 7.92826 1.75 7 1.75C6.07174 1.75 5.1815 2.11875 4.52513 2.77513C3.86875 3.4315 3.5 4.32174 3.5 5.25C3.5 6.17826 3.86875 7.0685 4.52513 7.72487C5.1815 8.38125 6.07174 8.75 7 8.75V8.75Z" fill="#8A90A1"/>
</svg>
