<svg width="50" height="50" viewBox="0 0 50 50" fill="none" xmlns="http://www.w3.org/2000/svg">
<circle cx="25" cy="25" r="25" fill="#FFDDDD"/>
<path d="M37.6094 18.8758C37.3148 17.7438 36.4465 16.8524 35.344 16.5498C33.346 16 25.3333 16 25.3333 16C25.3333 16 17.3207 16 15.3225 16.5498C14.22 16.8524 13.3517 17.7438 13.057 18.8758C12.5217 20.9275 12.5217 25.2083 12.5217 25.2083C12.5217 25.2083 12.5217 29.489 13.057 31.5408C13.3517 32.6729 14.22 33.5643 15.3225 33.867C17.3207 34.4167 25.3333 34.4167 25.3333 34.4167C25.3333 34.4167 33.346 34.4167 35.344 33.867C36.4465 33.5643 37.3148 32.6729 37.6094 31.5408C38.1449 29.489 38.1449 25.2083 38.1449 25.2083C38.1449 25.2083 38.1449 20.9275 37.6094 18.8758Z" fill="#FF0000"/>
<path d="M22.1304 29.498V21.4907L28.5362 25.4945L22.1304 29.498Z" fill="white"/>
</svg>
