<svg width="50" height="51" viewBox="0 0 50 51" fill="none" xmlns="http://www.w3.org/2000/svg">
<circle cx="25" cy="25.5" r="25" fill="#EAF6FF"/>
<path d="M20.7887 37.5C17.5537 37.5 14.5382 36.5591 12 34.9356C14.155 35.0751 17.9581 34.7411 20.3236 32.4848C16.7651 32.3215 15.1603 29.5923 14.9509 28.426C15.2533 28.5426 16.6953 28.6826 17.5093 28.356C13.4159 27.3296 12.7879 23.7373 12.9275 22.641C13.695 23.1775 14.9975 23.3641 15.5091 23.3174C11.6948 20.5882 13.067 16.4828 13.7415 15.5963C16.4788 19.3887 20.5812 21.5186 25.6564 21.637C25.5607 21.2174 25.5102 20.7804 25.5102 20.3316C25.5102 17.1109 28.1134 14.5 31.3247 14.5C33.0025 14.5 34.5144 15.2128 35.5757 16.3528C36.6969 16.0901 38.3843 15.4751 39.2092 14.9432C38.7934 16.4361 37.4989 17.6815 36.7159 18.1431C36.7224 18.1588 36.7095 18.1273 36.7159 18.1431C37.4037 18.039 39.2648 17.6814 40 17.1826C39.6364 18.0213 38.264 19.4157 37.1377 20.1964C37.3473 29.4381 30.2765 37.5 20.7887 37.5Z" fill="#47ACDF"/>
</svg>
