<svg width="33" height="33" viewBox="0 0 40 40" fill="none" xmlns="http://www.w3.org/2000/svg">
<circle cx="20" cy="20" r="20" fill="#253579"/>
<path d="M26.4658 32.08L19.0458 22.364L21.5378 20.824L28.8738 30.456L26.4658 32.08ZM19.9978 29.28C18.4671 29.28 17.0671 29.028 15.7978 28.524C14.5285 28.02 13.4178 27.3107 12.4658 26.396C11.5138 25.4813 10.7765 24.4173 10.2538 23.204C9.74981 21.972 9.49781 20.6373 9.49781 19.2C9.49781 17.7627 9.74981 16.4373 10.2538 15.224C10.7765 13.992 11.5138 12.9187 12.4658 12.004C13.4178 11.0893 14.5285 10.38 15.7978 9.876C17.0671 9.372 18.4671 9.12 19.9978 9.12C21.5098 9.12 22.9005 9.372 24.1698 9.876C25.4578 10.38 26.5685 11.0987 27.5018 12.032C28.4538 12.9467 29.1911 14.02 29.7138 15.252C30.2365 16.4653 30.4978 17.7813 30.4978 19.2C30.4978 20.6187 30.2365 21.944 29.7138 23.176C29.1911 24.3893 28.4538 25.4627 27.5018 26.396C26.5685 27.3107 25.4578 28.02 24.1698 28.524C22.9005 29.028 21.5098 29.28 19.9978 29.28ZM19.9978 26.34C21.0805 26.34 22.0698 26.1627 22.9658 25.808C23.8805 25.4533 24.6645 24.9587 25.3178 24.324C25.9898 23.6707 26.5031 22.9147 26.8578 22.056C27.2311 21.1787 27.4178 20.2267 27.4178 19.2C27.4178 18.1733 27.2311 17.2307 26.8578 16.372C26.5031 15.4947 25.9898 14.7387 25.3178 14.104C24.6645 13.4507 23.8805 12.9467 22.9658 12.592C22.0698 12.2373 21.0805 12.06 19.9978 12.06C18.9151 12.06 17.9165 12.2373 17.0018 12.592C16.1058 12.9467 15.3218 13.4507 14.6498 14.104C13.9778 14.7387 13.4645 15.4947 13.1098 16.372C12.7551 17.2307 12.5778 18.1733 12.5778 19.2C12.5778 20.2267 12.7551 21.1787 13.1098 22.056C13.4645 22.9147 13.9778 23.6707 14.6498 24.324C15.3218 24.9587 16.1058 25.4533 17.0018 25.808C17.9165 26.1627 18.9151 26.34 19.9978 26.34Z" fill="white"/>
</svg>
