<svg width="20" height="20" viewBox="0 0 22 20" fill="none" xmlns="http://www.w3.org/2000/svg">
<path d="M16 19H6C2 19 1 18 1 14V6C1 2 2 1 6 1H16C20 1 21 2 21 6V14C21 18 20 19 16 19Z" stroke="#8A90A1" stroke-width="1.5" stroke-linecap="round" stroke-linejoin="round"/>
<path d="M13 6H18" stroke="#8A90A1" stroke-width="1.5" stroke-linecap="round" stroke-linejoin="round"/>
<path d="M14 10H18" stroke="#8A90A1" stroke-width="1.5" stroke-linecap="round" stroke-linejoin="round"/>
<path d="M16 14H18" stroke="#8A90A1" stroke-width="1.5" stroke-linecap="round" stroke-linejoin="round"/>
<path d="M7.49994 9.28992C8.49958 9.28992 9.30994 8.47956 9.30994 7.47992C9.30994 6.48029 8.49958 5.66992 7.49994 5.66992C6.50031 5.66992 5.68994 6.48029 5.68994 7.47992C5.68994 8.47956 6.50031 9.28992 7.49994 9.28992Z" stroke="#8A90A1" stroke-width="1.5" stroke-linecap="round" stroke-linejoin="round"/>
<path d="M11 14.33C10.86 12.88 9.71 11.74 8.26 11.61C7.76 11.56 7.25 11.56 6.74 11.61C5.29 11.75 4.14 12.88 4 14.33" stroke="#8A90A1" stroke-width="1.5" stroke-linecap="round" stroke-linejoin="round"/>
</svg>
