<svg width="50" height="51" viewBox="0 0 50 51" fill="none" xmlns="http://www.w3.org/2000/svg">
<circle cx="25" cy="25.5" r="25" fill="#EDEDED"/>
<path fill-rule="evenodd" clip-rule="evenodd" d="M34.0133 14H16.0019C14.344 14 13 15.3431 13 17V35C13 36.6569 14.344 38 16.0019 38H34.0133C35.6653 37.9916 37 36.6509 37 35V17C37 15.3491 35.6653 14.0084 34.0133 14ZM18 17H22C23.1046 17 24 17.8954 24 19V33C24 34.1046 23.1046 35 22 35H18C16.8954 35 16 34.1046 16 33V19C16 17.8954 16.8954 17 18 17ZM32 17H28C26.8954 17 26 17.8954 26 19V26C26 27.1046 26.8954 28 28 28H32C33.1046 28 34 27.1046 34 26V19C34 17.8954 33.1046 17 32 17Z" fill="#9A9A9A"/>
</svg>
