<svg width="35" height="35" viewBox="0 0 35 35" fill="none" xmlns="http://www.w3.org/2000/svg">
<path d="M0 17.5C0 7.83502 7.83502 0 17.5 0C27.165 0 35 7.83502 35 17.5C35 27.165 27.165 35 17.5 35C7.83502 35 0 27.165 0 17.5Z" fill="#FF0000"/>
<path d="M26.4433 13.1783C26.2287 12.3536 25.5961 11.7042 24.7929 11.4838C23.3373 11.0833 17.5001 11.0833 17.5001 11.0833C17.5001 11.0833 11.6628 11.0833 10.2071 11.4838C9.40394 11.7042 8.7714 12.3536 8.55673 13.1783C8.16675 14.673 8.16675 17.7916 8.16675 17.7916C8.16675 17.7916 8.16675 20.9101 8.55673 22.4049C8.7714 23.2296 9.40394 23.879 10.2071 24.0995C11.6628 24.4999 17.5001 24.4999 17.5001 24.4999C17.5001 24.4999 23.3373 24.4999 24.7929 24.0995C25.5961 23.879 26.2287 23.2296 26.4433 22.4049C26.8334 20.9101 26.8334 17.7916 26.8334 17.7916C26.8334 17.7916 26.8334 14.673 26.4433 13.1783Z" fill="white"/>
<path d="M15.75 21.0001V15.1667L20.4167 18.0835L15.75 21.0001Z" fill="#FF0000"/>
</svg>
