<svg width="20" height="20" viewBox="0 0 20 20" fill="none" xmlns="http://www.w3.org/2000/svg">
<circle cx="10" cy="10" r="10" fill="url(#paint0_linear_20_5874)"/>
<path d="M12.5374 4H7.46256C5.54627 4 4 5.55286 4 7.46255V12.5374C4 14.4537 5.55287 16 7.46256 16H12.5374C14.4537 16 16 14.4471 16 12.5374V7.46255C16.0066 5.55286 14.4537 4 12.5374 4ZM14.8965 12.63C14.8965 13.8987 13.8656 14.9295 12.5969 14.9295H7.40307C6.13435 14.9295 5.10353 13.8987 5.10353 12.63V7.43612C5.10353 6.1674 6.13435 5.13656 7.40307 5.13656H12.5969C13.8656 5.13656 14.8965 6.1674 14.8965 7.43612V12.63Z" fill="white"/>
<path d="M9.99646 6.66675C8.15836 6.66675 6.66666 8.16002 6.66666 10.0001C6.66666 11.8401 8.15836 13.3334 9.99646 13.3334C11.8346 13.3334 13.3333 11.8401 13.3333 10.0001C13.3333 8.16002 11.8416 6.66675 9.99646 6.66675ZM9.99646 12.1657C8.8017 12.1657 7.84022 11.1961 7.84022 10.0072C7.84022 8.81112 8.80877 7.84156 9.99646 7.84156C11.1912 7.84156 12.1598 8.81112 12.1598 10.0072C12.1598 11.1961 11.1912 12.1657 9.99646 12.1657Z" fill="white"/>
<path d="M14 5.33325C13.6303 5.33325 13.3333 5.63022 13.3333 5.99992C13.3333 6.36962 13.6303 6.66659 14 6.66659C14.3697 6.66659 14.6667 6.36962 14.6667 5.99992C14.6667 5.63022 14.3697 5.33325 14 5.33325Z" fill="white"/>
<defs>
<linearGradient id="paint0_linear_20_5874" x1="10.1124" y1="1.57303" x2="2.92135" y2="23.4831" gradientUnits="userSpaceOnUse">
<stop stop-color="#1D2CA5"/>
<stop stop-color="#1D2CA5"/>
<stop offset="0.383611" stop-color="#F20D62"/>
<stop offset="0.552955" stop-color="#FF6500"/>
<stop offset="0.848528" stop-color="#FFF0B8"/>
</linearGradient>
</defs>
</svg>
