<svg width="33" height="33" viewBox="0 0 40 40" fill="none" xmlns="http://www.w3.org/2000/svg">
<circle cx="20" cy="20" r="20" fill="#36394E"/>
<path d="M10.5126 29L18.8846 9.4H22.1606L30.4766 29H27.2006L21.8806 16.512C21.7873 16.288 21.6566 15.9613 21.4886 15.532C21.3393 15.084 21.1713 14.608 20.9846 14.104C20.798 13.6 20.6206 13.124 20.4526 12.676C20.2846 12.2093 20.154 11.8453 20.0606 11.584L20.8166 11.556C20.686 11.9293 20.5366 12.34 20.3686 12.788C20.2193 13.236 20.0513 13.6933 19.8646 14.16C19.6966 14.6267 19.5286 15.0747 19.3606 15.504C19.1926 15.9147 19.0433 16.288 18.9126 16.624L13.6206 29H10.5126ZM14.1806 24.24L15.3566 21.328H25.3246L26.3046 24.24H14.1806Z" fill="white"/>
</svg>
