<svg width="145" height="30" viewBox="0 0 145 30" fill="none" xmlns="http://www.w3.org/2000/svg">
<g clip-path="url(#clip0_41_1094)">
<path d="M50.8686 0H0V30H50.8686V0Z" fill="#EF8779"/>
<path fill-rule="evenodd" clip-rule="evenodd" d="M29.0735 2.79102H35.3895C41.9755 2.79102 47.3669 8.28397 47.3669 15.0001C47.3669 21.7161 41.9755 27.2091 35.3895 27.2091H23.8784V20.6292H35.3895C38.4248 20.6292 40.9092 18.0968 40.9092 15.0001C40.9092 11.9033 38.4248 9.37089 35.3895 9.37089H29.0735V2.79102Z" fill="white"/>
<path d="M3.50146 2.79102V9.36811H11.5382V27.1618H17.9933V2.79102H3.50146Z" fill="white"/>
<path d="M28.9724 9.36816H22.5146V27.2092H28.9724V9.36816Z" fill="white"/>
<path d="M22.4164 2.79102H14.4424V9.36811H22.4164V2.79102Z" fill="white"/>
<path d="M60.705 27.0311C60.5551 27.0311 60.416 27.02 60.2851 26.9977C60.1569 26.9755 60.0396 26.9394 59.9333 26.8838C59.8269 26.8309 59.7315 26.7587 59.6497 26.6669C59.5678 26.578 59.4969 26.464 59.4397 26.325C59.3824 26.1888 59.3388 26.0248 59.3088 25.8358C59.2788 25.6467 59.2651 25.4299 59.2651 25.1797C59.2651 24.8044 59.2979 24.4959 59.3633 24.254C59.4288 24.0122 59.5242 23.8232 59.6469 23.6842C59.7724 23.5452 59.9224 23.4479 60.0996 23.3951C60.2769 23.3423 60.4787 23.3145 60.7023 23.3145C60.8523 23.3145 60.9887 23.3256 61.1196 23.3506C61.2477 23.3728 61.3677 23.4117 61.4714 23.4673C61.5777 23.5229 61.6704 23.5952 61.7523 23.687C61.8341 23.7787 61.9022 23.8954 61.9595 24.0316C62.0168 24.1706 62.0577 24.3347 62.0877 24.5237C62.1177 24.7127 62.1313 24.9323 62.1313 25.1797C62.1313 25.4271 62.1177 25.6467 62.0877 25.833C62.0577 26.022 62.0141 26.1832 61.9595 26.3222C61.9022 26.4584 61.8341 26.5724 61.7523 26.6642C61.6704 26.7559 61.5777 26.8282 61.4714 26.881C61.365 26.9338 61.2477 26.9727 61.1196 26.995C60.9914 27.0172 60.8523 27.0283 60.7023 27.0283L60.705 27.0311ZM60.705 26.4779C60.8659 26.4779 60.9996 26.4584 61.1032 26.4195C61.2096 26.3806 61.2914 26.3139 61.3541 26.2166C61.4168 26.1193 61.4605 25.9859 61.485 25.8191C61.5095 25.6523 61.5232 25.4382 61.5232 25.1825C61.5232 24.9268 61.5095 24.7099 61.485 24.5404C61.4605 24.3736 61.4168 24.2374 61.3541 24.1401C61.2914 24.04 61.2096 23.9705 61.1032 23.9316C60.9996 23.8927 60.8659 23.8732 60.705 23.8732C60.5441 23.8732 60.4105 23.8927 60.3069 23.9316C60.2005 23.9705 60.116 24.04 60.056 24.1401C59.9933 24.2401 59.9496 24.3736 59.9251 24.5404C59.9006 24.7099 59.8869 24.9212 59.8869 25.1825C59.8869 25.4438 59.9006 25.6523 59.9251 25.8191C59.9496 25.9859 59.9933 26.1193 60.056 26.2166C60.1187 26.3139 60.2005 26.3806 60.3069 26.4195C60.4132 26.4584 60.5469 26.4779 60.705 26.4779Z" fill="white"/>
<path d="M62.8242 24.3213H63.4078V26.1171C63.4078 26.1866 63.4105 26.2449 63.4215 26.295C63.4296 26.3422 63.4487 26.3839 63.4787 26.4145C63.5087 26.4451 63.5496 26.4673 63.6042 26.4812C63.6587 26.4951 63.7351 26.5035 63.8278 26.5035C63.926 26.5035 64.0132 26.4979 64.095 26.4868C64.1741 26.4757 64.2423 26.4645 64.2996 26.4506C64.365 26.434 64.425 26.4145 64.4796 26.395V24.3213H65.0632V26.9566H64.6377L64.5696 26.762C64.4768 26.8148 64.3787 26.8593 64.2723 26.8982C64.1796 26.9316 64.076 26.9621 63.9532 26.9899C63.8332 27.0177 63.7051 27.0316 63.5714 27.0316C63.3178 27.0316 63.1297 26.9621 63.0069 26.8259C62.8842 26.6897 62.8242 26.4729 62.8242 26.1838V24.3213Z" fill="white"/>
<path d="M65.8728 24.3212H66.3774L66.4128 24.6075C66.541 24.5214 66.6828 24.4519 66.841 24.3991C66.9991 24.3435 67.1764 24.3129 67.3755 24.3018L67.37 24.9161C67.1655 24.9189 66.9882 24.93 66.8382 24.9467C66.6882 24.9634 66.5601 24.9939 66.4537 25.0384V26.9565H65.8701V24.3212H65.8728Z" fill="white"/>
<path d="M69.4616 23.8734C69.3961 23.8734 69.3389 23.8679 69.2952 23.8595C69.2516 23.8484 69.2161 23.8317 69.1889 23.8067C69.1616 23.7817 69.1425 23.7483 69.1316 23.7039C69.1207 23.6594 69.1152 23.6038 69.1152 23.5371C69.1152 23.4704 69.1207 23.412 69.1316 23.3675C69.1425 23.323 69.1616 23.2869 69.1889 23.2619C69.2161 23.2341 69.2516 23.2174 69.2952 23.2063C69.3389 23.1952 69.3934 23.1924 69.4616 23.1924C69.5298 23.1924 69.5843 23.1979 69.6279 23.2063C69.6716 23.2174 69.7043 23.2341 69.7316 23.2619C69.7561 23.2897 69.7752 23.323 69.7861 23.3675C69.797 23.412 69.7997 23.4676 69.7997 23.5371C69.7997 23.6066 69.7943 23.6622 69.7861 23.7039C69.7752 23.7483 69.7588 23.7817 69.7316 23.8067C69.7043 23.8317 69.6716 23.8484 69.6279 23.8595C69.5843 23.8707 69.5298 23.8734 69.4616 23.8734ZM69.1698 24.321H69.7534V26.9563H69.1698V24.321Z" fill="white"/>
<path d="M70.6069 24.3211H71.0324L71.1033 24.5157C71.1933 24.4657 71.2914 24.4212 71.3951 24.3823C71.4823 24.3489 71.5832 24.3184 71.695 24.2906C71.8069 24.2628 71.9214 24.2489 72.0414 24.2489C72.1859 24.2489 72.3032 24.2711 72.3986 24.3184C72.4914 24.3656 72.565 24.4351 72.6168 24.5269C72.6577 24.5046 72.7095 24.4768 72.7777 24.4435C72.8432 24.4129 72.9168 24.3823 72.9986 24.3517C73.0804 24.3211 73.1704 24.2989 73.2686 24.2767C73.3668 24.2572 73.4704 24.2461 73.5767 24.2461C73.814 24.2461 73.9885 24.3156 74.1004 24.4518C74.2094 24.588 74.2667 24.8021 74.2667 25.0884V26.9564H73.6831V25.2024C73.6831 25.1217 73.6777 25.055 73.6695 25.0022C73.6613 24.9494 73.6422 24.9049 73.6149 24.8688C73.5877 24.8354 73.5495 24.8104 73.5004 24.7937C73.4513 24.7798 73.3886 24.7715 73.3122 24.7715C73.2495 24.7715 73.1895 24.7743 73.1322 24.7826C73.075 24.7909 73.0204 24.7993 72.9686 24.8104C72.9168 24.8215 72.8704 24.8354 72.8295 24.8493C72.7886 24.8632 72.7532 24.8743 72.7232 24.8827C72.7286 24.9272 72.7313 24.9716 72.7341 25.0189C72.7341 25.0661 72.7341 25.1078 72.7341 25.1356V26.9509H72.1505V25.1968C72.1505 25.1162 72.145 25.0495 72.1341 24.9966C72.1232 24.9438 72.1041 24.8994 72.0768 24.8632C72.0496 24.8299 72.0114 24.8048 71.965 24.7882C71.9187 24.7743 71.8587 24.7659 71.7878 24.7659C71.706 24.7659 71.6296 24.7715 71.5587 24.7854C71.4878 24.7993 71.4251 24.8104 71.3678 24.8243C71.3023 24.841 71.2423 24.8604 71.1905 24.8799V26.9509H70.6069V24.3156V24.3211Z" fill="white"/>
<path d="M74.9785 26.2084C74.9785 26.0583 75.0003 25.9332 75.044 25.8276C75.0876 25.7247 75.1449 25.6413 75.2212 25.5774C75.2949 25.5135 75.3821 25.469 75.483 25.4412C75.5839 25.4134 75.693 25.3995 75.8076 25.3995C75.9221 25.3995 76.0312 25.4051 76.1266 25.419C76.2221 25.4329 76.3039 25.4468 76.3748 25.4634C76.4539 25.4829 76.5275 25.5024 76.593 25.5246V25.28C76.593 25.2188 76.593 25.166 76.5875 25.1243C76.5848 25.0826 76.5766 25.0437 76.5657 25.0131C76.5548 24.9825 76.5439 24.9547 76.5248 24.9325C76.5057 24.9102 76.4866 24.8908 76.4621 24.8713C76.4102 24.8324 76.3366 24.8074 76.2466 24.7907C76.1539 24.774 76.0366 24.7657 75.8894 24.7657C75.7966 24.7657 75.7067 24.7685 75.6194 24.774C75.5321 24.7796 75.453 24.7879 75.3849 24.7963C75.3058 24.8046 75.2294 24.813 75.1585 24.8241V24.4071C75.224 24.3793 75.3058 24.3571 75.4012 24.3348C75.483 24.3154 75.5839 24.2987 75.7066 24.2848C75.8294 24.2681 75.9739 24.2598 76.143 24.2598C76.2548 24.2598 76.3557 24.2653 76.443 24.2737C76.5302 24.282 76.6066 24.2987 76.6748 24.3209C76.743 24.3432 76.8002 24.371 76.852 24.4071C76.9038 24.4432 76.9502 24.4849 76.9911 24.5377C77.0266 24.5822 77.0538 24.6267 77.0757 24.674C77.0975 24.7212 77.1166 24.7796 77.1329 24.8435C77.1466 24.9075 77.1575 24.9825 77.1629 25.0659C77.1684 25.1493 77.1711 25.2466 77.1711 25.3606V26.9562H76.6775L76.6339 26.7616C76.563 26.8144 76.4839 26.8589 76.3966 26.8978C76.323 26.9312 76.233 26.9618 76.1348 26.9896C76.0339 27.0174 75.9221 27.0313 75.8021 27.0313C75.6548 27.0313 75.5294 27.0174 75.4258 26.9868C75.3221 26.9562 75.2376 26.909 75.1694 26.845C75.104 26.7811 75.0549 26.6949 75.0249 26.5893C74.9949 26.4836 74.9785 26.3558 74.9785 26.2084ZM75.573 26.2084C75.573 26.2807 75.5812 26.3391 75.6003 26.3836C75.6194 26.428 75.6439 26.4586 75.6794 26.4809C75.7121 26.5031 75.7557 26.517 75.8048 26.5253C75.8539 26.5309 75.9112 26.5365 75.9739 26.5365C76.0584 26.5365 76.1348 26.5281 76.2112 26.5114C76.2848 26.4948 76.3502 26.4781 76.4075 26.4614C76.473 26.4392 76.533 26.4141 76.5902 26.3863V25.9304C76.5384 25.9193 76.4812 25.911 76.4212 25.9027C76.3693 25.8943 76.3093 25.8888 76.2439 25.8804C76.1784 25.8749 76.1075 25.8721 76.0339 25.8721C75.9521 25.8721 75.8839 25.8749 75.8239 25.8832C75.7666 25.8915 75.7176 25.9054 75.6821 25.9304C75.6439 25.9555 75.6167 25.9888 75.5976 26.0333C75.5785 26.0778 75.5703 26.1362 75.5703 26.2084H75.573Z" fill="white"/>
<path d="M78.1993 27.6149C78.2566 27.6288 78.3248 27.6399 78.4039 27.6482C78.4693 27.6566 78.5484 27.6649 78.6411 27.6705C78.7338 27.676 78.8347 27.6788 78.9493 27.6788C79.0856 27.6788 79.1974 27.6733 79.2847 27.6621C79.3693 27.651 79.4374 27.6316 79.4865 27.6038C79.5356 27.576 79.5683 27.5398 79.5847 27.4898C79.6011 27.4425 79.612 27.3842 79.612 27.3119V26.8532C79.5383 26.8838 79.462 26.9144 79.3802 26.9394C79.3065 26.9616 79.2274 26.9811 79.1374 26.9978C79.0475 27.0144 78.952 27.0228 78.8511 27.0228C78.6793 27.0228 78.532 26.9978 78.4093 26.9505C78.2866 26.9032 78.1857 26.8254 78.1039 26.7142C78.0248 26.603 77.9675 26.4612 77.9293 26.2806C77.8912 26.1026 77.8721 25.883 77.8721 25.6245C77.8721 25.4105 77.8912 25.2214 77.9321 25.0519C77.973 24.8823 78.033 24.7405 78.1121 24.621C78.1911 24.5042 78.2893 24.4153 78.4066 24.3513C78.5239 24.2902 78.6575 24.2568 78.8102 24.2568C78.9384 24.2568 79.0556 24.2707 79.1647 24.2958C79.2711 24.3236 79.3638 24.3513 79.4429 24.3819C79.5329 24.4208 79.6147 24.4625 79.6883 24.5098L79.7538 24.3152H80.1956V27.3452C80.1956 27.5037 80.1737 27.6371 80.1274 27.7455C80.0838 27.8539 80.0156 27.9429 79.9256 28.0096C79.8356 28.0763 79.721 28.1264 79.5847 28.1542C79.4483 28.182 79.2902 28.1986 79.1129 28.1986C78.9984 28.1986 78.8866 28.1903 78.7802 28.1736C78.6738 28.1569 78.5757 28.1403 78.4884 28.1208C78.3875 28.0986 78.292 28.0736 78.2048 28.043V27.6093L78.1993 27.6149ZM79.0529 26.4918C79.1211 26.4918 79.1893 26.489 79.2547 26.4835C79.3202 26.4779 79.3802 26.4696 79.432 26.4612C79.4947 26.4529 79.552 26.4418 79.6092 26.4279V24.9184C79.5465 24.8962 79.4756 24.874 79.4047 24.8573C79.342 24.8406 79.2711 24.8267 79.192 24.8128C79.1129 24.7989 79.0284 24.7933 78.9438 24.7933C78.8593 24.7933 78.7857 24.8072 78.7257 24.835C78.6657 24.8628 78.6193 24.9101 78.5838 24.9768C78.5484 25.0435 78.5211 25.1325 78.5075 25.2409C78.4911 25.3521 78.4857 25.4883 78.4857 25.6495C78.4857 25.7996 78.4911 25.9275 78.4993 26.0332C78.5102 26.1388 78.532 26.2277 78.5702 26.2945C78.6084 26.3612 78.6657 26.4112 78.742 26.4418C78.8184 26.4724 78.922 26.489 79.0556 26.489L79.0529 26.4918Z" fill="white"/>
<path d="M81.341 23.8734C81.2728 23.8734 81.2183 23.8679 81.1746 23.8595C81.131 23.8484 81.0955 23.8317 81.0683 23.8067C81.041 23.7817 81.0219 23.7483 81.011 23.7039C81.0001 23.6594 80.9946 23.6038 80.9946 23.5371C80.9946 23.4704 81.0001 23.412 81.011 23.3675C81.0219 23.323 81.041 23.2869 81.0683 23.2619C81.0955 23.2341 81.131 23.2174 81.1746 23.2063C81.2183 23.1952 81.2728 23.1924 81.341 23.1924C81.4091 23.1924 81.4637 23.1979 81.5073 23.2063C81.551 23.2174 81.5864 23.2341 81.611 23.2619C81.6355 23.2897 81.6546 23.323 81.6655 23.3675C81.6764 23.412 81.6791 23.4676 81.6791 23.5371C81.6791 23.6066 81.6737 23.6622 81.6655 23.7039C81.6546 23.7483 81.6382 23.7817 81.611 23.8067C81.5864 23.8317 81.551 23.8484 81.5073 23.8595C81.4637 23.8707 81.4091 23.8734 81.341 23.8734ZM81.0492 24.321H81.6328V26.9563H81.0492V24.321Z" fill="white"/>
<path d="M82.4837 24.3213H82.9118L82.9827 24.5159C83.0727 24.4659 83.1709 24.4214 83.2773 24.3825C83.3673 24.3491 83.4736 24.3185 83.5936 24.2907C83.7136 24.2629 83.8418 24.249 83.9754 24.249C84.2318 24.249 84.4199 24.3157 84.5399 24.452C84.6626 24.5882 84.7226 24.7994 84.7226 25.0885V26.9566H84.139V25.1608C84.139 25.0913 84.1336 25.0329 84.1254 24.9857C84.1172 24.9356 84.0981 24.8967 84.0681 24.8661C84.0381 24.8356 83.9972 24.8133 83.9399 24.7966C83.8854 24.7828 83.8091 24.7744 83.7163 24.7744C83.6182 24.7744 83.5309 24.78 83.4491 24.7939C83.37 24.8078 83.3018 24.8189 83.2445 24.8328C83.1791 24.8495 83.1164 24.8689 83.0646 24.8884V26.9594H82.481V24.3241L82.4837 24.3213Z" fill="white"/>
<path d="M85.4346 26.2084C85.4346 26.0583 85.4564 25.9332 85.5 25.8276C85.5437 25.7247 85.6009 25.6413 85.6773 25.5774C85.7509 25.5135 85.8382 25.469 85.9391 25.4412C86.04 25.4134 86.1463 25.3995 86.2636 25.3995C86.3809 25.3995 86.4872 25.4051 86.5827 25.419C86.6781 25.4329 86.7599 25.4468 86.8308 25.4634C86.9099 25.4829 86.9836 25.5024 87.049 25.5246V25.28C87.049 25.2188 87.049 25.166 87.0436 25.1243C87.0381 25.0826 87.0327 25.0437 87.0217 25.0131C87.0108 24.9825 86.9972 24.9547 86.9808 24.9325C86.9645 24.9102 86.9427 24.8908 86.9181 24.8713C86.8663 24.8324 86.7954 24.8074 86.7027 24.7907C86.6099 24.774 86.4927 24.7657 86.3454 24.7657C86.2527 24.7657 86.1627 24.7685 86.0754 24.774C85.9882 24.7796 85.9091 24.7879 85.8409 24.7963C85.7618 24.8046 85.6855 24.813 85.6118 24.8241V24.4071C85.6773 24.3793 85.7591 24.3571 85.8545 24.3348C85.9364 24.3154 86.0373 24.2987 86.16 24.2848C86.2827 24.2681 86.4272 24.2598 86.5963 24.2598C86.7081 24.2598 86.809 24.2653 86.8963 24.2737C86.9836 24.282 87.0599 24.2987 87.1281 24.3209C87.1963 24.3432 87.2536 24.371 87.3054 24.4071C87.3572 24.4432 87.4035 24.4849 87.4444 24.5377C87.4772 24.5822 87.5072 24.6267 87.529 24.674C87.5535 24.7212 87.5699 24.7796 87.5863 24.8435C87.5999 24.9075 87.6108 24.9825 87.6163 25.0659C87.6217 25.1493 87.6244 25.2466 87.6244 25.3606V26.9562H87.1336L87.0899 26.7616C87.019 26.8144 86.9399 26.8589 86.8527 26.8978C86.7763 26.9312 86.689 26.9618 86.5909 26.9896C86.49 27.0174 86.3809 27.0313 86.2582 27.0313C86.1109 27.0313 85.9854 27.0174 85.8818 26.9868C85.7782 26.9562 85.6909 26.909 85.6255 26.845C85.56 26.7811 85.5109 26.6949 85.4809 26.5893C85.4509 26.4836 85.4346 26.3558 85.4346 26.2084ZM86.0291 26.2084C86.0291 26.2807 86.0373 26.3391 86.0563 26.3836C86.0727 26.428 86.1 26.4586 86.1354 26.4809C86.1682 26.5031 86.2118 26.517 86.2609 26.5253C86.31 26.5309 86.3672 26.5365 86.43 26.5365C86.5145 26.5365 86.5909 26.5281 86.6672 26.5114C86.7408 26.4948 86.8063 26.4781 86.8636 26.4614C86.929 26.4392 86.989 26.4141 87.0463 26.3863V25.9304C86.9945 25.9193 86.9372 25.911 86.8772 25.9027C86.8254 25.8943 86.7654 25.8888 86.6999 25.8804C86.6345 25.8749 86.5636 25.8721 86.49 25.8721C86.4081 25.8721 86.3372 25.8749 86.28 25.8832C86.2227 25.8915 86.1736 25.9054 86.1354 25.9304C86.0973 25.9555 86.07 25.9888 86.0509 26.0333C86.0318 26.0778 86.0236 26.1362 86.0236 26.2084H86.0291Z" fill="white"/>
<path d="M88.6333 24.8133H88.2515V24.3212H88.6333V23.7653L89.2169 23.6318V24.3212H89.8686V24.8133H89.2169V26.2282C89.2169 26.2894 89.2223 26.3394 89.2305 26.3811C89.2387 26.42 89.255 26.4534 89.2796 26.4784C89.3014 26.5034 89.3369 26.5201 89.3805 26.5284C89.4241 26.5368 89.4787 26.5423 89.5496 26.5423C89.6123 26.5423 89.6723 26.5423 89.7214 26.5395C89.7732 26.5395 89.8168 26.534 89.8523 26.5312C89.8932 26.5284 89.9314 26.5229 89.9641 26.5173V26.912C89.9068 26.9343 89.8441 26.9565 89.7814 26.9732C89.7241 26.9871 89.6559 27.001 89.5796 27.0149C89.5032 27.0288 89.4187 27.0344 89.3287 27.0344C89.2005 27.0344 89.0941 27.0232 89.0041 26.9982C88.9169 26.9732 88.846 26.9343 88.7914 26.8842C88.7369 26.8342 88.696 26.7703 88.6714 26.6924C88.6469 26.6146 88.6333 26.5256 88.6333 26.4228V24.816V24.8133Z" fill="white"/>
<path d="M90.9049 23.8734C90.8368 23.8734 90.7822 23.8679 90.7386 23.8595C90.6949 23.8484 90.6595 23.8317 90.6322 23.8067C90.605 23.7817 90.5859 23.7483 90.575 23.7039C90.564 23.6594 90.5586 23.6038 90.5586 23.5371C90.5586 23.4704 90.564 23.412 90.575 23.3675C90.5859 23.323 90.605 23.2869 90.6322 23.2619C90.6595 23.2341 90.6949 23.2174 90.7386 23.2063C90.7822 23.1952 90.8368 23.1924 90.9049 23.1924C90.9731 23.1924 91.0277 23.1979 91.0713 23.2063C91.1149 23.2174 91.1504 23.2341 91.1749 23.2619C91.2022 23.2897 91.2186 23.323 91.2295 23.3675C91.2404 23.412 91.2431 23.4676 91.2431 23.5371C91.2431 23.6066 91.2376 23.6622 91.2295 23.7039C91.2186 23.7483 91.2022 23.7817 91.1749 23.8067C91.1504 23.8317 91.1149 23.8484 91.0713 23.8595C91.0277 23.8707 90.9731 23.8734 90.9049 23.8734ZM90.6131 24.321H91.1967V26.9563H90.6131V24.321Z" fill="white"/>
<path d="M91.873 25.636C91.873 25.4136 91.8976 25.2163 91.9439 25.0439C91.9903 24.8716 92.0639 24.727 92.1648 24.6075C92.2657 24.4879 92.3939 24.399 92.5466 24.3378C92.6994 24.2767 92.8848 24.2461 93.0975 24.2461C93.3102 24.2461 93.4957 24.2767 93.6511 24.3378C93.8066 24.399 93.932 24.4879 94.0329 24.6075C94.1311 24.727 94.2047 24.8716 94.2538 25.0439C94.3002 25.2163 94.3247 25.4136 94.3247 25.636C94.3247 25.8584 94.3002 26.0585 94.2538 26.2309C94.2074 26.406 94.1338 26.5506 94.0329 26.6701C93.932 26.7896 93.8066 26.8786 93.6511 26.9398C93.4957 27.0009 93.313 27.0315 93.0975 27.0315C92.8821 27.0315 92.6994 27.0009 92.5466 26.9398C92.3939 26.8786 92.2657 26.7896 92.1648 26.6701C92.0639 26.5506 91.9903 26.406 91.9439 26.2309C91.8976 26.0558 91.873 25.8584 91.873 25.636ZM93.0975 26.5311C93.2257 26.5311 93.332 26.5117 93.4111 26.4727C93.4902 26.4338 93.5529 26.3754 93.5966 26.3004C93.6402 26.2253 93.6702 26.1308 93.6866 26.0196C93.7029 25.9084 93.7084 25.7806 93.7084 25.636C93.7084 25.4915 93.7002 25.3664 93.6866 25.2552C93.6702 25.144 93.6402 25.0495 93.5966 24.9744C93.5529 24.8994 93.4902 24.841 93.4111 24.8021C93.332 24.7631 93.2257 24.7437 93.0975 24.7437C92.9693 24.7437 92.8657 24.7631 92.7866 24.8021C92.7075 24.841 92.6448 24.8994 92.5984 24.9744C92.5521 25.0495 92.5221 25.144 92.5085 25.2552C92.4921 25.3664 92.4866 25.4942 92.4866 25.636C92.4866 25.7778 92.4948 25.9084 92.5085 26.0196C92.5248 26.1308 92.5548 26.2253 92.5984 26.3004C92.6421 26.3754 92.7048 26.4338 92.7866 26.4727C92.8657 26.5117 92.9693 26.5311 93.0975 26.5311Z" fill="white"/>
<path d="M94.9602 24.3213H95.3884L95.4593 24.5159C95.5493 24.4659 95.6475 24.4214 95.7538 24.3825C95.8438 24.3491 95.9502 24.3185 96.0702 24.2907C96.1902 24.2629 96.3183 24.249 96.452 24.249C96.7083 24.249 96.8965 24.3157 97.0165 24.452C97.1392 24.5882 97.1992 24.7994 97.1992 25.0885V26.9566H96.6156V25.1608C96.6156 25.0913 96.6101 25.0329 96.602 24.9857C96.5938 24.9356 96.5747 24.8967 96.5447 24.8661C96.5147 24.8356 96.4738 24.8133 96.4165 24.7966C96.362 24.7828 96.2856 24.7744 96.1929 24.7744C96.0947 24.7744 96.0075 24.78 95.9256 24.7939C95.8466 24.8078 95.7784 24.8189 95.7211 24.8328C95.6529 24.8495 95.5929 24.8689 95.5411 24.8884V26.9594H94.9575V24.3241L94.9602 24.3213Z" fill="white"/>
<path d="M99.0835 25.6358C99.0835 25.3856 99.1135 25.1743 99.1735 24.9992C99.2335 24.8241 99.3153 24.6823 99.4162 24.5739C99.5171 24.4655 99.6371 24.3849 99.7762 24.3348C99.9125 24.2848 100.06 24.2598 100.215 24.2598C100.335 24.2598 100.442 24.2681 100.537 24.2848C100.632 24.3015 100.712 24.3181 100.78 24.3348C100.859 24.3571 100.927 24.3793 100.984 24.4071V24.8157C100.93 24.8102 100.87 24.8046 100.804 24.7991C100.75 24.7963 100.687 24.7907 100.616 24.7879C100.545 24.7824 100.472 24.7824 100.395 24.7824C100.273 24.7824 100.166 24.7935 100.079 24.8157C99.9916 24.838 99.918 24.8797 99.8635 24.938C99.8089 24.9992 99.768 25.0854 99.7407 25.1938C99.7135 25.305 99.7026 25.4495 99.7026 25.6302C99.7026 25.8109 99.7189 25.961 99.7462 26.075C99.7762 26.189 99.8225 26.2751 99.8853 26.3391C99.948 26.4002 100.024 26.4419 100.117 26.4642C100.21 26.4836 100.319 26.4948 100.447 26.4948C100.526 26.4948 100.602 26.4948 100.668 26.4892C100.736 26.4836 100.796 26.4809 100.845 26.4725C100.902 26.467 100.957 26.4586 101.003 26.4475V26.8617C100.952 26.8923 100.886 26.9173 100.812 26.9423C100.75 26.9618 100.668 26.9812 100.572 26.9979C100.477 27.0146 100.363 27.0229 100.234 27.0229C100.076 27.0229 99.9262 27.0007 99.7871 26.9562C99.648 26.9117 99.5253 26.8367 99.4217 26.731C99.318 26.6254 99.2362 26.4836 99.1762 26.3057C99.1162 26.1278 99.0862 25.9054 99.0862 25.6386L99.0835 25.6358Z" fill="white"/>
<path d="M101.625 24.3212H102.13L102.165 24.6075C102.293 24.5214 102.435 24.4519 102.593 24.3991C102.752 24.3435 102.929 24.3129 103.128 24.3018L103.122 24.9161C102.918 24.9189 102.741 24.93 102.591 24.9467C102.441 24.9634 102.313 24.9939 102.206 25.0384V26.9565H101.623V24.3212H101.625Z" fill="white"/>
<path d="M103.447 25.6081C103.447 25.3329 103.483 25.1077 103.553 24.9298C103.624 24.7547 103.717 24.6129 103.832 24.5128C103.946 24.41 104.08 24.3405 104.23 24.3015C104.377 24.2626 104.53 24.2432 104.688 24.2432C104.884 24.2432 105.048 24.271 105.179 24.3266C105.307 24.3822 105.411 24.4572 105.49 24.5573C105.566 24.6574 105.621 24.7741 105.651 24.9131C105.681 25.0521 105.697 25.2022 105.697 25.369C105.697 25.4468 105.697 25.5274 105.689 25.6108C105.683 25.6942 105.675 25.7804 105.664 25.8666H104.044C104.044 25.9861 104.058 26.0834 104.082 26.164C104.107 26.2446 104.145 26.3114 104.2 26.3614C104.254 26.4114 104.328 26.4476 104.418 26.4698C104.508 26.4921 104.622 26.5032 104.756 26.5032C104.871 26.5032 104.977 26.5004 105.078 26.4948C105.179 26.4893 105.263 26.4809 105.34 26.4726C105.427 26.4643 105.506 26.4531 105.58 26.4392V26.8534C105.495 26.884 105.405 26.9118 105.307 26.9396C105.222 26.9618 105.127 26.9813 105.015 26.998C104.903 27.0147 104.786 27.023 104.661 27.023C104.467 27.023 104.295 26.998 104.145 26.9479C103.995 26.8979 103.867 26.8173 103.763 26.7061C103.66 26.5949 103.581 26.4476 103.526 26.2641C103.472 26.0834 103.444 25.861 103.444 25.5969L103.447 25.6081ZM105.16 25.4246V25.3301C105.16 25.23 105.154 25.1438 105.141 25.0688C105.13 24.9937 105.102 24.9326 105.067 24.8853C105.029 24.838 104.977 24.8019 104.909 24.7769C104.841 24.7547 104.748 24.7408 104.636 24.7408C104.513 24.7408 104.412 24.7547 104.336 24.7852C104.257 24.8158 104.197 24.8575 104.156 24.9159C104.112 24.9743 104.082 25.0438 104.069 25.1299C104.052 25.2161 104.044 25.3134 104.044 25.4246H105.165H105.16Z" fill="white"/>
<path d="M106.188 26.2084C106.188 26.0583 106.209 25.9332 106.253 25.8276C106.297 25.7247 106.354 25.6413 106.43 25.5774C106.504 25.5135 106.591 25.469 106.692 25.4412C106.793 25.4134 106.899 25.3995 107.017 25.3995C107.134 25.3995 107.24 25.4051 107.336 25.419C107.431 25.4329 107.516 25.4468 107.584 25.4634C107.663 25.4829 107.737 25.5024 107.802 25.5246V25.28C107.802 25.2188 107.802 25.166 107.797 25.1243C107.791 25.0826 107.786 25.0437 107.775 25.0131C107.764 24.9825 107.75 24.9547 107.734 24.9325C107.717 24.9102 107.696 24.8908 107.671 24.8713C107.619 24.8324 107.548 24.8074 107.456 24.7907C107.366 24.774 107.246 24.7657 107.098 24.7657C107.006 24.7657 106.916 24.7685 106.828 24.774C106.741 24.7796 106.662 24.7879 106.594 24.7963C106.515 24.8046 106.438 24.813 106.365 24.8241V24.4071C106.43 24.3793 106.512 24.3571 106.608 24.3348C106.689 24.3154 106.79 24.2987 106.913 24.2848C107.036 24.2681 107.18 24.2598 107.349 24.2598C107.461 24.2598 107.562 24.2653 107.649 24.2737C107.737 24.282 107.813 24.2987 107.881 24.3209C107.949 24.3432 108.007 24.371 108.058 24.4071C108.11 24.4432 108.157 24.4849 108.197 24.5377C108.233 24.5822 108.26 24.6267 108.282 24.674C108.304 24.7212 108.323 24.7796 108.339 24.8435C108.353 24.9075 108.364 24.9825 108.369 25.0659C108.375 25.1493 108.377 25.2466 108.377 25.3606V26.9562H107.884L107.84 26.7616C107.769 26.8144 107.69 26.8589 107.603 26.8978C107.527 26.9312 107.439 26.9618 107.338 26.9896C107.238 27.0174 107.128 27.0313 107.006 27.0313C106.858 27.0313 106.733 27.0174 106.629 26.9868C106.526 26.9562 106.438 26.909 106.373 26.845C106.308 26.7811 106.258 26.6949 106.228 26.5893C106.198 26.4836 106.182 26.3558 106.182 26.2084H106.188ZM106.782 26.2084C106.782 26.2807 106.79 26.3391 106.809 26.3836C106.826 26.428 106.853 26.4586 106.888 26.4809C106.924 26.5031 106.965 26.517 107.014 26.5253C107.063 26.5309 107.12 26.5365 107.183 26.5365C107.265 26.5365 107.344 26.5281 107.42 26.5114C107.494 26.4948 107.559 26.4781 107.617 26.4614C107.682 26.4392 107.742 26.4141 107.799 26.3863V25.9304C107.747 25.9193 107.69 25.911 107.63 25.9027C107.578 25.8943 107.518 25.8888 107.453 25.8804C107.388 25.8749 107.317 25.8721 107.243 25.8721C107.161 25.8721 107.09 25.8749 107.033 25.8832C106.976 25.8915 106.927 25.9054 106.888 25.9304C106.85 25.9555 106.823 25.9888 106.807 26.0333C106.788 26.0778 106.779 26.1362 106.779 26.2084H106.782Z" fill="white"/>
<path d="M109.387 24.8133H109.005V24.3212H109.387V23.7653L109.97 23.6318V24.3212H110.622V24.8133H109.97V26.2282C109.97 26.2894 109.976 26.3394 109.984 26.3811C109.992 26.42 110.008 26.4534 110.033 26.4784C110.058 26.5034 110.09 26.5201 110.134 26.5284C110.178 26.5368 110.232 26.5423 110.303 26.5423C110.366 26.5423 110.423 26.5423 110.475 26.5395C110.527 26.5395 110.57 26.534 110.606 26.5312C110.649 26.5284 110.685 26.5229 110.718 26.5173V26.912C110.66 26.9343 110.6 26.9565 110.535 26.9732C110.478 26.9871 110.409 27.001 110.333 27.0149C110.257 27.0288 110.172 27.0344 110.082 27.0344C109.954 27.0344 109.848 27.0232 109.758 26.9982C109.67 26.9732 109.599 26.9343 109.542 26.8842C109.488 26.8342 109.447 26.7703 109.422 26.6924C109.398 26.6146 109.384 26.5256 109.384 26.4228V24.816L109.387 24.8133Z" fill="white"/>
<path d="M111.145 25.6081C111.145 25.3329 111.181 25.1077 111.252 24.9298C111.323 24.7547 111.415 24.6129 111.53 24.5128C111.647 24.41 111.778 24.3405 111.928 24.3015C112.078 24.2626 112.228 24.2432 112.386 24.2432C112.582 24.2432 112.749 24.271 112.877 24.3266C113.005 24.3822 113.109 24.4572 113.188 24.5573C113.264 24.6574 113.319 24.7741 113.349 24.9131C113.379 25.0521 113.395 25.2022 113.395 25.369C113.395 25.4468 113.392 25.5274 113.387 25.6108C113.382 25.6942 113.373 25.7804 113.362 25.8666H111.743C111.743 25.9861 111.756 26.0834 111.781 26.164C111.805 26.2446 111.843 26.3114 111.898 26.3614C111.953 26.4114 112.026 26.4476 112.116 26.4698C112.206 26.4921 112.321 26.5032 112.454 26.5032C112.569 26.5032 112.675 26.5004 112.776 26.4948C112.874 26.4893 112.962 26.4809 113.038 26.4726C113.125 26.4643 113.207 26.4531 113.278 26.4392V26.8534C113.193 26.884 113.103 26.9118 113.005 26.9396C112.923 26.9618 112.825 26.9813 112.713 26.998C112.602 27.0147 112.484 27.023 112.359 27.023C112.165 27.023 111.996 26.998 111.843 26.9479C111.693 26.8979 111.565 26.8173 111.462 26.7061C111.358 26.5949 111.279 26.4476 111.224 26.2641C111.17 26.0834 111.143 25.861 111.143 25.5969L111.145 25.6081ZM112.858 25.4246V25.3301C112.858 25.23 112.852 25.1438 112.839 25.0688C112.828 24.9937 112.801 24.9326 112.765 24.8853C112.727 24.838 112.675 24.8019 112.607 24.7769C112.539 24.7547 112.446 24.7408 112.332 24.7408C112.209 24.7408 112.108 24.7547 112.032 24.7852C111.953 24.8158 111.893 24.8575 111.849 24.9159C111.805 24.9743 111.775 25.0438 111.762 25.1299C111.745 25.2161 111.737 25.3134 111.737 25.4246H112.858Z" fill="white"/>
<path d="M113.856 26.4479C113.93 26.4646 114.009 26.4785 114.096 26.4924C114.173 26.5035 114.26 26.5146 114.361 26.5229C114.462 26.5313 114.576 26.5368 114.699 26.5368C114.833 26.5368 114.939 26.5313 115.018 26.5229C115.097 26.5118 115.155 26.4951 115.195 26.4729C115.236 26.4479 115.261 26.4173 115.272 26.3756C115.283 26.3339 115.288 26.2811 115.288 26.2171C115.288 26.1838 115.288 26.1532 115.283 26.1254C115.28 26.0976 115.269 26.0726 115.253 26.0504C115.236 26.0281 115.215 26.0087 115.185 25.992C115.155 25.9753 115.114 25.9642 115.062 25.9558L114.519 25.853C114.396 25.8307 114.29 25.803 114.206 25.7668C114.121 25.7307 114.053 25.6806 114.001 25.6195C113.949 25.5583 113.914 25.4833 113.892 25.3943C113.87 25.3054 113.859 25.1969 113.859 25.0691C113.859 24.7939 113.949 24.5854 114.129 24.452C114.309 24.3157 114.568 24.249 114.901 24.249C115.018 24.249 115.127 24.2574 115.225 24.2713C115.324 24.2852 115.411 24.3018 115.485 24.3213C115.569 24.3408 115.648 24.363 115.716 24.388V24.8133C115.637 24.7994 115.555 24.7883 115.471 24.7772C115.397 24.7689 115.315 24.7605 115.225 24.7522C115.135 24.7438 115.043 24.7411 114.95 24.7411C114.844 24.7411 114.756 24.7466 114.685 24.755C114.615 24.7633 114.56 24.78 114.519 24.8022C114.478 24.8244 114.451 24.8522 114.435 24.8856C114.418 24.919 114.41 24.9634 114.41 25.0135C114.41 25.0524 114.413 25.0885 114.421 25.1219C114.426 25.1525 114.443 25.183 114.462 25.2081C114.484 25.2331 114.511 25.2553 114.549 25.272C114.587 25.2915 114.636 25.3054 114.702 25.3165L115.264 25.4249C115.373 25.4471 115.465 25.4749 115.542 25.5083C115.618 25.5444 115.678 25.5917 115.727 25.6501C115.776 25.7112 115.809 25.7863 115.831 25.878C115.853 25.9697 115.864 26.0837 115.864 26.2199C115.864 26.3561 115.85 26.4618 115.825 26.5646C115.801 26.6675 115.749 26.7509 115.673 26.8204C115.596 26.8899 115.487 26.9427 115.348 26.9816C115.206 27.0177 115.021 27.0372 114.792 27.0372C114.664 27.0372 114.544 27.0289 114.432 27.0122C114.32 26.9955 114.219 26.976 114.135 26.9538C114.036 26.9288 113.944 26.901 113.856 26.8676V26.4534V26.4479Z" fill="white"/>
<path d="M117.674 26.2084C117.674 26.0583 117.696 25.9332 117.74 25.8276C117.783 25.7247 117.84 25.6413 117.917 25.5774C117.99 25.5135 118.078 25.469 118.179 25.4412C118.28 25.4134 118.386 25.3995 118.503 25.3995C118.62 25.3995 118.727 25.4051 118.822 25.419C118.918 25.4329 118.999 25.4468 119.07 25.4634C119.149 25.4829 119.223 25.5024 119.289 25.5246V25.28C119.289 25.2188 119.289 25.166 119.283 25.1243C119.28 25.0826 119.272 25.0437 119.261 25.0131C119.25 24.9825 119.237 24.9547 119.22 24.9325C119.204 24.9102 119.182 24.8908 119.158 24.8713C119.106 24.8324 119.032 24.8074 118.942 24.7907C118.849 24.774 118.732 24.7657 118.585 24.7657C118.492 24.7657 118.402 24.7685 118.315 24.774C118.228 24.7796 118.149 24.7879 118.08 24.7963C118.001 24.8046 117.925 24.813 117.851 24.8241V24.4071C117.917 24.3793 117.999 24.3571 118.094 24.3348C118.176 24.3154 118.28 24.2987 118.4 24.2848C118.522 24.2681 118.667 24.2598 118.836 24.2598C118.948 24.2598 119.049 24.2653 119.136 24.2737C119.223 24.282 119.299 24.2987 119.368 24.3209C119.436 24.3432 119.493 24.371 119.545 24.4071C119.597 24.4432 119.643 24.4849 119.684 24.5377C119.719 24.5822 119.747 24.6267 119.769 24.674C119.79 24.7212 119.809 24.7796 119.826 24.8435C119.839 24.9075 119.85 24.9825 119.856 25.0659C119.861 25.1493 119.864 25.2466 119.864 25.3606V26.9562H119.37L119.327 26.7616C119.256 26.8144 119.177 26.8589 119.089 26.8978C119.016 26.9312 118.926 26.9618 118.828 26.9896C118.727 27.0174 118.615 27.0313 118.495 27.0313C118.348 27.0313 118.222 27.0174 118.119 26.9868C118.015 26.9562 117.93 26.909 117.862 26.845C117.797 26.7811 117.748 26.6949 117.718 26.5893C117.688 26.4836 117.671 26.3558 117.671 26.2084H117.674ZM118.269 26.2084C118.269 26.2807 118.277 26.3391 118.296 26.3836C118.312 26.428 118.34 26.4586 118.375 26.4809C118.41 26.5031 118.451 26.517 118.5 26.5253C118.55 26.5309 118.607 26.5365 118.672 26.5365C118.754 26.5365 118.833 26.5281 118.909 26.5114C118.983 26.4948 119.049 26.4781 119.106 26.4614C119.171 26.4392 119.231 26.4141 119.289 26.3863V25.9304C119.237 25.9193 119.179 25.911 119.119 25.9027C119.068 25.8943 119.008 25.8888 118.942 25.8804C118.877 25.8749 118.806 25.8721 118.732 25.8721C118.65 25.8721 118.58 25.8749 118.522 25.8832C118.465 25.8915 118.416 25.9054 118.378 25.9304C118.34 25.9555 118.312 25.9888 118.296 26.0333C118.277 26.0778 118.269 26.1362 118.269 26.2084Z" fill="white"/>
<path d="M121.948 24.3213H122.376L122.447 24.5159C122.537 24.4659 122.635 24.4214 122.741 24.3825C122.834 24.3491 122.938 24.3185 123.058 24.2907C123.178 24.2629 123.306 24.249 123.439 24.249C123.693 24.249 123.884 24.3157 124.004 24.452C124.127 24.5882 124.187 24.7994 124.187 25.0885V26.9566H123.603V25.1608C123.603 25.0913 123.598 25.0329 123.589 24.9857C123.581 24.9356 123.562 24.8967 123.532 24.8661C123.502 24.8356 123.461 24.8133 123.407 24.7966C123.349 24.7828 123.276 24.7744 123.183 24.7744C123.09 24.7744 122.998 24.78 122.916 24.7939C122.837 24.8078 122.769 24.8189 122.711 24.8328C122.643 24.8495 122.583 24.8689 122.531 24.8884V26.9594H121.948V24.3241V24.3213Z" fill="white"/>
<path d="M124.817 25.6081C124.817 25.3329 124.852 25.1077 124.923 24.9298C124.994 24.7547 125.087 24.6129 125.201 24.5128C125.316 24.4127 125.449 24.3405 125.599 24.3015C125.747 24.2626 125.902 24.2432 126.058 24.2432C126.254 24.2432 126.42 24.271 126.548 24.3266C126.679 24.3822 126.783 24.4572 126.859 24.5573C126.936 24.6574 126.99 24.7741 127.02 24.9131C127.05 25.0521 127.067 25.2022 127.067 25.369C127.067 25.4468 127.067 25.5274 127.058 25.6108C127.053 25.6942 127.045 25.7804 127.034 25.8666H125.414C125.414 25.9861 125.428 26.0834 125.452 26.164C125.474 26.2446 125.515 26.3114 125.569 26.3614C125.624 26.4114 125.698 26.4476 125.788 26.4698C125.878 26.4921 125.992 26.5032 126.126 26.5032C126.24 26.5032 126.347 26.5004 126.448 26.4948C126.546 26.4893 126.633 26.4809 126.709 26.4726C126.797 26.4643 126.878 26.4531 126.949 26.4392V26.8534C126.865 26.884 126.775 26.9118 126.677 26.9396C126.592 26.9618 126.497 26.9813 126.385 26.998C126.273 27.0147 126.156 27.023 126.03 27.023C125.837 27.023 125.665 26.998 125.515 26.9479C125.365 26.8979 125.237 26.8173 125.133 26.7061C125.029 26.5949 124.95 26.4476 124.896 26.2641C124.841 26.0834 124.814 25.861 124.814 25.5969L124.817 25.6081ZM126.529 25.4246V25.3301C126.529 25.23 126.524 25.1438 126.51 25.0688C126.499 24.9937 126.475 24.9326 126.437 24.8853C126.398 24.838 126.347 24.8019 126.278 24.7769C126.21 24.7547 126.118 24.7408 126.003 24.7408C125.88 24.7408 125.779 24.7547 125.703 24.7852C125.624 24.8158 125.564 24.8575 125.523 24.9159C125.479 24.9743 125.449 25.0438 125.436 25.1299C125.419 25.2161 125.411 25.3134 125.411 25.4246H126.532H126.529Z" fill="white"/>
<path d="M127.273 24.3213H127.857L128.337 26.4284H128.378L128.784 24.3213H129.581L129.987 26.4284H130.022L130.516 24.3213H131.023L130.371 26.9566H129.608L129.177 24.8856H129.139L128.752 26.9566H127.95L127.276 24.3213H127.273Z" fill="white"/>
<path d="M132.335 24.3213H132.919L133.399 26.4284H133.439L133.846 24.3213H134.642L135.048 26.4284H135.084L135.577 24.3213H136.085L135.433 26.9566H134.669L134.238 24.8856H134.2L133.813 26.9566H133.011L132.338 24.3213H132.335Z" fill="white"/>
<path d="M136.344 25.636C136.344 25.4136 136.368 25.2163 136.415 25.0439C136.461 24.8716 136.535 24.727 136.636 24.6075C136.736 24.4879 136.862 24.399 137.017 24.3378C137.17 24.2767 137.356 24.2461 137.568 24.2461C137.781 24.2461 137.966 24.2767 138.122 24.3378C138.277 24.399 138.403 24.4879 138.504 24.6075C138.605 24.727 138.675 24.8716 138.725 25.0439C138.771 25.2163 138.795 25.4136 138.795 25.636C138.795 25.8584 138.771 26.0585 138.725 26.2309C138.678 26.406 138.605 26.5506 138.504 26.6701C138.403 26.7896 138.277 26.8786 138.122 26.9398C137.966 27.0009 137.784 27.0315 137.568 27.0315C137.353 27.0315 137.17 27.0009 137.017 26.9398C136.865 26.8786 136.736 26.7896 136.636 26.6701C136.535 26.5506 136.461 26.406 136.415 26.2309C136.368 26.0558 136.344 25.8584 136.344 25.636ZM137.568 26.5311C137.696 26.5311 137.803 26.5117 137.882 26.4727C137.961 26.4338 138.024 26.3754 138.067 26.3004C138.111 26.2253 138.141 26.1308 138.157 26.0196C138.174 25.9084 138.179 25.7806 138.179 25.636C138.179 25.4915 138.171 25.3664 138.157 25.2552C138.141 25.144 138.111 25.0495 138.067 24.9744C138.024 24.8994 137.961 24.841 137.882 24.8021C137.803 24.7631 137.696 24.7437 137.568 24.7437C137.44 24.7437 137.336 24.7631 137.257 24.8021C137.178 24.841 137.116 24.8994 137.069 24.9744C137.026 25.0495 136.993 25.144 136.979 25.2552C136.963 25.3664 136.955 25.4942 136.955 25.636C136.955 25.7778 136.963 25.9084 136.979 26.0196C136.996 26.1308 137.026 26.2253 137.069 26.3004C137.113 26.3754 137.176 26.4338 137.257 26.4727C137.336 26.5117 137.44 26.5311 137.568 26.5311Z" fill="white"/>
<path d="M139.431 24.3212H139.935L139.971 24.6075C140.099 24.5214 140.241 24.4519 140.399 24.3991C140.557 24.3435 140.735 24.3129 140.934 24.3018L140.928 24.9161C140.724 24.9189 140.546 24.93 140.396 24.9467C140.246 24.9634 140.118 24.9939 140.012 25.0384V26.9565H139.428V24.3212H139.431Z" fill="white"/>
<path d="M141.43 23.0732H142.014V26.9539H141.43V23.0732Z" fill="white"/>
<path d="M143.565 27.0316C143.421 27.0316 143.292 27.0066 143.181 26.9593C143.069 26.912 142.979 26.8314 142.905 26.723C142.831 26.6146 142.777 26.4701 142.736 26.2949C142.698 26.1198 142.679 25.903 142.676 25.6472C142.673 25.3943 142.692 25.1774 142.731 24.9995C142.771 24.8216 142.829 24.6771 142.905 24.5631C142.981 24.4519 143.074 24.3685 143.183 24.3185C143.295 24.2684 143.418 24.2434 143.557 24.2434C143.685 24.2434 143.8 24.2545 143.906 24.274C144.01 24.2934 144.102 24.3157 144.179 24.3379C144.269 24.3657 144.348 24.3963 144.416 24.4297V23.0703H145V26.951H144.498L144.465 26.7425C144.391 26.7953 144.307 26.8453 144.214 26.887C144.135 26.9232 144.04 26.9565 143.928 26.9843C143.816 27.0121 143.696 27.0288 143.565 27.0288V27.0316ZM143.77 26.5006C143.854 26.5006 143.936 26.4951 144.012 26.4812C144.089 26.4701 144.16 26.4534 144.22 26.4367C144.29 26.4172 144.356 26.3978 144.416 26.3728V24.8661C144.348 24.8494 144.277 24.8327 144.203 24.8188C144.141 24.8077 144.067 24.7966 143.982 24.7855C143.901 24.7744 143.816 24.7716 143.729 24.7716C143.641 24.7716 143.565 24.7883 143.508 24.8188C143.451 24.8494 143.407 24.9022 143.374 24.9717C143.341 25.044 143.32 25.1385 143.306 25.2525C143.295 25.3692 143.287 25.5138 143.287 25.6834C143.287 25.8307 143.292 25.9586 143.303 26.0614C143.314 26.1643 143.339 26.2477 143.371 26.3144C143.407 26.3783 143.453 26.4256 143.516 26.4562C143.579 26.484 143.663 26.5006 143.764 26.5006H143.77Z" fill="white"/>
<path d="M65.1093 4.85435H59.2651V2.15234H74.256V4.85435H68.36V19.6014H65.1093V4.85435Z" fill="white"/>
<path d="M84.0054 19.9817C83.1682 19.9817 82.3909 19.9289 81.671 19.8233C80.951 19.7177 80.2965 19.5314 79.7047 19.2673C79.113 19.0032 78.5866 18.6502 78.1285 18.2082C77.6676 17.769 77.2804 17.2102 76.9613 16.5403C76.6422 15.8676 76.4022 15.0698 76.2386 14.1496C76.075 13.2295 75.9932 12.1565 75.9932 10.9334C75.9932 9.09868 76.1759 7.59201 76.5386 6.4078C76.904 5.22637 77.4303 4.29512 78.123 3.61406C78.8157 2.933 79.6557 2.46043 80.6483 2.19634C81.641 1.93226 82.7591 1.79883 84.0081 1.79883C84.8372 1.79883 85.6089 1.85442 86.3289 1.97118C87.0488 2.08515 87.7033 2.27696 88.2951 2.54382C88.8869 2.81347 89.4105 3.17485 89.8659 3.62796C90.3214 4.08107 90.7059 4.64538 91.0195 5.32088C91.3331 5.99916 91.5731 6.79976 91.7367 7.72266C91.9004 8.64835 91.9822 9.71858 91.9822 10.9334C91.9822 12.1482 91.9004 13.2156 91.7367 14.1385C91.5731 15.0587 91.3331 15.8565 91.0195 16.5292C90.7059 17.2019 90.3214 17.7607 89.8659 18.2026C89.4105 18.6474 88.8869 19.0005 88.2951 19.2618C87.7033 19.5231 87.0488 19.7093 86.3289 19.8177C85.6089 19.9261 84.8372 19.9817 84.0081 19.9817H84.0054ZM84.0054 17.2797C84.8972 17.2797 85.6362 17.1852 86.2225 16.999C86.8089 16.8099 87.2752 16.4791 87.6215 16.001C87.9679 15.5257 88.2106 14.8752 88.3524 14.0579C88.4942 13.2379 88.5624 12.1982 88.5624 10.9334C88.5624 9.66855 88.4915 8.61499 88.3524 7.79216C88.2106 6.96933 87.9679 6.31606 87.6215 5.82959C87.2752 5.34312 86.8089 5.00676 86.2225 4.81495C85.6362 4.62314 84.8972 4.52863 84.0054 4.52863C83.1136 4.52863 82.3719 4.62314 81.7801 4.81495C81.1883 5.00676 80.7192 5.3459 80.3729 5.82959C80.0265 6.31328 79.7838 6.96933 79.642 7.79216C79.5002 8.61499 79.4293 9.66299 79.4293 10.9334C79.4293 12.2038 79.5002 13.2379 79.642 14.0579C79.7838 14.878 80.0265 15.5257 80.3729 16.001C80.7192 16.4764 81.1883 16.8099 81.7801 16.999C82.3719 17.1852 83.1136 17.2797 84.0054 17.2797Z" fill="white"/>
<path d="M96.0317 2.15234H103.021C103.741 2.15234 104.431 2.19682 105.088 2.28578C105.748 2.37473 106.359 2.53596 106.924 2.76391C107.488 2.99185 108.004 3.30876 108.467 3.71739C108.931 4.12603 109.326 4.64586 109.656 5.28244C109.984 5.91902 110.237 6.68626 110.414 7.58137C110.592 8.47925 110.682 9.53003 110.682 10.7365C110.682 11.9429 110.6 13.0688 110.436 13.9944C110.273 14.9201 110.035 15.7096 109.727 16.3656C109.416 17.0217 109.04 17.5582 108.595 17.9807C108.148 18.4005 107.641 18.7313 107.074 18.9704C106.504 19.2122 105.882 19.3762 105.203 19.4652C104.524 19.5541 103.799 19.5986 103.024 19.5986H96.0345V2.15234H96.0317ZM102.135 16.8744C102.599 16.8744 103.049 16.8632 103.488 16.8438C103.924 16.8243 104.333 16.752 104.709 16.6297C105.086 16.5074 105.432 16.3212 105.748 16.0738C106.062 15.8264 106.332 15.4733 106.553 15.0146C106.777 14.5588 106.948 13.9806 107.071 13.2828C107.194 12.5851 107.254 11.7289 107.254 10.7087C107.254 9.76354 107.194 8.96294 107.077 8.3069C106.959 7.65086 106.79 7.10601 106.572 6.67514C106.354 6.24148 106.092 5.9079 105.787 5.66606C105.481 5.42421 105.14 5.2463 104.756 5.12677C104.374 5.01002 103.962 4.93774 103.52 4.91272C103.079 4.8877 102.618 4.87658 102.135 4.87658H99.3097V16.8744H102.135Z" fill="white"/>
<path d="M118.967 12.8658L112.25 2.15234H116.087L120.557 9.75798H120.611L125.097 2.15234H128.934L122.218 12.8658V19.6042H118.967V12.8658Z" fill="white"/>
</g>
<defs>
<clipPath id="clip0_41_1094">
<rect width="145" height="30" fill="white"/>
</clipPath>
</defs>
</svg>
