<svg width="438" height="320" viewBox="0 0 438 320" fill="none" xmlns="http://www.w3.org/2000/svg">
<g clip-path="url(#clip0_114_1248)">
<path d="M437.649 27.3525H127.132V243.042H437.649V27.3525Z" fill="white"/>
<path d="M437.649 243.394H127.132C126.939 243.394 126.781 243.236 126.781 243.042V27.3526C126.781 27.1587 126.939 27 127.132 27H437.649C437.842 27 438 27.1587 438 27.3526V243.042C438 243.236 437.842 243.394 437.649 243.394ZM127.484 242.689H437.297V27.7052H127.484V242.689Z" fill="black"/>
<path d="M272.95 158.168H140.651C140.458 158.168 140.3 158.009 140.3 157.815V75.2295C140.3 75.0356 140.458 74.877 140.651 74.877C140.845 74.877 141.003 75.0356 141.003 75.2295V157.462H272.95C273.144 157.462 273.302 157.621 273.302 157.815C273.302 158.009 273.144 158.168 272.95 158.168Z" fill="black"/>
<path d="M157.858 97.5479H146.153V153.041H157.858V97.5479Z" fill="#E2EAFF"/>
<path d="M176.281 123.227H164.575V153.044H176.281V123.227Z" fill="#E2EAFF"/>
<path d="M194.703 111.623H182.998V153.044H194.703V111.623Z" fill="#E2EAFF"/>
<path d="M213.126 93.4727H201.421V153.042H213.126V93.4727Z" fill="#E2EAFF"/>
<path d="M231.254 81.0117H220.139V153.044H231.254V81.0117Z" fill="#E2EAFF"/>
<path d="M249.972 77.1865H238.267V153.041H249.972V77.1865Z" fill="#E2EAFF"/>
<path d="M268.398 86.6357H256.693V153.041H268.398V86.6357Z" fill="#E2EAFF"/>
<path d="M404.852 62.5443H156.983C151.01 62.5443 146.124 57.6434 146.124 51.653C146.124 45.6626 151.01 40.7617 156.983 40.7617H404.849C410.821 40.7617 415.707 45.6626 415.707 51.653C415.707 57.6434 410.821 62.5443 404.849 62.5443H404.852Z" fill="white"/>
<path d="M404.852 62.8969H156.982C150.799 62.8969 145.773 57.8515 145.773 51.6531C145.773 45.4546 150.803 40.4092 156.982 40.4092H404.849C411.028 40.4092 416.059 45.4546 416.059 51.6531C416.059 57.8515 411.028 62.8969 404.849 62.8969H404.852ZM156.982 41.1108C151.19 41.1108 146.476 45.839 146.476 51.6495C146.476 57.4601 151.19 62.1882 156.982 62.1882H404.849C410.642 62.1882 415.355 57.4601 415.355 51.6495C415.355 45.839 410.642 41.1108 404.849 41.1108H156.982Z" fill="black"/>
<path d="M400.856 55.0974C398.258 55.0974 396.145 52.9784 396.145 50.3764C396.145 47.7743 398.258 45.6553 400.856 45.6553C403.453 45.6553 405.566 47.7743 405.566 50.3764C405.566 52.9784 403.453 55.0974 400.856 55.0974ZM400.856 46.3604C398.648 46.3604 396.848 48.1621 396.848 50.3764C396.848 52.5906 398.645 54.3923 400.856 54.3923C403.067 54.3923 404.863 52.5906 404.863 50.3764C404.863 48.1621 403.067 46.3604 400.856 46.3604Z" fill="black"/>
<path d="M407.998 57.788C407.907 57.788 407.819 57.7527 407.749 57.6857L403.734 53.6628C403.597 53.5253 403.597 53.3031 403.734 53.1656C403.871 53.0281 404.093 53.0281 404.23 53.1656L408.244 57.1886C408.381 57.3261 408.381 57.5482 408.244 57.6857C408.174 57.7563 408.086 57.788 407.995 57.788H407.998Z" fill="black"/>
<path d="M383.842 54.8331H344.624C342.743 54.8331 341.218 53.3028 341.218 51.4165C341.218 49.5302 342.743 48 344.624 48H383.842C385.723 48 387.248 49.5302 387.248 51.4165C387.248 53.3028 385.723 54.8331 383.842 54.8331Z" fill="white"/>
<path d="M383.839 55.1857H344.62C342.55 55.1857 340.863 53.4933 340.863 51.4166C340.863 49.3399 342.55 47.6475 344.62 47.6475H383.839C385.909 47.6475 387.597 49.3399 387.597 51.4166C387.597 53.4933 385.909 55.1857 383.839 55.1857ZM344.62 48.3526C342.937 48.3526 341.566 49.7277 341.566 51.4166C341.566 53.1054 342.937 54.4805 344.62 54.4805H383.839C385.523 54.4805 386.893 53.1054 386.893 51.4166C386.893 49.7277 385.523 48.3526 383.839 48.3526H344.62Z" fill="black"/>
<path d="M327.347 54.8331H280.205C278.325 54.8331 276.799 53.3028 276.799 51.4165C276.799 49.5302 278.325 48 280.205 48H327.347C329.228 48 330.753 49.5302 330.753 51.4165C330.753 53.3028 329.228 54.8331 327.347 54.8331Z" fill="white"/>
<path d="M327.347 55.1857H280.205C278.135 55.1857 276.448 53.4933 276.448 51.4166C276.448 49.3399 278.135 47.6475 280.205 47.6475H327.347C329.421 47.6475 331.105 49.3399 331.105 51.4166C331.105 53.4933 329.417 55.1857 327.347 55.1857ZM280.205 48.3526C278.522 48.3526 277.151 49.7277 277.151 51.4166C277.151 53.1054 278.522 54.4805 280.205 54.4805H327.347C329.031 54.4805 330.402 53.1054 330.402 51.4166C330.402 49.7277 329.031 48.3526 327.347 48.3526H280.205Z" fill="black"/>
<path d="M240.07 55.6193H190.731C188.411 55.6193 186.527 53.733 186.527 51.4024C186.527 49.0719 188.408 47.1855 190.731 47.1855H240.07C242.39 47.1855 244.274 49.0719 244.274 51.4024C244.274 53.733 242.393 55.6193 240.07 55.6193Z" fill="#F6B679"/>
<path d="M415.588 140.916H309.937C309.744 140.916 309.585 140.757 309.585 140.563V128.649C309.585 128.456 309.744 128.297 309.937 128.297H415.588C415.781 128.297 415.939 128.456 415.939 128.649V140.563C415.939 140.757 415.781 140.916 415.588 140.916ZM310.288 140.211H415.236V129.002H310.288V140.211Z" fill="black"/>
<path d="M379.086 140.916C378.893 140.916 378.735 140.757 378.735 140.563V128.649C378.735 128.456 378.893 128.297 379.086 128.297C379.28 128.297 379.438 128.456 379.438 128.649V140.563C379.438 140.757 379.28 140.916 379.086 140.916Z" fill="black"/>
<path d="M415.542 161.496H309.891C309.698 161.496 309.54 161.337 309.54 161.143V149.23C309.54 149.036 309.698 148.877 309.891 148.877H415.542C415.735 148.877 415.894 149.036 415.894 149.23V161.143C415.894 161.337 415.735 161.496 415.542 161.496ZM310.243 160.791H415.19V149.582H310.243V160.791Z" fill="black"/>
<path d="M379.041 161.496C378.847 161.496 378.689 161.337 378.689 161.143V149.23C378.689 149.036 378.847 148.877 379.041 148.877C379.234 148.877 379.392 149.036 379.392 149.23V161.143C379.392 161.337 379.234 161.496 379.041 161.496Z" fill="black"/>
<path d="M415.542 183.875H309.891C309.698 183.875 309.54 183.716 309.54 183.522V171.608C309.54 171.415 309.698 171.256 309.891 171.256H415.542C415.735 171.256 415.894 171.415 415.894 171.608V183.522C415.894 183.716 415.735 183.875 415.542 183.875ZM310.243 183.17H415.19V171.961H310.243V183.17Z" fill="black"/>
<path d="M379.041 183.875C378.847 183.875 378.689 183.716 378.689 183.522V171.608C378.689 171.415 378.847 171.256 379.041 171.256C379.234 171.256 379.392 171.415 379.392 171.608V183.522C379.392 183.716 379.234 183.875 379.041 183.875Z" fill="black"/>
<path d="M415.542 206.25H309.891C309.698 206.25 309.54 206.091 309.54 205.897V193.983C309.54 193.79 309.698 193.631 309.891 193.631H415.542C415.735 193.631 415.894 193.79 415.894 193.983V205.897C415.894 206.091 415.735 206.25 415.542 206.25ZM310.243 205.545H415.19V194.336H310.243V205.545Z" fill="black"/>
<path d="M379.041 206.25C378.847 206.25 378.689 206.091 378.689 205.897V193.983C378.689 193.79 378.847 193.631 379.041 193.631C379.234 193.631 379.392 193.79 379.392 193.983V205.897C379.392 206.091 379.234 206.25 379.041 206.25Z" fill="black"/>
<path d="M322.324 102.548L397.119 102.548V82.6622L322.324 82.6622V102.548Z" fill="white"/>
<path d="M397.119 102.9H322.324C322.131 102.9 321.972 102.742 321.972 102.548V82.6622C321.972 82.4682 322.131 82.3096 322.324 82.3096H397.119C397.312 82.3096 397.47 82.4682 397.47 82.6622V102.548C397.47 102.742 397.312 102.9 397.119 102.9ZM322.675 102.195H396.767V83.0147H322.675V102.195Z" fill="black"/>
<path d="M53.9892 261.595V319.566L45.1521 261.595H53.9892Z" fill="white"/>
<path d="M53.641 319.619L44.7407 261.242H54.3406V319.566L53.641 319.619ZM45.5597 261.947L53.6375 314.93V261.947H45.5597Z" fill="black"/>
<path d="M113.367 196.716H22.3318V287.097H113.367V196.716Z" fill="white"/>
<path d="M113.37 287.45H22.3317C22.1384 287.45 21.9802 287.291 21.9802 287.097V196.716C21.9802 196.522 22.1384 196.363 22.3317 196.363H113.37C113.564 196.363 113.722 196.522 113.722 196.716V287.097C113.722 287.291 113.564 287.45 113.37 287.45ZM22.6833 286.744H113.019V197.068H22.6833V286.744Z" fill="black"/>
<path d="M36.5469 206.775C36.5469 207.748 35.7595 208.538 34.7893 208.538C33.8191 208.538 33.0317 207.748 33.0317 206.775C33.0317 205.802 33.8191 205.012 34.7893 205.012C35.7595 205.012 36.5469 205.802 36.5469 206.775Z" fill="#F6B679"/>
<path d="M102.674 207.127H39.3942C39.2009 207.127 39.0427 206.968 39.0427 206.774C39.0427 206.581 39.2009 206.422 39.3942 206.422H102.674C102.867 206.422 103.025 206.581 103.025 206.774C103.025 206.968 102.867 207.127 102.674 207.127Z" fill="black"/>
<path d="M36.5469 212.938C36.5469 213.911 35.7595 214.701 34.7893 214.701C33.8191 214.701 33.0317 213.911 33.0317 212.938C33.0317 211.965 33.8191 211.175 34.7893 211.175C35.7595 211.175 36.5469 211.965 36.5469 212.938Z" fill="#F6B679"/>
<path d="M102.674 213.29H39.3942C39.2009 213.29 39.0427 213.131 39.0427 212.938C39.0427 212.744 39.2009 212.585 39.3942 212.585H102.674C102.867 212.585 103.025 212.744 103.025 212.938C103.025 213.131 102.867 213.29 102.674 213.29Z" fill="black"/>
<path d="M67.8527 246.708V221.403C81.7059 221.403 92.9332 232.732 92.9332 246.708C92.9332 260.685 81.7059 272.013 67.8527 272.013C53.9996 272.013 42.7722 260.685 42.7722 246.708C42.7722 242.484 43.7986 238.504 45.6124 235.002L67.8527 246.708Z" fill="white"/>
<path d="M45.6124 235.002L67.8527 221.403C81.7059 221.403 92.9332 232.732 92.9332 246.708C92.9332 260.685 81.7059 272.013 67.8527 272.013C53.9996 272.013 42.7722 260.685 42.7722 246.708C42.7722 242.484 43.7986 238.504 45.6124 235.002Z" fill="white"/>
<path d="M67.8527 272.366C53.8308 272.366 42.4207 260.857 42.4207 246.708C42.4207 242.58 43.4154 238.475 45.3031 234.84C45.3347 234.784 45.3769 234.735 45.4331 234.703L67.6734 221.104C67.7296 221.068 67.7929 221.051 67.8562 221.051C81.8781 221.051 93.2882 232.559 93.2882 246.708C93.2882 260.857 81.8781 272.366 67.8562 272.366H67.8527ZM45.8795 235.253C44.0763 238.768 43.1237 242.728 43.1237 246.712C43.1237 260.47 54.2175 271.664 67.8527 271.664C81.4879 271.664 92.5817 260.47 92.5817 246.712C92.5817 232.954 81.5406 221.812 67.9511 221.759L45.8795 235.253Z" fill="#F6B679"/>
<path d="M45.6123 235.002C49.7988 226.921 58.1859 221.403 67.8526 221.403V246.708L45.6123 235.002Z" fill="#F6B679"/>
<path d="M68.2042 247.294L45.1414 235.154L45.3031 234.844C49.711 226.34 58.3512 221.055 67.8526 221.055H68.2042V247.294ZM46.0904 234.855L67.5011 246.127V221.76C58.5164 221.887 50.3684 226.872 46.0904 234.855Z" fill="#F6B679"/>
<path d="M67.8528 258.788C74.5058 258.788 79.8991 253.38 79.8991 246.708C79.8991 240.037 74.5058 234.629 67.8528 234.629C61.1997 234.629 55.8064 240.037 55.8064 246.708C55.8064 253.38 61.1997 258.788 67.8528 258.788Z" fill="white"/>
<path d="M67.8527 259.141C61.0158 259.141 55.4548 253.563 55.4548 246.708C55.4548 239.854 61.0158 234.276 67.8527 234.276C74.6897 234.276 80.2506 239.854 80.2506 246.708C80.2506 253.563 74.6897 259.141 67.8527 259.141ZM67.8527 234.985C61.406 234.985 56.1579 240.246 56.1579 246.712C56.1579 253.178 61.4024 258.439 67.8527 258.439C74.303 258.439 79.5476 253.178 79.5476 246.712C79.5476 240.246 74.303 234.985 67.8527 234.985Z" fill="#F6B679"/>
<path d="M63.8032 253.503V249.681C63.8032 247.735 65.378 246.155 67.3218 246.155H88.1595C90.1034 246.155 91.6747 247.735 91.6747 249.681V253.503H148.289V312.938C148.289 316.598 145.33 319.563 141.681 319.563H53.9924V253.5H63.8032V253.503Z" fill="white"/>
<path d="M141.678 319.919H53.989C53.7956 319.919 53.6375 319.761 53.6375 319.567V253.503C53.6375 253.309 53.7956 253.151 53.989 253.151H63.4482V249.681C63.4482 247.541 65.1847 245.803 67.3148 245.803H88.1526C90.2863 245.803 92.0192 247.541 92.0192 249.681V253.151H148.282C148.476 253.151 148.634 253.309 148.634 253.503V312.938C148.634 316.785 145.513 319.916 141.674 319.916L141.678 319.919ZM54.3405 319.214H141.678C145.129 319.214 147.934 316.4 147.934 312.942V253.859H91.6712C91.4779 253.859 91.3197 253.701 91.3197 253.507V249.685C91.3197 247.936 89.8996 246.511 88.1561 246.511H67.3184C65.5749 246.511 64.1547 247.936 64.1547 249.685V253.507C64.1547 253.701 63.9966 253.859 63.8032 253.859H54.344V319.218L54.3405 319.214Z" fill="black"/>
<path d="M113.367 150.4H22.3318V187.824H113.367V150.4Z" fill="white"/>
<path d="M113.37 188.176H22.3317C22.1384 188.176 21.9802 188.018 21.9802 187.824V150.4C21.9802 150.207 22.1384 150.048 22.3317 150.048H113.37C113.564 150.048 113.722 150.207 113.722 150.4V187.824C113.722 188.018 113.564 188.176 113.37 188.176ZM22.6833 187.471H113.019V150.753H22.6833V187.471Z" fill="black"/>
<path d="M39.7423 162.085H31.5591V179.774H39.7423V162.085Z" fill="white"/>
<path d="M39.7423 180.127H31.559C31.3657 180.127 31.2075 179.968 31.2075 179.774V162.085C31.2075 161.891 31.3657 161.732 31.559 161.732H39.7423C39.9356 161.732 40.0938 161.891 40.0938 162.085V179.774C40.0938 179.968 39.9356 180.127 39.7423 180.127ZM31.9105 179.422H39.3908V162.438H31.9105V179.422Z" fill="black"/>
<path d="M52.6217 170.269H44.4385V179.771H52.6217V170.269Z" fill="#F6B679"/>
<path d="M65.5048 166.569H57.3215V179.77H65.5048V166.569Z" fill="white"/>
<path d="M65.5013 180.127H57.3181C57.1247 180.127 56.9666 179.968 56.9666 179.774V166.573C56.9666 166.379 57.1247 166.221 57.3181 166.221H65.5013C65.6946 166.221 65.8528 166.379 65.8528 166.573V179.774C65.8528 179.968 65.6946 180.127 65.5013 180.127ZM57.6696 179.421H65.1498V166.926H57.6696V179.421Z" fill="black"/>
<path d="M78.3842 160.788H70.2009V179.775H78.3842V160.788Z" fill="#F6B679"/>
<path d="M91.0598 156.814H83.2878V179.775H91.0598V156.814Z" fill="white"/>
<path d="M91.0598 180.127H83.2878C83.0945 180.127 82.9363 179.969 82.9363 179.775V156.814C82.9363 156.621 83.0945 156.462 83.2878 156.462H91.0598C91.2531 156.462 91.4113 156.621 91.4113 156.814V179.775C91.4113 179.969 91.2531 180.127 91.0598 180.127ZM83.6393 179.422H90.7082V157.167H83.6393V179.422Z" fill="black"/>
<path d="M104.147 155.594H95.9634V179.77H104.147V155.594Z" fill="#F6B679"/>
<path d="M104.498 180.127H95.6118V155.245H104.498V180.127ZM96.3148 179.422H103.795V155.95H96.3148V179.422Z" fill="#F6B679"/>
<path d="M235.704 156.778C235.704 156.778 218.448 153.083 205.309 156.613C192.172 160.142 178.122 150.802 186.028 137.711C193.934 124.619 198.363 102.96 216.641 96.3669C234.92 89.7736 246.787 102.089 242.309 112C239.697 117.783 257.466 128.205 255.554 139.199C253.195 152.756 235.704 156.778 235.704 156.778Z" fill="black"/>
<path d="M327.22 133.558C329.498 137.56 332.127 141.353 335.214 144.773C336.838 146.572 338.56 148.285 340.441 149.808C342.29 151.303 344.265 152.636 346.304 153.852C346.859 154.184 347.422 154.508 347.984 154.826C358.227 135.359 363.985 115.936 363.985 115.936C372.14 110.03 367.419 106.941 367.419 106.941C368.695 101.836 364.569 101.385 364.569 101.385C363.356 95.2284 357.893 97.7705 357.893 97.7705C362.358 91.1949 364.548 80.4376 351.563 93.8921C343.889 101.843 334.04 116.602 325.185 129.76C325.832 131.044 326.503 132.313 327.213 133.561L327.22 133.558Z" fill="white"/>
<path d="M348.796 153.627C348.768 153.627 348.74 153.627 348.708 153.616C348.518 153.57 348.406 153.376 348.452 153.19C348.634 152.463 348.993 151.97 349.373 151.448C349.489 151.289 349.608 151.123 349.728 150.944C355.661 138.187 360.241 126.672 363.721 115.735C363.746 115.661 363.792 115.601 363.851 115.555C365.644 114.271 367.335 113.062 368.059 111.116C368.397 110.104 368.734 108.232 367.173 107.188C367.036 107.096 366.98 106.924 367.04 106.772C367.767 104.822 366.709 102.499 364.678 101.596C364.066 101.395 363.936 100.732 363.823 100.15C363.753 99.7943 363.683 99.4277 363.507 99.1703C361.865 96.9737 359.366 97.5554 358.027 98.1019C358.027 98.1019 358.027 98.1019 358.023 98.1019C358.002 98.109 357.981 98.1161 357.96 98.1196C357.911 98.1266 357.862 98.1266 357.816 98.1125C357.777 98.1019 357.742 98.0843 357.707 98.0632C357.689 98.0491 357.668 98.0314 357.654 98.0138C357.654 98.0138 357.654 98.0138 357.651 98.0103C357.626 97.9821 357.609 97.9539 357.595 97.9186C357.58 97.8798 357.57 97.841 357.57 97.7987V97.7917V97.7846C357.57 97.7846 357.57 97.7811 357.57 97.7776V97.7705V97.767V97.7635C357.57 97.7635 357.57 97.7635 357.57 97.7599V97.7564C357.58 97.7176 357.595 97.6788 357.619 97.6401L358.006 97.0336C359.774 94.2658 361.774 91.1314 360.716 87.9934C360.547 87.8911 360.217 87.8806 360.045 87.8806C357.665 88.5469 355.83 90.1829 354.055 91.766C353.819 91.9776 353.58 92.1891 353.345 92.3936C344.427 101.55 337.766 111.585 330.714 122.212C329.389 124.211 328.018 126.277 326.644 128.311C326.535 128.473 326.317 128.516 326.155 128.406C325.993 128.297 325.951 128.079 326.06 127.916C327.431 125.885 328.802 123.819 330.127 121.82C337.2 111.169 343.875 101.106 352.86 91.8824C353.113 91.6567 353.348 91.4487 353.584 91.2372C355.429 89.5906 357.341 87.8876 359.9 87.186C359.932 87.1789 359.96 87.1719 359.992 87.1719C360.287 87.1719 360.902 87.1719 361.261 87.5315C361.296 87.5703 361.324 87.6126 361.342 87.662C362.491 90.8846 360.695 94.086 359.011 96.7516C359.004 96.8326 358.934 96.9807 358.832 97.15C361.011 96.5858 362.853 97.1606 364.094 98.8177C364.354 99.2091 364.446 99.6674 364.526 100.069C364.628 100.591 364.706 100.916 364.945 100.993C367.254 102.019 368.477 104.582 367.799 106.818C369.043 107.794 369.388 109.452 368.738 111.408C367.947 113.527 366.136 114.85 364.368 116.115C360.881 127.056 356.297 138.571 350.367 151.321C350.36 151.338 350.35 151.353 350.343 151.367C350.213 151.564 350.083 151.744 349.956 151.917C349.605 152.403 349.299 152.823 349.151 153.415C349.113 153.574 348.968 153.683 348.81 153.683L348.796 153.627Z" fill="black"/>
<path d="M347.225 120.036C347.039 120.036 346.849 120.018 346.656 119.983C346.466 119.948 346.339 119.764 346.371 119.574C346.406 119.384 346.585 119.257 346.779 119.288C348.192 119.546 349.475 118.527 350.143 117.571C350.789 116.651 351.176 115.544 351.549 114.469C351.647 114.19 351.742 113.912 351.844 113.633C352.311 112.367 353.018 110.791 354.364 109.86C355.004 109.42 355.728 109.159 356.428 108.908C356.737 108.799 357.057 108.683 357.359 108.556C358.147 108.224 359.138 107.629 359.394 106.659C359.721 105.425 358.589 104.127 357.356 103.792C356.023 103.429 354.575 103.817 353.211 104.286C349.44 105.587 346.301 107.346 343.882 109.518C343.738 109.649 343.517 109.635 343.386 109.49C343.256 109.346 343.27 109.123 343.415 108.993C345.903 106.758 349.123 104.952 352.986 103.62C354.456 103.112 356.027 102.699 357.542 103.112C359.096 103.535 360.516 105.171 360.076 106.842C359.746 108.087 358.565 108.817 357.633 109.208C357.313 109.342 356.983 109.458 356.667 109.575C355.978 109.822 355.327 110.051 354.765 110.442C353.58 111.26 352.937 112.709 352.505 113.876C352.403 114.148 352.308 114.423 352.213 114.698C351.823 115.819 351.419 116.975 350.716 117.973C350.013 118.971 348.719 120.029 347.221 120.029L347.225 120.036Z" fill="black"/>
<path d="M356.41 112.466C356.305 112.466 356.196 112.459 356.09 112.449C355.102 112.332 354.104 111.483 354.196 110.4C354.213 110.206 354.385 110.062 354.575 110.079C354.769 110.097 354.913 110.266 354.895 110.46C354.842 111.105 355.524 111.673 356.171 111.751C356.79 111.821 357.479 111.613 358.34 111.088C361.338 109.261 363.335 105.947 363.553 102.435C363.563 102.242 363.725 102.093 363.925 102.104C364.119 102.115 364.266 102.284 364.256 102.478C364.024 106.215 361.897 109.745 358.705 111.691C358.143 112.036 357.317 112.47 356.41 112.47V112.466Z" fill="black"/>
<path d="M360.396 113.189C360.242 113.189 360.094 113.178 359.946 113.153C359.064 113.009 358.347 112.371 358.206 111.599C358.171 111.408 358.298 111.225 358.488 111.19C358.681 111.154 358.864 111.281 358.895 111.472C358.994 112.011 359.556 112.378 360.055 112.459C360.561 112.54 361.131 112.434 361.855 112.124C363.873 111.257 365.511 109.592 366.344 107.558C366.418 107.378 366.622 107.294 366.804 107.368C366.984 107.442 367.068 107.646 366.994 107.829C366.087 110.033 364.316 111.838 362.129 112.776C361.472 113.058 360.909 113.196 360.389 113.196L360.396 113.189Z" fill="black"/>
<path d="M363.405 115.237C362.931 115.237 362.453 115.086 362.076 114.793C361.454 114.306 361.134 113.46 361.282 112.681C361.317 112.491 361.503 112.367 361.693 112.402C361.883 112.438 362.01 112.625 361.971 112.815C361.869 113.337 362.087 113.908 362.505 114.236C362.924 114.56 363.532 114.627 364.01 114.402C364.185 114.317 364.396 114.395 364.477 114.571C364.562 114.747 364.484 114.959 364.309 115.04C364.027 115.174 363.714 115.237 363.402 115.237H363.405Z" fill="black"/>
<path d="M111.521 195.884C111.521 195.884 128.362 227.867 153.998 227.123C179.631 226.375 190.668 203.433 190.668 203.433C190.668 203.433 183.079 226.753 191.455 232.986C199.832 239.22 260.24 245.246 264.437 226.129C267.435 212.466 264.957 203.405 266.504 192.545C266.504 192.545 308.344 197.661 329.301 181.636C342.582 171.478 352.227 147.062 352.227 147.062C352.227 147.062 343.654 128.728 326.338 128.058L316.9 141.336C311.648 148.726 303.233 153.204 294.185 153.422L192.601 155.869C182.084 156.123 172.28 161.398 166.389 170.138C159.914 179.739 149.474 190.56 135.892 189.044L111.521 195.888V195.884Z" fill="#F6B679"/>
<path d="M266.142 191.173C265.948 191.173 265.79 191.018 265.79 190.824C265.744 185.796 266.799 180.709 268.838 176.115C268.918 175.938 269.126 175.857 269.302 175.935C269.477 176.012 269.558 176.224 269.481 176.4C267.484 180.903 266.451 185.888 266.493 190.817C266.493 191.011 266.338 191.17 266.145 191.173H266.142Z" fill="black"/>
<path d="M216.905 203.771C215.376 203.771 213.85 203.552 212.381 203.112C208.535 201.952 205.189 199.283 203.196 195.785C203.101 195.616 203.157 195.401 203.326 195.305C203.495 195.207 203.709 195.267 203.804 195.436C205.706 198.778 208.904 201.331 212.581 202.438C216.255 203.545 220.329 203.182 223.752 201.447C223.925 201.359 224.136 201.43 224.223 201.603C224.311 201.775 224.241 201.987 224.069 202.075C221.854 203.2 219.376 203.775 216.901 203.775L216.905 203.771Z" fill="black"/>
<path d="M248.97 200.362C248.801 200.362 248.65 200.238 248.622 200.062C248.594 199.868 248.724 199.688 248.914 199.66C254.338 198.81 259.006 194.061 259.772 188.613C260.254 185.176 259.227 181.548 256.956 178.66C256.837 178.508 256.861 178.286 257.016 178.166C257.171 178.047 257.389 178.071 257.508 178.226C259.899 181.266 260.978 185.091 260.468 188.716C259.66 194.459 254.738 199.466 249.023 200.362C249.005 200.362 248.988 200.365 248.966 200.365L248.97 200.362Z" fill="black"/>
<path d="M190.995 201.098C190.995 201.098 190.967 201.098 190.953 201.098C190.759 201.074 190.622 200.897 190.647 200.707C190.949 198.225 191.258 195.662 190.714 193.197C190.25 191.106 188.872 188.561 186.397 187.7C186.214 187.637 186.116 187.436 186.179 187.252C186.242 187.069 186.443 186.97 186.626 187.034C188.928 187.834 190.756 190.14 191.399 193.045C191.972 195.63 191.638 198.373 191.343 200.795C191.322 200.975 191.171 201.105 190.995 201.105V201.098Z" fill="black"/>
<path d="M149.516 203.43H110.287C109.451 203.43 108.684 202.954 108.312 202.203L81.3789 147.979C80.6477 146.509 81.7163 144.777 83.3544 144.777H122.583C123.42 144.777 124.186 145.253 124.559 146.004L151.492 200.228C152.223 201.698 151.154 203.43 149.516 203.43Z" fill="black"/>
<path d="M106.023 171.132C105.116 170.755 104.199 171.629 103.647 172.444C102.15 174.672 101.074 177.183 100.501 179.809C100.951 174.915 101.401 170.022 101.851 165.128C101.995 163.555 101.774 161.45 100.227 161.147C99.0318 160.911 98.0229 162.032 97.4007 163.083C96.1283 165.237 95.2635 167.635 94.8733 170.106C95.4533 166.725 96.0298 163.344 96.6098 159.966C96.7434 159.183 96.8699 158.34 96.5184 157.628C95.7627 156.105 93.2986 156.384 92.2651 157.734C92.1105 157.939 91.9804 158.154 91.8679 158.376C91.9242 158.147 91.9769 157.914 92.0191 157.681C92.3249 156.028 91.8257 153.891 90.1912 153.507C89.1753 153.267 88.1067 153.863 87.5021 154.716C86.8975 155.566 86.6655 156.623 86.5038 157.656C85.8043 162.131 86.1804 166.767 87.5478 171.083C90.0682 181.209 97.0703 190.39 105.489 196.532C103.376 189.005 106.723 181.209 106.937 173.392C106.962 172.525 106.814 171.464 106.013 171.132H106.023Z" fill="white"/>
<path d="M105.496 196.889C105.422 196.889 105.352 196.868 105.289 196.822C96.2092 190.197 89.6183 180.85 87.2105 171.171C85.8255 166.799 85.4599 162.103 86.1594 157.607C86.3246 156.539 86.5707 155.428 87.2175 154.515C87.8432 153.634 89.0348 152.876 90.2721 153.168C91.8223 153.532 92.5394 155.309 92.448 157.043C93.1264 156.483 94.065 156.176 94.9578 156.264C95.819 156.349 96.4834 156.779 96.8279 157.473C97.2462 158.316 97.0774 159.303 96.9509 160.026L96.153 164.698C96.4377 164.081 96.7505 163.481 97.095 162.903C98.03 161.327 99.1654 160.583 100.29 160.802C101.71 161.08 102.424 162.713 102.195 165.163L101.159 176.425C101.739 174.954 102.473 173.544 103.348 172.247C104.206 170.97 105.254 170.434 106.15 170.805C106.695 171.034 107.338 171.668 107.289 173.403C107.208 176.298 106.698 179.214 106.206 182.034C105.335 187.03 104.512 191.748 105.827 196.437C105.869 196.582 105.813 196.737 105.69 196.822C105.63 196.864 105.559 196.885 105.489 196.885L105.496 196.889ZM89.7343 153.814C88.9469 153.814 88.2017 154.353 87.794 154.928C87.2315 155.721 87.0101 156.737 86.8589 157.717C86.1735 162.106 86.532 166.69 87.8924 170.981C90.1948 180.24 96.3779 189.181 104.92 195.669C103.918 191.127 104.733 186.452 105.524 181.922C106.013 179.126 106.519 176.234 106.596 173.393C106.618 172.656 106.512 171.725 105.89 171.467C105.226 171.189 104.449 171.898 103.943 172.652C102.477 174.828 101.408 177.331 100.849 179.894C100.811 180.078 100.635 180.194 100.452 180.166C100.269 180.137 100.139 179.972 100.157 179.785L101.507 165.107C101.577 164.338 101.689 161.803 100.164 161.503C99.067 161.285 98.1531 162.519 97.7066 163.273C96.5502 165.23 95.7276 167.434 95.3128 169.676L95.225 170.177C95.1933 170.367 95.0141 170.498 94.8207 170.466C94.6309 170.434 94.5008 170.255 94.5325 170.064C94.5606 169.895 94.5887 169.722 94.6204 169.553L96.269 159.917C96.4096 159.102 96.501 158.383 96.2092 157.794C95.8928 157.16 95.2531 157.008 94.8981 156.973C94.0193 156.885 93.0561 157.294 92.5499 157.956C92.4164 158.129 92.3004 158.323 92.1879 158.545C92.107 158.707 91.9207 158.778 91.752 158.718C91.5833 158.655 91.4884 158.478 91.5341 158.302C91.5903 158.076 91.6395 157.854 91.6817 157.629C91.9313 156.275 91.6114 154.212 90.121 153.863C89.9944 153.831 89.8679 153.821 89.7414 153.821L89.7343 153.814Z" fill="black"/>
<path d="M89.8328 171.447C89.657 171.447 89.5059 171.316 89.4848 171.136C89.0032 167.046 89.5973 162.882 91.1966 159.092C91.274 158.912 91.4814 158.831 91.6571 158.905C91.8364 158.983 91.9208 159.187 91.8434 159.367C90.2897 163.048 89.7168 167.089 90.1843 171.055C90.2054 171.249 90.0683 171.425 89.8749 171.447C89.8609 171.447 89.8468 171.447 89.8328 171.447Z" fill="black"/>
<path d="M95.0423 178.484C94.8771 178.484 94.7295 178.367 94.6978 178.195C94.2584 175.832 94.1846 173.428 94.4799 171.044C94.5045 170.85 94.6767 170.716 94.8736 170.738C95.0669 170.762 95.204 170.939 95.1794 171.132C94.8911 173.442 94.965 175.776 95.3903 178.068C95.4254 178.258 95.2989 178.441 95.1091 178.48C95.088 178.484 95.0669 178.487 95.0458 178.487L95.0423 178.484Z" fill="black"/>
<path d="M158.301 319.609H256.566L254.612 233.621C253.019 229.051 248.675 226.026 243.845 226.128L203.498 226.971C198.827 227.07 194.717 230.074 193.185 234.499C190.854 241.233 162.403 307.004 158.301 319.612V319.609Z" fill="white"/>
<path d="M158.301 319.962C158.265 319.962 158.227 319.955 158.192 319.944C158.009 319.884 157.907 319.683 157.967 319.5C160.462 311.828 171.901 284.647 181.089 262.805C186.914 248.966 191.94 237.013 192.854 234.379C192.918 234.196 193.118 234.097 193.301 234.161C193.483 234.224 193.582 234.425 193.519 234.609C192.601 237.264 187.568 249.227 181.739 263.076C172.554 284.905 161.123 312.071 158.634 319.715C158.585 319.863 158.448 319.958 158.301 319.958V319.962Z" fill="black"/>
<path d="M256.566 319.962C256.376 319.962 256.218 319.81 256.215 319.616L254.26 233.628C254.257 233.434 254.408 233.272 254.605 233.269C254.816 233.269 254.96 233.42 254.963 233.614L256.918 319.602C256.921 319.796 256.77 319.958 256.573 319.962H256.566Z" fill="black"/>
<path d="M210.964 320C210.94 320 210.912 320 210.887 319.993C210.697 319.951 210.578 319.764 210.62 319.573L221.654 269.856C222.483 266.122 224.93 263.033 228.368 261.376L233.908 258.707C234.083 258.622 234.294 258.696 234.375 258.873C234.459 259.049 234.386 259.257 234.21 259.342L228.67 262.011C225.429 263.573 223.12 266.488 222.339 270.007L211.305 319.725C211.27 319.891 211.122 320 210.961 320H210.964Z" fill="black"/>
<path d="M232.354 160.672C235.215 159.494 238.453 157.435 241.395 154.72L233.982 154.657C233.198 154.569 232.336 154.301 232.354 153.056V135.149L232.097 135.029L232.119 133.685C232.119 133.685 230.79 123.598 219.914 129.232L219.074 128.834L218.863 129.81C218.329 130.121 217.77 130.466 217.193 130.851L214.599 149.633L213.766 153.511C213.369 154.072 212.757 154.467 212.047 154.583L205.425 155.655C205.425 155.655 217.422 166.239 231.574 160.982L232.354 160.676V160.672Z" fill="white"/>
<path d="M213.116 127.247C211.885 128.213 211.327 129.912 211.597 131.453C211.868 132.994 212.908 134.351 214.248 135.155C215.59 135.959 217.207 136.238 218.765 136.093C219.622 136.012 220.515 135.815 221.327 136.114C221.953 136.344 222.438 136.844 222.941 137.281C225.327 139.351 228.681 140.282 231.767 139.637C234.853 138.991 237.588 136.745 238.731 133.798C239.676 131.365 239.546 128.643 239.131 126.066C238.337 121.13 236.551 116.405 234.498 111.85C230.93 112.685 227.187 112.742 223.598 112.015C224.554 114.84 224.456 118.006 223.327 120.766C222.466 122.868 221.014 124.719 219.193 126.073C218.824 126.344 218.248 126.877 217.794 126.975C217.228 127.095 216.873 126.718 216.286 126.573C215.204 126.309 213.991 126.563 213.112 127.25L213.116 127.247Z" fill="white"/>
<path d="M229.805 140.19C227.257 140.19 224.67 139.252 222.712 137.549C222.628 137.475 222.543 137.401 222.459 137.324C222.051 136.96 221.668 136.615 221.207 136.446C220.631 136.234 219.988 136.308 219.302 136.389C219.134 136.41 218.965 136.428 218.8 136.446C217.077 136.604 215.4 136.255 214.072 135.458C212.585 134.566 211.534 133.093 211.256 131.513C210.954 129.803 211.618 127.973 212.905 126.965C213.861 126.214 215.193 125.932 216.378 126.221C216.624 126.281 216.828 126.376 217.007 126.457C217.309 126.594 217.492 126.668 217.727 126.619C218.002 126.559 218.416 126.231 218.719 125.992C218.817 125.914 218.909 125.84 218.989 125.78C220.782 124.447 222.171 122.663 223.007 120.625C224.1 117.956 224.195 114.857 223.271 112.121C223.232 112.001 223.257 111.871 223.341 111.775C223.426 111.68 223.552 111.638 223.675 111.663C227.204 112.375 230.923 112.318 234.428 111.5C234.59 111.465 234.758 111.546 234.829 111.698C236.533 115.488 238.607 120.544 239.486 126.002C239.82 128.075 240.14 131.15 239.064 133.918C237.897 136.922 235.064 139.302 231.844 139.975C231.176 140.116 230.494 140.183 229.809 140.183L229.805 140.19ZM220.329 135.606C220.705 135.606 221.081 135.652 221.446 135.786C222.034 136.001 222.487 136.407 222.926 136.798C223.007 136.872 223.092 136.943 223.172 137.017C225.499 139.034 228.765 139.904 231.697 139.291C234.688 138.663 237.324 136.456 238.407 133.667C239.419 131.062 239.11 128.111 238.787 126.118C238.119 121.986 236.734 117.702 234.298 112.251C230.969 112.988 227.468 113.062 224.107 112.466C224.891 115.213 224.733 118.252 223.65 120.897C222.768 123.055 221.295 124.941 219.401 126.351C219.323 126.408 219.239 126.475 219.148 126.549C218.771 126.848 218.304 127.222 217.868 127.314C217.394 127.416 217.031 127.25 216.708 127.102C216.539 127.025 216.381 126.954 216.202 126.908C215.221 126.665 214.121 126.901 213.33 127.522C212.24 128.375 211.685 129.93 211.942 131.39C212.184 132.772 213.116 134.066 214.427 134.852C215.629 135.571 217.155 135.889 218.729 135.74C218.891 135.726 219.053 135.705 219.214 135.688C219.58 135.645 219.953 135.599 220.325 135.599L220.329 135.606Z" fill="black"/>
<path d="M218.684 133.879C218.564 133.879 218.448 133.819 218.381 133.71C217.801 132.754 216.708 132.109 215.594 132.074C215.4 132.067 215.249 131.904 215.256 131.71C215.263 131.517 215.425 131.358 215.618 131.372C216.986 131.418 218.276 132.176 218.982 133.35C219.084 133.516 219.032 133.734 218.863 133.833C218.807 133.868 218.743 133.886 218.68 133.886L218.684 133.879Z" fill="black"/>
<path d="M13.5227 232.489H0.351514C0.158181 232.489 0 232.331 0 232.137V103.303C0 103.109 0.158181 102.95 0.351514 102.95H11.2344C11.4277 102.95 11.5859 103.109 11.5859 103.303C11.5859 103.497 11.4277 103.655 11.2344 103.655H0.703027V231.784H13.5227C13.7161 231.784 13.8742 231.943 13.8742 232.137C13.8742 232.331 13.7161 232.489 13.5227 232.489Z" fill="black"/>
<path d="M427.817 216.531H289.204V319.313H427.817V216.531Z" fill="white"/>
<path d="M427.817 319.665H289.204C289.011 319.665 288.853 319.507 288.853 319.313V216.531C288.853 216.337 289.011 216.179 289.204 216.179H427.817C428.01 216.179 428.168 216.337 428.168 216.531V319.313C428.168 319.507 428.01 319.665 427.817 319.665ZM289.556 318.96H427.465V216.884H289.556V318.96Z" fill="black"/>
<path d="M420.331 224.569L296.535 224.721L296.642 313.032L420.438 312.88L420.331 224.569Z" fill="#E2EAFF"/>
<path d="M409.028 301.003H330.676V241.709L409.028 271.358V301.003Z" fill="white"/>
<path d="M409.028 301.356H330.676C330.483 301.356 330.324 301.197 330.324 301.003V241.709C330.324 241.593 330.381 241.484 330.476 241.42C330.571 241.353 330.69 241.339 330.799 241.381L409.151 271.027C409.288 271.079 409.38 271.21 409.38 271.358V301.007C409.38 301.201 409.222 301.359 409.028 301.359V301.356ZM331.027 300.651H408.677V271.601L331.027 242.221V300.651Z" fill="black"/>
<path d="M325.094 236.392L414.61 270.265V265.078L325.094 231.209V236.392Z" fill="white"/>
<path d="M414.61 270.617C414.568 270.617 414.526 270.61 414.487 270.596L324.971 236.723C324.834 236.67 324.742 236.54 324.742 236.392V231.205C324.742 231.089 324.799 230.98 324.894 230.916C324.988 230.849 325.108 230.835 325.217 230.878L414.733 264.75C414.871 264.803 414.962 264.933 414.962 265.082V270.268C414.962 270.384 414.906 270.494 414.811 270.557C414.751 270.6 414.681 270.621 414.61 270.621V270.617ZM325.445 236.149L414.259 269.753V265.321L325.445 231.717V236.149Z" fill="black"/>
<path d="M330.676 301.002H303.975V275.31L330.676 263.452V301.002Z" fill="white"/>
<path d="M330.676 301.355H303.971C303.778 301.355 303.62 301.196 303.62 301.002V275.31C303.62 275.169 303.701 275.045 303.827 274.989L330.532 263.131C330.641 263.082 330.767 263.093 330.866 263.16C330.964 263.223 331.024 263.336 331.024 263.456V301.009C331.024 301.203 330.866 301.362 330.672 301.362L330.676 301.355ZM304.323 300.65H330.324V263.992L304.323 275.539V300.65Z" fill="black"/>
<path d="M367.187 301.356C366.994 301.356 366.836 301.197 366.836 301.003V255.523C366.836 255.33 366.994 255.171 367.187 255.171C367.381 255.171 367.539 255.33 367.539 255.523V301.003C367.539 301.197 367.381 301.356 367.187 301.356Z" fill="black"/>
<path d="M409.028 282.58H385.217C385.023 282.58 384.865 282.422 384.865 282.228C384.865 282.034 385.023 281.875 385.217 281.875H409.028C409.222 281.875 409.38 282.034 409.38 282.228C409.38 282.422 409.222 282.58 409.028 282.58Z" fill="black"/>
<path d="M382.071 296.867H372.014C371.821 296.867 371.662 296.709 371.662 296.515V272.747C371.662 272.553 371.821 272.395 372.014 272.395H382.071C382.264 272.395 382.422 272.553 382.422 272.747V296.515C382.422 296.709 382.264 296.867 382.071 296.867ZM372.365 296.162H381.719V273.1H372.365V296.162Z" fill="black"/>
<path d="M385.635 296.867H367.187C366.994 296.867 366.836 296.709 366.836 296.515C366.836 296.321 366.994 296.162 367.187 296.162H385.635C385.828 296.162 385.986 296.321 385.986 296.515C385.986 296.709 385.828 296.867 385.635 296.867Z" fill="black"/>
<path d="M404.037 271.95H390.24V280.292H404.037V271.95Z" fill="#E2EAFF"/>
<path d="M336.718 248.623L361.148 257.949V293.856H336.718V248.623Z" fill="#E2EAFF"/>
<path d="M348.934 293.204C348.74 293.204 348.582 293.045 348.582 292.851V254.79C348.582 254.596 348.74 254.438 348.934 254.438C349.127 254.438 349.285 254.596 349.285 254.79V292.851C349.285 293.045 349.127 293.204 348.934 293.204Z" fill="black"/>
<path d="M55.5989 139.012C77.2819 139.012 94.8595 121.387 94.8595 99.6462C94.8595 77.905 77.2819 60.2803 55.5989 60.2803C33.9159 60.2803 16.3384 77.905 16.3384 99.6462C16.3384 121.387 33.9159 139.012 55.5989 139.012Z" fill="#F6B679"/>
<path d="M46.3156 80.8574H39.6755V89.3864H46.3156V80.8574Z" fill="white"/>
<path d="M75.9095 119.917H34.9336V91.5232L55.6131 81.8096L75.9095 91.5232V119.917Z" fill="white"/>
<path d="M59.4692 120.142C59.2759 120.142 59.1177 119.983 59.1177 119.789V103.743H50.2104V119.789C50.2104 119.983 50.0522 120.142 49.8588 120.142C49.6655 120.142 49.5073 119.983 49.5073 119.789V103.391C49.5073 103.197 49.6655 103.038 49.8588 103.038H59.4692C59.6625 103.038 59.8207 103.197 59.8207 103.391V119.789C59.8207 119.983 59.6625 120.142 59.4692 120.142Z" fill="black"/>
<path d="M81.618 97.9716L55.6025 84.242L29.5835 97.7142L29.6222 92.8591L55.6201 79.3799L81.6005 92.905L81.618 97.9716Z" fill="white"/>
<path d="M34.8913 95.3481C34.7648 95.3481 34.6417 95.2776 34.5785 95.1577C34.4906 94.985 34.5574 94.7734 34.7296 94.6817L55.4408 83.9244C55.5427 83.8715 55.6658 83.8715 55.7677 83.9244L76.036 94.6394C76.2082 94.7311 76.275 94.9427 76.1836 95.1154C76.0922 95.2882 75.8813 95.3516 75.7091 95.2635L55.6025 84.6331L35.0565 95.3058C35.0038 95.334 34.9511 95.3446 34.8948 95.3446L34.8913 95.3481Z" fill="black"/>
<path d="M40.0621 87.8206C39.9356 87.8206 39.8125 87.7501 39.7493 87.6302C39.6614 87.4574 39.7282 87.2459 39.9039 87.1542L45.9359 84.0585C46.1081 83.9704 46.319 84.0409 46.4104 84.2137C46.4983 84.3864 46.4315 84.598 46.2558 84.6897L40.2238 87.7853C40.1711 87.81 40.1184 87.8241 40.0656 87.8241L40.0621 87.8206Z" fill="black"/>
<path d="M77.6143 61.5282L91.2389 65.5265L116.72 48.391L104.417 30.0391L78.9359 47.1746L77.6178 61.5282H77.6143Z" fill="white"/>
<path d="M91.239 65.879C91.2073 65.879 91.1722 65.8755 91.1406 65.8649L77.5159 61.8666C77.3542 61.8208 77.2487 61.6621 77.2663 61.4964L78.5845 47.1427C78.595 47.0369 78.6513 46.9417 78.7392 46.8818L104.22 29.7463C104.382 29.637 104.6 29.6828 104.709 29.8415L117.012 48.1934C117.065 48.271 117.082 48.3662 117.065 48.4579C117.047 48.5495 116.994 48.6306 116.917 48.6835L91.4358 65.819C91.3761 65.8578 91.3093 65.879 91.239 65.879ZM77.9939 61.2707L91.1827 65.1421L116.235 48.2957L104.322 30.529L79.2699 47.3754L77.9939 61.2707Z" fill="black"/>
<path d="M108.196 48.6336C108.175 48.6336 108.15 48.6336 108.129 48.6265L91.0561 45.2664C90.8663 45.2276 90.7398 45.0443 90.7784 44.8539C90.8171 44.6635 90.9999 44.5366 91.1897 44.5753L108.263 47.9355C108.453 47.9742 108.579 48.1576 108.54 48.348C108.509 48.5172 108.361 48.6336 108.196 48.6336Z" fill="black"/>
<path d="M101.12 43.0947C100.456 43.0947 99.8019 42.7738 99.4047 42.1815C99.0989 41.7232 98.9864 41.1731 99.0918 40.6301C99.1973 40.0872 99.5102 39.6182 99.9671 39.3115C100.913 38.6768 102.196 38.9307 102.832 39.8756C103.138 40.334 103.25 40.884 103.145 41.427C103.039 41.97 102.727 42.4389 102.27 42.7456C101.918 42.9819 101.517 43.0947 101.124 43.0947H101.12ZM101.113 39.6676C100.853 39.6676 100.589 39.7416 100.357 39.9003C100.055 40.1048 99.8511 40.4115 99.7808 40.7676C99.7105 41.1238 99.7808 41.4869 99.9882 41.7901C100.407 42.4142 101.254 42.5799 101.876 42.1604C102.178 41.9559 102.382 41.6491 102.452 41.293C102.523 40.9369 102.452 40.5737 102.245 40.2705C101.981 39.8791 101.552 39.6676 101.113 39.6676Z" fill="black"/>
<path d="M97.9177 54.6416C97.2533 54.6416 96.5995 54.3207 96.2023 53.7284C95.8965 53.27 95.784 52.72 95.8895 52.177C95.9949 51.634 96.3078 51.1686 96.7647 50.8584C97.7103 50.2237 98.9933 50.4776 99.6296 51.4225C99.9354 51.8808 100.048 52.4309 99.9424 52.9739C99.837 53.5168 99.5241 53.9858 99.0671 54.2925C98.7156 54.5287 98.3149 54.6416 97.9212 54.6416H97.9177ZM97.9107 51.2145C97.6505 51.2145 97.3869 51.2885 97.1549 51.4472C96.8526 51.6517 96.6487 51.9584 96.5784 52.3145C96.5081 52.6706 96.5784 53.0338 96.7858 53.337C97.2041 53.9611 98.0513 54.1268 98.6734 53.7072C98.9757 53.5027 99.1796 53.196 99.2499 52.8399C99.3202 52.4838 99.2499 52.1206 99.0425 51.8174C98.7789 51.426 98.3501 51.2145 97.9107 51.2145Z" fill="black"/>
<path d="M66.0459 83.3741C65.8947 83.3741 65.7541 83.2754 65.7084 83.1203C65.6522 82.9334 65.7612 82.7359 65.9475 82.6831C68.7104 81.8721 73.5859 77.5918 72.2536 67.1835C71.7966 63.5942 72.4505 60.9322 74.201 59.268C76.8514 56.7471 80.9887 57.4699 81.1645 57.5016C81.3543 57.5368 81.4808 57.7202 81.4457 57.9106C81.4105 58.101 81.2313 58.2279 81.0379 58.1962C80.9993 58.1891 77.0694 57.5086 74.6826 59.7828C73.1078 61.2848 72.5243 63.7458 72.9531 67.0954C74.3451 77.9761 69.1076 82.4927 66.1443 83.3635C66.1127 83.3741 66.0775 83.3776 66.0459 83.3776V83.3741Z" fill="black"/>
</g>
<rect x="55" width="86" height="78" rx="16" fill="#61305D"/>
<path d="M114.375 55.375L107.813 48.8125M112.5 37.5625C112.5 46.3645 105.365 53.5 96.5625 53.5C87.7605 53.5 80.625 46.3645 80.625 37.5625C80.625 28.7605 87.7605 21.625 96.5625 21.625C105.365 21.625 112.5 28.7605 112.5 37.5625Z" stroke="white" stroke-width="3" stroke-linecap="round" stroke-linejoin="round"/>
<defs>
<clipPath id="clip0_114_1248">
<rect width="438" height="293" fill="white" transform="translate(0 27)"/>
</clipPath>
</defs>
</svg>
