<svg width="143" height="32" viewBox="0 0 143 32" fill="none" xmlns="http://www.w3.org/2000/svg">
<path d="M7.625 3.625V4.85938H2.70312V11.6875C5.04688 11.6797 6.66406 11.5938 8.5 11.2344L8.67188 12.4531C6.65625 12.8281 4.95312 12.9219 2.3125 12.9219H1.20312V3.625H7.625ZM12.2031 2.32812V16.3594H10.7188V8.5625H6.82812V7.32812H10.7188V2.32812H12.2031ZM27.1562 13.3594V14.5938H14.3438V13.3594H19.9844V10.4844H15.8125V3.28125H17.2969V5.6875H24.1719V3.28125H25.6406V10.4844H21.4531V13.3594H27.1562ZM17.2969 9.28125H24.1719V6.89062H17.2969V9.28125ZM39.8125 2.32812V16.3281H38.3125V2.32812H39.8125ZM35.6406 3.82812C35.6406 7.92188 33.8906 11.4844 29.0938 13.7812L28.3125 12.5781C32.0391 10.8047 33.8516 8.28125 34.1406 5.01562H28.9844V3.82812H35.6406Z" fill="#98A2B3"/>
<path d="M0 30.5H140.5L118 8" stroke="black" stroke-width="2"/>
</svg>
