<svg width="145" height="30" viewBox="0 0 145 30" fill="none" xmlns="http://www.w3.org/2000/svg">

<!-- 왼쪽 원본 아이콘 -->
<path d="M50.8686 0H0V30H50.8686V0Z" fill="#EF8779"/>
<path fill-rule="evenodd" clip-rule="evenodd" d="M29.0735 2.79102H35.3895C41.9755 2.79102 47.3669 8.28397 47.3669 15.0001C47.3669 21.7161 41.9755 27.2091 35.3895 27.2091H23.8784V20.6292H35.3895C38.4248 20.6292 40.9092 18.0968 40.9092 15.0001C40.9092 11.9033 38.4248 9.37089 35.3895 9.37089H29.0735V2.79102Z" fill="white"/>
<path d="M3.50146 2.79102V9.36811H11.5382V27.1618H17.9933V2.79102H3.50146Z" fill="white"/>
<path d="M28.9724 9.36816H22.5146V27.2092H28.9724V9.36816Z" fill="white"/>
<path d="M22.4164 2.79102H14.4424V9.36811H22.4164V2.79102Z" fill="white"/>

<!-- 메인 텍스트 -->
<text
x="54"
y="13"
font-size="11"
font-weight="700"
font-family="Montserrat, Pretendard, Noto Sans KR, Apple SD Gothic Neo, sans-serif"
fill="#555"
textLength="86"
lengthAdjust="spacingAndGlyphs">
토디 구매대행[todypurchas] 
</text>

<!-- 서브 텍스트 -->
<text
x="54"
y="27"
font-size="7"
font-family="Montserrat,Pretendard, Noto Sans KR, Apple SD Gothic Neo, sans-serif"
fill="#00A651"
textLength="86"
lengthAdjust="spacingAndGlyphs">
신속 정확한 구매대행
</text>

</svg>
